<svg width="24" height="24" viewBox="0 0 24 24" fill="none" xmlns="http://www.w3.org/2000/svg">
<path d="M12.64 8.46997C13.44 8.67997 14.09 9.32997 14.29 10.13C14.57 11.23 14.08 12.25 13.24 12.77V14.75C13.24 15.44 12.68 16 11.99 16C11.3 16 10.74 15.44 10.74 14.75V12.77C10.06 12.35 9.60999 11.6 9.60999 10.75" stroke="white" stroke-width="1.5" stroke-miterlimit="10" stroke-linecap="round" stroke-linejoin="round"/>
<path d="M21.55 9.03C20.28 4.96 16.49 2 12 2C7.89 2 4.36001 4.48 2.82001 8.02C2.29001 9.24 2 10.58 2 12C2 17.52 6.48 22 12 22C16.47 22 20.26 19.06 21.54 15.01" stroke="white" stroke-width="1.5" stroke-miterlimit="10" stroke-linecap="round" stroke-linejoin="round"/>
</svg>
