<svg width="24" height="24" viewBox="0 0 24 24" fill="none" xmlns="http://www.w3.org/2000/svg">
<path d="M10.45 3.05006L6.72 7.71006C5.87 8.77006 6.17 10.1301 7.38 10.7301L11.11 12.6001C11.6 12.8401 12.4 12.8401 12.89 12.6001L16.62 10.7301C17.83 10.1201 18.13 8.76006 17.28 7.71006L13.55 3.05006C12.7 1.98006 11.3 1.98006 10.45 3.05006Z" stroke="white" stroke-width="1.5" stroke-miterlimit="10" stroke-linecap="round" stroke-linejoin="round"/>
<path d="M12 2.30005V7.56005" stroke="white" stroke-width="1.5" stroke-miterlimit="10" stroke-linecap="round" stroke-linejoin="round"/>
<path d="M7.79999 10.7101L12 7.56006L16.2 10.7101" stroke="white" stroke-width="1.5" stroke-miterlimit="10" stroke-linecap="round" stroke-linejoin="round"/>
<path d="M7.79999 17.7299L6.99999 16.7499C5.99999 15.5299 7.32999 13.7899 8.76999 14.4299L10.38 15.1499C11.41 15.6099 12.59 15.6099 13.63 15.1499L15.24 14.4299C16.68 13.7899 18.01 15.5299 17.01 16.7499L13.55 20.9799C12.7 22.0199 11.31 22.0199 10.45 20.9799" stroke="white" stroke-width="1.5" stroke-miterlimit="10" stroke-linecap="round" stroke-linejoin="round"/>
</svg>
