<svg width="24" height="24" viewBox="0 0 24 24" fill="none" xmlns="http://www.w3.org/2000/svg">
<path d="M6.9 9.10012L11.67 6.98012C11.88 6.89012 12.12 6.89012 12.32 6.98012L17.09 9.10012C17.51 9.29012 17.9 8.78012 17.61 8.42012L12.61 2.31012C12.27 1.89012 11.71 1.89012 11.37 2.31012L6.36997 8.42012C6.08997 8.78012 6.48 9.29012 6.9 9.10012Z" stroke="white" stroke-width="1.5" stroke-miterlimit="10" stroke-linecap="round" stroke-linejoin="round"/>
<path d="M6.90007 14.9L11.68 17.02C11.89 17.11 12.1301 17.11 12.3301 17.02L17.11 14.9C17.53 14.71 17.92 15.22 17.63 15.58L12.63 21.69C12.29 22.11 11.7301 22.11 11.3901 21.69L6.39006 15.58C6.09006 15.22 6.47007 14.71 6.90007 14.9Z" stroke="white" stroke-width="1.5" stroke-miterlimit="10" stroke-linecap="round" stroke-linejoin="round"/>
<path d="M16.01 12.6199L17.24 11.9999L12 9.37988L6.76001 11.9999L12 14.6199L12.8 14.2199" stroke="white" stroke-width="1.5" stroke-miterlimit="10" stroke-linecap="round" stroke-linejoin="round"/>
</svg>
