<svg width="24" height="24" viewBox="0 0 24 24" fill="none" xmlns="http://www.w3.org/2000/svg">
<path d="M7.56 7.55995V3.88997C7.56 3.05997 8.17001 2.36995 8.98001 2.23995C10.98 1.92995 13.02 1.92995 15.02 2.23995C15.84 2.36995 16.44 3.06997 16.44 3.88997V9.77995C16.44 11.01 15.45 12 14.22 12H9.78C8.55 12 7.56 12.99 7.56 14.22V20.1099C7.56 20.9399 8.17001 21.63 8.98001 21.76C10.98 22.07 13.02 22.07 15.02 21.76C15.84 21.63 16.44 20.9299 16.44 20.1099V16.44" stroke="white" stroke-width="1.5" stroke-linecap="round" stroke-linejoin="round"/>
<path d="M16.44 7.56006H20.11C20.94 7.56006 21.63 8.17007 21.76 8.98007C22.07 10.9801 22.07 13.0201 21.76 15.0201C21.63 15.8401 20.93 16.4401 20.11 16.4401H12" stroke="white" stroke-width="1.5" stroke-linecap="round" stroke-linejoin="round"/>
<path d="M2.02002 12.98C2.05002 13.66 2.12004 14.34 2.23004 15.02C2.36004 15.84 3.06004 16.44 3.88004 16.44H7.55002" stroke="white" stroke-width="1.5" stroke-linecap="round" stroke-linejoin="round"/>
<path d="M12 7.56006H3.87997C3.04997 7.56006 2.35998 8.17007 2.22998 8.98007" stroke="white" stroke-width="1.5" stroke-linecap="round" stroke-linejoin="round"/>
<path d="M10.39 4.77997C10.39 4.80997 10.37 4.83997 10.33 4.83997C10.29 4.83997 10.27 4.81997 10.27 4.77997C10.27 4.74997 10.29 4.71997 10.33 4.71997C10.34 4.71997 10.36 4.72996 10.37 4.73996C10.38 4.74996 10.39 4.75997 10.39 4.77997Z" stroke="white" stroke-width="1.5" stroke-linecap="round" stroke-linejoin="round"/>
<path d="M13.72 19.22C13.72 19.25 13.7 19.28 13.66 19.28C13.63 19.28 13.6 19.26 13.6 19.22C13.6 19.19 13.62 19.16 13.66 19.16C13.67 19.16 13.69 19.17 13.7 19.18C13.72 19.19 13.72 19.21 13.72 19.22Z" stroke="white" stroke-width="1.5" stroke-linecap="round" stroke-linejoin="round"/>
</svg>
