<svg width="24" height="24" viewBox="0 0 24 24" fill="none" xmlns="http://www.w3.org/2000/svg">
<path fill-rule="evenodd" clip-rule="evenodd" d="M17.31 15.3101C17.02 15.4701 16.78 15.5401 16.58 15.5901C16.41 15.6301 16.27 15.6701 16.15 15.7501C16.02 15.8301 16.01 15.96 15.99 16.08C15.97 16.19 15.96 16.2801 15.88 16.3401C15.79 16.4001 15.62 16.4101 15.39 16.4201C15.09 16.4401 14.71 16.4501 14.25 16.5901C14.03 16.6701 13.83 16.7901 13.63 16.9101C13.23 17.1601 12.78 17.4301 11.99 17.4301C11.21 17.4301 10.76 17.1601 10.36 16.9101C10.16 16.7801 9.96 16.66 9.73 16.58C9.28 16.44 8.88999 16.4201 8.58999 16.4101C8.35999 16.4001 8.2 16.39 8.1 16.33C8.02 16.28 8.00998 16.1801 7.98998 16.0701C7.96998 15.9501 7.95998 15.8201 7.82998 15.7401C7.70998 15.6601 7.55999 15.6201 7.39999 15.5701C7.19999 15.5201 6.96001 15.46 6.67001 15.3C6.33001 15.11 6.53001 15.0001 6.64001 14.9401C8.57001 14.0101 8.87 12.5701 8.88 12.4601C8.88 12.4501 8.88 12.4501 8.88 12.4401C8.9 12.3201 8.90998 12.2201 8.76998 12.0901C8.67998 12.0001 8.36999 11.8001 8.11999 11.6401C8.00999 11.5601 7.91 11.5001 7.85 11.4701C7.57 11.2701 7.45 11.08 7.54 10.83C7.6 10.66 7.76001 10.6001 7.92001 10.6001C7.97001 10.6001 8.03 10.6101 8.07 10.6201C8.25 10.6601 8.42999 10.7301 8.58999 10.7901C8.69999 10.8401 8.78998 10.8701 8.85998 10.8901C8.87998 10.9001 8.91001 10.9001 8.92001 10.9001C9.02001 10.9001 9.05 10.8501 9.04 10.7501C9.04 10.7201 9.03999 10.6901 9.02999 10.6601C9.00999 10.3101 8.97998 9.70008 9.01998 9.14008C9.09998 8.30008 9.36999 7.87007 9.68999 7.51007C9.84999 7.33007 10.58 6.56006 11.97 6.56006C13.36 6.56006 14.09 7.33006 14.25 7.50006C14.57 7.87006 14.84 8.29008 14.92 9.14008C14.97 9.73008 14.93 10.3601 14.9 10.7101V10.7401C14.89 10.8501 14.92 10.8901 15.02 10.8901C15.04 10.8901 15.06 10.8901 15.08 10.8801C15.15 10.8601 15.24 10.8301 15.35 10.7901C15.5 10.7301 15.68 10.6601 15.87 10.6201C15.92 10.6001 15.97 10.6001 16.02 10.6001C16.19 10.6001 16.34 10.6701 16.4 10.8401C16.49 11.0801 16.37 11.2701 16.09 11.4701C16.04 11.5101 15.94 11.5801 15.82 11.6401C15.58 11.8001 15.26 12.0001 15.17 12.0901C15.03 12.2201 15.04 12.3201 15.06 12.4401C15.06 12.4501 15.06 12.4601 15.06 12.4601C15.08 12.5701 15.38 14.0101 17.3 14.9401C17.45 15.0001 17.65 15.1201 17.31 15.3101Z" stroke="white" stroke-width="1.5" stroke-miterlimit="10" stroke-linejoin="round"/>
<path d="M4 6C2.75 7.67 2 9.75 2 12C2 17.52 6.48 22 12 22C17.52 22 22 17.52 22 12C22 6.48 17.52 2 12 2C10.57 2 9.2 2.30001 7.97 2.85001" stroke="white" stroke-width="1.5" stroke-linecap="round" stroke-linejoin="round"/>
</svg>
