<svg width="24" height="24" viewBox="0 0 24 24" fill="none" xmlns="http://www.w3.org/2000/svg">
<path d="M9.54999 17.7201H7.09998C6.42998 17.7201 5.88 17.1701 5.88 16.5001V7.52005C5.88 6.85005 6.42998 6.30005 7.09998 6.30005H9.54999C10.22 6.30005 10.77 6.85005 10.77 7.52005V16.5001C10.77 17.1701 10.22 17.7201 9.54999 17.7201Z" stroke="white" stroke-width="1.5" stroke-miterlimit="10"/>
<path d="M17.14 13.63H14.2C13.66 13.63 13.22 13.19 13.22 12.65V7.26004C13.22 6.72004 13.66 6.28003 14.2 6.28003H17.14C17.68 6.28003 18.12 6.72004 18.12 7.26004V12.65C18.12 13.19 17.68 13.63 17.14 13.63Z" stroke="white" stroke-width="1.5" stroke-miterlimit="10"/>
<path d="M2 12.83V15C2 20 4 22 9 22H15C20 22 22 20 22 15V9C22 4 20 2 15 2H9C4 2 2 4 2 9" stroke="white" stroke-width="1.5" stroke-linecap="round" stroke-linejoin="round"/>
</svg>
