<svg width="24" height="24" viewBox="0 0 24 24" fill="none" xmlns="http://www.w3.org/2000/svg">
<path d="M16.77 4.32001L16.1401 3.25C16.0501 3.1 15.89 3 15.71 3H8.87004C8.48004 3 8.24004 3.42 8.44004 3.75L11.5 9H5.27003C5.10003 9 4.95005 9.08 4.85005 9.22L1.18003 14.72C1.07003 14.89 1.07003 15.11 1.18003 15.27L4.55003 20.33C4.76003 20.64 5.21004 20.62 5.40004 20.3L7.86003 16.08C8.05003 15.76 8.50003 15.75 8.71003 16.05L11.85 20.76C11.94 20.9 12.1 20.98 12.27 20.98H18.7301C18.9001 20.98 19.05 20.9 19.15 20.76L22.83 15.24C22.94 15.08 22.94 14.88 22.85 14.71L19.27 8.57001L16.77 4.32001ZM8.50004 15L11.75 9.42999L14.56 14.25C14.75 14.58 14.51 15 14.13 15H8.50004Z" stroke="white" stroke-width="1.5" stroke-miterlimit="10" stroke-linecap="round"/>
</svg>
