<svg width="69" height="69" viewBox="0 0 69 69" fill="none" xmlns="http://www.w3.org/2000/svg">
<path d="M59.3569 0.876343C60.135 7.46548 60.7665 8.09593 67.356 8.8754C60.7665 9.65486 60.135 10.2872 59.3569 16.8763C58.5769 10.2872 57.9435 9.65486 51.356 8.8754C57.9435 8.09593 58.5769 7.46548 59.3569 0.876343Z" fill="black"/>
<path d="M33.9996 14.2559C34.3376 16.1789 34.7047 17.9159 35.1317 19.4829C36.1857 23.3509 37.6147 26.3059 39.8687 28.5589C42.1227 30.8129 45.0766 32.2429 48.9446 33.2959C50.5106 33.7229 52.2476 34.0879 54.1696 34.4259C52.2466 34.7639 50.5106 35.1309 48.9446 35.5579C45.0766 36.6119 42.1227 38.0429 39.8687 40.2969C37.6147 42.5509 36.1857 45.5059 35.1317 49.3739C34.7057 50.9399 34.3376 52.6759 33.9996 54.5979C33.6616 52.6759 33.2966 50.9399 32.8696 49.3739C31.8156 45.5049 30.3846 42.5509 28.1306 40.2969C25.8766 38.0429 22.9226 36.6119 19.0536 35.5579C17.4876 35.1309 15.7507 34.7639 13.8267 34.4259C15.7507 34.0879 17.4876 33.7229 19.0536 33.2959C22.9226 32.2429 25.8766 30.8129 28.1306 28.5589C30.3846 26.3059 31.8156 23.3509 32.8696 19.4829C33.2966 17.9159 33.6616 16.1789 33.9996 14.2559Z" fill="black"/>
<path d="M5.90623 5.56181C11.4502 0.142811 19.6812 -1.07319 28.1462 0.864813C36.6352 2.80981 45.6593 7.96681 53.3033 15.7868C60.9473 23.6068 65.8983 32.7458 67.6493 41.2768C69.3953 49.7828 67.9923 57.9828 62.4493 63.4018C56.9053 68.8208 48.6763 70.0368 40.2123 68.0988C31.7223 66.1548 22.6993 60.9988 15.0553 53.1798C7.41028 45.3598 2.45722 36.2188 0.706222 27.6868C-1.03978 19.1808 0.363235 10.9808 5.90623 5.56181ZM27.2322 4.85381C19.5902 3.10281 12.9783 4.37281 8.76726 8.48981C4.55726 12.6068 3.13724 19.1878 4.71324 26.8668C6.28424 34.5208 10.8023 42.9758 17.9803 50.3188C25.1583 57.6608 33.5073 62.3658 41.1233 64.1108C48.7643 65.8608 55.3762 64.5928 59.5882 60.4768C63.7992 56.3608 65.2183 49.7798 63.6423 42.0998C62.0723 34.4458 57.5563 25.9918 50.3783 18.6478C43.1993 11.3048 34.8492 6.59781 27.2322 4.85381Z" fill="black"/>
<path d="M8.53484 8.06267C13.5634 3.11227 21.0291 2.00143 28.707 3.77184C36.4067 5.54865 44.5918 10.2597 51.525 17.4035C58.4583 24.5472 62.949 32.8959 64.5372 40.6892C66.1208 48.4597 64.8483 55.9506 59.8207 60.901C54.7921 65.8513 47.3282 66.9622 39.6512 65.1918C31.9506 63.4159 23.7665 58.7058 16.8332 51.5629C9.89905 44.4191 5.40651 36.0686 3.81831 28.2744C2.23465 20.504 3.50721 13.0131 8.53484 8.06267ZM27.878 7.41589C20.9465 5.81631 14.9493 6.97649 11.1299 10.7375C7.31129 14.4985 6.0233 20.5104 7.45277 27.5253C8.8777 34.5174 12.9757 42.2413 19.4863 48.9493C25.9969 55.6564 33.5696 59.9546 40.4775 61.5487C47.4081 63.1473 53.4053 61.989 57.2256 58.2289C61.0451 54.4688 62.3322 48.4569 60.9027 41.441C59.4787 34.4489 55.3826 26.726 48.872 20.0171C42.3605 13.309 34.7868 9.00908 27.878 7.41589Z" fill="black"/>
</svg>
