<svg width="56" height="296" viewBox="0 0 56 296" fill="none" xmlns="http://www.w3.org/2000/svg">
<rect x="0.5" y="0.5" width="55" height="295" rx="4.5" stroke="#7B61FF" stroke-dasharray="10 5"/>
<path d="M29.2601 19.6L21.0501 28.29C20.7401 28.62 20.4401 29.27 20.3801 29.72L20.0101 32.96C19.8801 34.13 20.7201 34.93 21.8801 34.73L25.1001 34.18C25.5501 34.1 26.1801 33.77 26.4901 33.43L34.7001 24.74C36.1201 23.24 36.7601 21.53 34.5501 19.44C32.3501 17.37 30.6801 18.1 29.2601 19.6Z" stroke="white" stroke-width="1.5" stroke-miterlimit="10" stroke-linecap="round" stroke-linejoin="round"/>
<path d="M27.8899 21.05C28.3199 23.81 30.5599 25.92 33.3399 26.2" stroke="white" stroke-width="1.5" stroke-miterlimit="10" stroke-linecap="round" stroke-linejoin="round"/>
<path d="M19 38H37" stroke="white" stroke-width="1.5" stroke-miterlimit="10" stroke-linecap="round" stroke-linejoin="round"/>
<path d="M37 86H19C18.59 86 18.25 85.66 18.25 85.25C18.25 84.84 18.59 84.5 19 84.5H37C37.41 84.5 37.75 84.84 37.75 85.25C37.75 85.66 37.41 86 37 86Z" fill="white"/>
<path d="M35.0201 67.48C33.0801 65.54 31.1801 65.49 29.1901 67.48L27.9801 68.69C27.8801 68.79 27.8401 68.95 27.8801 69.09C28.6401 71.74 30.7601 73.86 33.4101 74.62C33.4501 74.63 33.4901 74.64 33.5301 74.64C33.6401 74.64 33.7401 74.6 33.8201 74.52L35.0201 73.31C36.0101 72.33 36.4901 71.38 36.4901 70.42C36.5001 69.43 36.0201 68.47 35.0201 67.48Z" fill="white"/>
<path d="M31.6101 75.53C31.3201 75.39 31.0401 75.25 30.7701 75.09C30.5501 74.96 30.3401 74.82 30.1301 74.67C29.9601 74.56 29.7601 74.4 29.5701 74.24C29.5501 74.23 29.4801 74.17 29.4001 74.09C29.0701 73.81 28.7001 73.45 28.3701 73.05C28.3401 73.03 28.2901 72.96 28.2201 72.87C28.1201 72.75 27.9501 72.55 27.8001 72.32C27.6801 72.17 27.5401 71.95 27.4101 71.73C27.2501 71.46 27.1101 71.19 26.9701 70.91C26.9489 70.8647 26.9284 70.8195 26.9085 70.7746C26.7609 70.4413 26.3263 70.3438 26.0685 70.6016L20.3401 76.33C20.2101 76.46 20.0901 76.71 20.0601 76.88L19.5201 80.71C19.4201 81.39 19.6101 82.03 20.0301 82.46C20.3901 82.81 20.8901 83 21.4301 83C21.5501 83 21.6701 82.99 21.7901 82.97L25.6301 82.43C25.8101 82.4 26.0601 82.28 26.1801 82.15L31.9014 76.4287C32.1609 76.1692 32.063 75.7237 31.7254 75.5797C31.6874 75.5634 31.649 75.5469 31.6101 75.53Z" fill="white"/>
<path d="M21.54 131.52C20.93 131.52 20.36 131.31 19.95 130.92C19.43 130.43 19.18 129.69 19.27 128.89L19.64 125.65C19.71 125.04 20.08 124.23 20.51 123.79L28.72 115.1C30.77 112.93 32.91 112.87 35.08 114.92C37.25 116.97 37.31 119.11 35.26 121.28L27.05 129.97C26.63 130.42 25.85 130.84 25.24 130.94L22.02 131.49C21.85 131.5 21.7 131.52 21.54 131.52ZM31.93 114.91C31.16 114.91 30.49 115.39 29.81 116.11L21.6 124.81C21.4 125.02 21.17 125.52 21.13 125.81L20.76 129.05C20.72 129.38 20.8 129.65 20.98 129.82C21.16 129.99 21.43 130.05 21.76 130L24.98 129.45C25.27 129.4 25.75 129.14 25.95 128.93L34.16 120.24C35.4 118.92 35.85 117.7 34.04 116C33.24 115.23 32.55 114.91 31.93 114.91Z" fill="white"/>
<path d="M33.3399 122.95C33.3199 122.95 33.2899 122.95 33.2699 122.95C30.1499 122.64 27.6399 120.27 27.1599 117.17C27.0999 116.76 27.3799 116.38 27.7899 116.31C28.1999 116.25 28.5799 116.53 28.6499 116.94C29.0299 119.36 30.9899 121.22 33.4299 121.46C33.8399 121.5 34.1399 121.87 34.0999 122.28C34.0499 122.66 33.7199 122.95 33.3399 122.95Z" fill="white"/>
<path d="M37 134.75H19C18.59 134.75 18.25 134.41 18.25 134C18.25 133.59 18.59 133.25 19 133.25H37C37.41 133.25 37.75 133.59 37.75 134C37.75 134.41 37.41 134.75 37 134.75Z" fill="white"/>
<path d="M29.2601 163.6L21.0501 172.29C20.7401 172.62 20.4401 173.27 20.3801 173.72L20.0101 176.96C19.8801 178.13 20.7201 178.93 21.8801 178.73L25.1001 178.18C25.5501 178.1 26.1801 177.77 26.4901 177.43L34.7001 168.74C36.1201 167.24 36.7601 165.53 34.5501 163.44C32.3501 161.37 30.6801 162.1 29.2601 163.6Z" stroke="white" stroke-width="1.5" stroke-miterlimit="10" stroke-linecap="round" stroke-linejoin="round"/>
<path opacity="0.4" d="M27.8899 165.05C28.3199 167.81 30.5599 169.92 33.3399 170.2" stroke="white" stroke-width="1.5" stroke-miterlimit="10" stroke-linecap="round" stroke-linejoin="round"/>
<path opacity="0.4" d="M19 182H37" stroke="white" stroke-width="1.5" stroke-miterlimit="10" stroke-linecap="round" stroke-linejoin="round"/>
<path opacity="0.4" d="M37 230H19C18.59 230 18.25 229.66 18.25 229.25C18.25 228.84 18.59 228.5 19 228.5H37C37.41 228.5 37.75 228.84 37.75 229.25C37.75 229.66 37.41 230 37 230Z" fill="white"/>
<path opacity="0.4" d="M35.0201 211.48C33.0801 209.54 31.1801 209.49 29.1901 211.48L27.9801 212.69C27.8801 212.79 27.8401 212.95 27.8801 213.09C28.6401 215.74 30.7601 217.86 33.4101 218.62C33.4501 218.63 33.4901 218.64 33.5301 218.64C33.6401 218.64 33.7401 218.6 33.8201 218.52L35.0201 217.31C36.0101 216.33 36.4901 215.38 36.4901 214.42C36.5001 213.43 36.0201 212.47 35.0201 211.48Z" fill="white"/>
<path d="M31.6101 219.53C31.3201 219.39 31.0401 219.25 30.7701 219.09C30.5501 218.96 30.3401 218.82 30.1301 218.67C29.9601 218.56 29.7601 218.4 29.5701 218.24C29.5501 218.23 29.4801 218.17 29.4001 218.09C29.0701 217.81 28.7001 217.45 28.3701 217.05C28.3401 217.03 28.2901 216.96 28.2201 216.87C28.1201 216.75 27.9501 216.55 27.8001 216.32C27.6801 216.17 27.5401 215.95 27.4101 215.73C27.2501 215.46 27.1101 215.19 26.9701 214.91C26.8301 214.61 26.7201 214.32 26.6201 214.05L20.3401 220.33C20.2101 220.46 20.0901 220.71 20.0601 220.88L19.5201 224.71C19.4201 225.39 19.6101 226.03 20.0301 226.46C20.3901 226.81 20.8901 227 21.4301 227C21.5501 227 21.6701 226.99 21.7901 226.97L25.6301 226.43C25.8101 226.4 26.0601 226.28 26.1801 226.15L32.4601 219.87C32.1801 219.77 31.9101 219.66 31.6101 219.53Z" fill="white"/>
<path d="M33.3701 266.17L34.7101 264.75C36.1301 263.25 36.7701 261.54 34.5601 259.45C32.3501 257.37 30.6801 258.1 29.2601 259.6L21.0501 268.29C20.7401 268.62 20.4401 269.27 20.3801 269.72L20.0101 272.96C19.8801 274.13 20.7201 274.93 21.8801 274.73L25.1001 274.18C25.5501 274.1 26.1801 273.77 26.4901 273.43L30.4401 269.25" stroke="white" stroke-width="1.5" stroke-miterlimit="10" stroke-linecap="round" stroke-linejoin="round"/>
<path d="M27.8899 261.05C28.3199 263.81 30.5599 265.92 33.3399 266.2" stroke="white" stroke-width="1.5" stroke-miterlimit="10" stroke-linecap="round" stroke-linejoin="round"/>
<path d="M19 278H30" stroke="white" stroke-width="1.5" stroke-miterlimit="10" stroke-linecap="round" stroke-linejoin="round"/>
<path d="M34 278H37" stroke="white" stroke-width="1.5" stroke-miterlimit="10" stroke-linecap="round" stroke-linejoin="round"/>
</svg>
