<svg width="24" height="24" viewBox="0 0 24 24" fill="none" xmlns="http://www.w3.org/2000/svg">
<path opacity="0.4" d="M10.76 2C10.28 2 9.90002 2.38 9.90002 2.86V21.15C9.90002 21.62 10.28 22.01 10.76 22.01C16.65 22.01 20.76 17.9 20.76 12.01C20.76 6.12 16.64 2 10.76 2Z" fill="white"/>
<path d="M15.9 11.54L13.06 8.68997C12.77 8.39997 12.29 8.39997 12 8.68997C11.71 8.97997 11.71 9.45997 12 9.74997L13.56 11.31H3.98999C3.57999 11.31 3.23999 11.65 3.23999 12.06C3.23999 12.47 3.57999 12.81 3.98999 12.81H13.56L12 14.38C11.71 14.67 11.71 15.15 12 15.44C12.15 15.59 12.34 15.66 12.53 15.66C12.72 15.66 12.91 15.59 13.06 15.44L15.9 12.59C16.2 12.3 16.2 11.83 15.9 11.54Z" fill="white"/>
</svg>
