<svg width="800" height="600" viewBox="0 0 800 600" fill="none" xmlns="http://www.w3.org/2000/svg">
<g clip-path="url(#clip0_1747_61)">
<path d="M800 0H0V600H800V0Z" fill="white"/>
<path d="M24.3153 168.909C24.2599 168.441 24.0353 168.078 23.6413 167.82C23.2474 167.561 22.7642 167.432 22.1918 167.432C21.7732 167.432 21.407 167.5 21.093 167.635C20.7822 167.77 20.5391 167.957 20.3636 168.194C20.1913 168.431 20.1051 168.7 20.1051 169.001C20.1051 169.254 20.1651 169.471 20.2852 169.652C20.4083 169.831 20.5652 169.98 20.756 170.1C20.9469 170.217 21.1469 170.314 21.3562 170.391C21.5655 170.465 21.7578 170.525 21.9332 170.571L22.8935 170.83C23.1397 170.894 23.4136 170.983 23.7152 171.097C24.0199 171.211 24.3107 171.367 24.5877 171.564C24.8678 171.757 25.0986 172.007 25.2802 172.311C25.4618 172.616 25.5526 172.99 25.5526 173.433C25.5526 173.944 25.4187 174.406 25.1509 174.818C24.8862 175.231 24.4985 175.558 23.9876 175.801C23.4798 176.045 22.8627 176.166 22.1364 176.166C21.4593 176.166 20.873 176.057 20.3775 175.838C19.8851 175.62 19.4973 175.315 19.2141 174.924C18.9341 174.533 18.7756 174.08 18.7386 173.562H19.9205C19.9512 173.92 20.0713 174.215 20.2805 174.449C20.4929 174.68 20.7607 174.852 21.0838 174.966C21.41 175.077 21.7609 175.132 22.1364 175.132C22.5734 175.132 22.9658 175.061 23.3136 174.92C23.6613 174.775 23.9368 174.575 24.1399 174.32C24.343 174.061 24.4446 173.759 24.4446 173.415C24.4446 173.101 24.3569 172.845 24.1815 172.648C24.006 172.451 23.7752 172.291 23.489 172.168C23.2028 172.045 22.8935 171.937 22.5611 171.845L21.3977 171.513C20.6591 171.3 20.0743 170.997 19.6435 170.603C19.2126 170.209 18.9972 169.694 18.9972 169.057C18.9972 168.527 19.1403 168.066 19.4265 167.672C19.7158 167.275 20.1036 166.967 20.5898 166.749C21.0792 166.527 21.6255 166.416 22.2287 166.416C22.8381 166.416 23.3797 166.525 23.8537 166.744C24.3277 166.959 24.7031 167.255 24.9801 167.63C25.2602 168.006 25.4079 168.432 25.4233 168.909H24.3153ZM27.2872 176V168.909H28.3398V170.017H28.4321C28.5798 169.638 28.8183 169.345 29.1476 169.135C29.4769 168.923 29.8724 168.817 30.3341 168.817C30.8019 168.817 31.1912 168.923 31.502 169.135C31.816 169.345 32.0606 169.638 32.2361 170.017H32.3099C32.4915 169.651 32.7639 169.36 33.127 169.145C33.4902 168.926 33.9257 168.817 34.4335 168.817C35.0675 168.817 35.5861 169.015 35.9893 169.412C36.3924 169.806 36.594 170.42 36.594 171.254V176H35.5045V171.254C35.5045 170.731 35.3614 170.357 35.0752 170.132C34.789 169.908 34.452 169.795 34.0642 169.795C33.5656 169.795 33.1794 169.946 32.9055 170.248C32.6315 170.546 32.4946 170.925 32.4946 171.384V176H31.3866V171.143C31.3866 170.74 31.2558 170.416 30.9942 170.169C30.7326 169.92 30.3956 169.795 29.9832 169.795C29.7001 169.795 29.4354 169.871 29.1892 170.022C28.9461 170.172 28.7491 170.382 28.5983 170.65C28.4506 170.914 28.3767 171.22 28.3767 171.568V176H27.2872ZM40.6727 176.166C40.2233 176.166 39.8155 176.082 39.4493 175.912C39.0831 175.74 38.7922 175.492 38.5768 175.169C38.3614 174.843 38.2536 174.449 38.2536 173.987C38.2536 173.581 38.3337 173.252 38.4937 172.999C38.6537 172.744 38.8676 172.544 39.1354 172.399C39.4031 172.254 39.6986 172.147 40.0218 172.076C40.348 172.002 40.6758 171.944 41.0051 171.901C41.4359 171.845 41.7852 171.804 42.053 171.776C42.3238 171.745 42.5208 171.694 42.6439 171.624C42.7701 171.553 42.8332 171.43 42.8332 171.254V171.217C42.8332 170.762 42.7085 170.408 42.4593 170.156C42.213 169.903 41.8391 169.777 41.3374 169.777C40.8173 169.777 40.4095 169.891 40.1141 170.119C39.8186 170.346 39.6109 170.589 39.4909 170.848L38.4568 170.479C38.6414 170.048 38.8876 169.712 39.1954 169.472C39.5062 169.229 39.8448 169.06 40.211 168.964C40.5803 168.866 40.9435 168.817 41.3005 168.817C41.5283 168.817 41.7899 168.844 42.0853 168.9C42.3838 168.952 42.6716 169.061 42.9486 169.228C43.2287 169.394 43.461 169.645 43.6457 169.98C43.8303 170.316 43.9227 170.765 43.9227 171.328V176H42.8332V175.04H42.7778C42.7039 175.194 42.5808 175.358 42.4085 175.534C42.2361 175.709 42.0068 175.858 41.7206 175.982C41.4344 176.105 41.0851 176.166 40.6727 176.166ZM40.8389 175.188C41.2697 175.188 41.6329 175.103 41.9284 174.934C42.2269 174.764 42.4516 174.546 42.6024 174.278C42.7562 174.01 42.8332 173.729 42.8332 173.433V172.436C42.787 172.491 42.6855 172.542 42.5285 172.588C42.3746 172.632 42.1961 172.67 41.993 172.704C41.7929 172.735 41.5975 172.762 41.4067 172.787C41.219 172.808 41.0666 172.827 40.9497 172.842C40.6665 172.879 40.4018 172.939 40.1556 173.022C39.9125 173.102 39.7155 173.224 39.5647 173.387C39.417 173.547 39.3431 173.766 39.3431 174.043C39.3431 174.421 39.4832 174.707 39.7632 174.901C40.0464 175.092 40.4049 175.188 40.8389 175.188ZM47.0007 166.545V176H45.9112V166.545H47.0007ZM50.0857 166.545V176H48.9962V166.545H50.0857Z" fill="black"/>
<path d="M19.1449 366.545H20.5114L23.7244 374.393H23.8352L27.0483 366.545H28.4148V376H27.3438V368.817H27.2514L24.2969 376H23.2628L20.3082 368.817H20.2159V376H19.1449V366.545ZM33.5356 376.148C32.8524 376.148 32.263 375.997 31.7675 375.695C31.2751 375.391 30.895 374.966 30.6272 374.421C30.3625 373.873 30.2302 373.236 30.2302 372.51C30.2302 371.784 30.3625 371.143 30.6272 370.589C30.895 370.032 31.2674 369.598 31.7444 369.288C32.2245 368.974 32.7847 368.817 33.4248 368.817C33.7941 368.817 34.1588 368.878 34.5189 369.001C34.879 369.125 35.2068 369.325 35.5022 369.602C35.7977 369.875 36.0331 370.239 36.2085 370.691C36.384 371.143 36.4717 371.701 36.4717 372.362V372.824H31.0058V371.882H35.3637C35.3637 371.482 35.2837 371.125 35.1237 370.811C34.9667 370.497 34.742 370.249 34.4497 370.068C34.1604 369.886 33.8187 369.795 33.4248 369.795C32.9909 369.795 32.6154 369.903 32.2984 370.119C31.9845 370.331 31.7429 370.608 31.5736 370.95C31.4043 371.291 31.3197 371.657 31.3197 372.048V372.676C31.3197 373.212 31.412 373.666 31.5967 374.038C31.7844 374.407 32.0445 374.689 32.3769 374.883C32.7093 375.074 33.0955 375.169 33.5356 375.169C33.8218 375.169 34.0803 375.129 34.3112 375.049C34.5451 374.966 34.7467 374.843 34.9159 374.68C35.0852 374.513 35.216 374.307 35.3083 374.061L36.3609 374.357C36.2501 374.714 36.0639 375.027 35.8023 375.298C35.5407 375.566 35.2175 375.775 34.8328 375.926C34.4481 376.074 34.0157 376.148 33.5356 376.148ZM40.8066 376.148C40.2156 376.148 39.694 375.998 39.2416 375.7C38.7892 375.398 38.4352 374.974 38.1798 374.426C37.9243 373.875 37.7966 373.224 37.7966 372.473C37.7966 371.728 37.9243 371.082 38.1798 370.534C38.4352 369.986 38.7907 369.563 39.2462 369.265C39.7017 368.966 40.228 368.817 40.825 368.817C41.2867 368.817 41.6514 368.894 41.9191 369.048C42.19 369.198 42.3962 369.371 42.5377 369.565C42.6824 369.755 42.7947 369.912 42.8747 370.036H42.9671V366.545H44.0566V376H43.004V374.911H42.8747C42.7947 375.04 42.6808 375.203 42.5331 375.4C42.3854 375.594 42.1746 375.768 41.9007 375.922C41.6267 376.072 41.262 376.148 40.8066 376.148ZM40.9543 375.169C41.3913 375.169 41.7606 375.055 42.0622 374.827C42.3638 374.597 42.5931 374.278 42.7501 373.872C42.907 373.462 42.9855 372.99 42.9855 372.455C42.9855 371.925 42.9086 371.462 42.7547 371.065C42.6008 370.665 42.3731 370.354 42.0715 370.132C41.7699 369.908 41.3975 369.795 40.9543 369.795C40.4926 369.795 40.1079 369.914 39.8002 370.151C39.4955 370.385 39.2662 370.703 39.1123 371.107C38.9615 371.507 38.8861 371.956 38.8861 372.455C38.8861 372.959 38.963 373.418 39.1169 373.83C39.2739 374.24 39.5047 374.566 39.8094 374.809C40.1172 375.049 40.4988 375.169 40.9543 375.169ZM46.2032 376V368.909H47.2927V376H46.2032ZM46.7572 367.727C46.5448 367.727 46.3617 367.655 46.2078 367.51C46.057 367.366 45.9816 367.192 45.9816 366.989C45.9816 366.786 46.057 366.612 46.2078 366.467C46.3617 366.322 46.5448 366.25 46.7572 366.25C46.9695 366.25 47.1511 366.322 47.3019 366.467C47.4558 366.612 47.5328 366.786 47.5328 366.989C47.5328 367.192 47.4558 367.366 47.3019 367.51C47.1511 367.655 46.9695 367.727 46.7572 367.727ZM53.7569 373.101V368.909H54.8464V376H53.7569V374.8H53.6831C53.5169 375.16 53.2583 375.466 52.9075 375.718C52.5566 375.968 52.1135 376.092 51.5779 376.092C51.1348 376.092 50.7408 375.995 50.3961 375.801C50.0514 375.605 49.7806 375.309 49.5836 374.915C49.3867 374.518 49.2882 374.018 49.2882 373.415V368.909H50.3777V373.341C50.3777 373.858 50.5223 374.27 50.8116 374.578C51.104 374.886 51.4764 375.04 51.9288 375.04C52.1996 375.04 52.4751 374.971 52.7551 374.832C53.0383 374.694 53.2753 374.481 53.4661 374.195C53.66 373.909 53.7569 373.544 53.7569 373.101ZM56.8419 376V368.909H57.8944V370.017H57.9868C58.1345 369.638 58.373 369.345 58.7023 369.135C59.0316 368.923 59.4271 368.817 59.8888 368.817C60.3566 368.817 60.7459 368.923 61.0567 369.135C61.3707 369.345 61.6153 369.638 61.7907 370.017H61.8646C62.0462 369.651 62.3186 369.36 62.6817 369.145C63.0449 368.926 63.4804 368.817 63.9882 368.817C64.6222 368.817 65.1408 369.015 65.5439 369.412C65.9471 369.806 66.1487 370.42 66.1487 371.254V376H65.0592V371.254C65.0592 370.731 64.9161 370.357 64.6299 370.132C64.3437 369.908 64.0067 369.795 63.6189 369.795C63.1203 369.795 62.734 369.946 62.4601 370.248C62.1862 370.546 62.0493 370.925 62.0493 371.384V376H60.9413V371.143C60.9413 370.74 60.8105 370.416 60.5489 370.169C60.2873 369.92 59.9503 369.795 59.5379 369.795C59.2548 369.795 58.9901 369.871 58.7439 370.022C58.5007 370.172 58.3038 370.382 58.153 370.65C58.0052 370.914 57.9314 371.22 57.9314 371.568V376H56.8419Z" fill="black"/>
<path d="M19.1449 576V566.545H20.2898V574.984H24.6847V576H19.1449ZM28.3963 576.166C27.947 576.166 27.5392 576.082 27.1729 575.912C26.8067 575.74 26.5159 575.492 26.3004 575.169C26.085 574.843 25.9773 574.449 25.9773 573.987C25.9773 573.581 26.0573 573.252 26.2173 572.999C26.3774 572.744 26.5913 572.544 26.859 572.399C27.1268 572.254 27.4222 572.147 27.7454 572.076C28.0716 572.002 28.3994 571.944 28.7287 571.901C29.1596 571.845 29.5089 571.804 29.7766 571.776C30.0475 571.745 30.2444 571.694 30.3675 571.624C30.4937 571.553 30.5568 571.43 30.5568 571.254V571.217C30.5568 570.762 30.4322 570.408 30.1829 570.156C29.9367 569.903 29.5627 569.777 29.0611 569.777C28.541 569.777 28.1332 569.891 27.8377 570.119C27.5423 570.346 27.3345 570.589 27.2145 570.848L26.1804 570.479C26.3651 570.048 26.6113 569.712 26.919 569.472C27.2299 569.229 27.5684 569.06 27.9347 568.964C28.304 568.866 28.6671 568.817 29.0241 568.817C29.2519 568.817 29.5135 568.844 29.8089 568.9C30.1075 568.952 30.3952 569.061 30.6722 569.228C30.9523 569.394 31.1847 569.645 31.3693 569.98C31.554 570.316 31.6463 570.765 31.6463 571.328V576H30.5568V575.04H30.5014C30.4276 575.194 30.3045 575.358 30.1321 575.534C29.9598 575.709 29.7305 575.858 29.4442 575.982C29.158 576.105 28.8087 576.166 28.3963 576.166ZM28.5625 575.188C28.9934 575.188 29.3565 575.103 29.652 574.934C29.9505 574.764 30.1752 574.546 30.326 574.278C30.4799 574.01 30.5568 573.729 30.5568 573.433V572.436C30.5107 572.491 30.4091 572.542 30.2521 572.588C30.0982 572.632 29.9197 572.67 29.7166 572.704C29.5166 572.735 29.3211 572.762 29.1303 572.787C28.9426 572.808 28.7902 572.827 28.6733 572.842C28.3902 572.879 28.1255 572.939 27.8793 573.022C27.6361 573.102 27.4392 573.224 27.2884 573.387C27.1406 573.547 27.0668 573.766 27.0668 574.043C27.0668 574.421 27.2068 574.707 27.4869 574.901C27.77 575.092 28.1286 575.188 28.5625 575.188ZM33.6349 576V568.909H34.6874V569.98H34.7613C34.8905 569.629 35.1244 569.345 35.463 569.126C35.8015 568.908 36.1832 568.798 36.6079 568.798C36.6879 568.798 36.7879 568.8 36.9079 568.803C37.028 568.806 37.1188 568.811 37.1803 568.817V569.925C37.1434 569.915 37.0587 569.902 36.9264 569.883C36.7971 569.862 36.6602 569.851 36.5155 569.851C36.1708 569.851 35.8631 569.923 35.5922 570.068C35.3245 570.209 35.1121 570.406 34.9552 570.659C34.8013 570.908 34.7243 571.193 34.7243 571.513V576H33.6349ZM41.1182 578.807C40.5919 578.807 40.1395 578.739 39.7609 578.604C39.3824 578.471 39.0669 578.296 38.8145 578.077C38.5653 577.862 38.3667 577.631 38.219 577.385L39.0869 576.776C39.1854 576.905 39.31 577.053 39.4608 577.219C39.6117 577.388 39.8179 577.534 40.0795 577.657C40.3441 577.783 40.6904 577.847 41.1182 577.847C41.6906 577.847 42.163 577.708 42.5354 577.431C42.9078 577.154 43.094 576.72 43.094 576.129V574.689H43.0017C42.9217 574.818 42.8078 574.978 42.6601 575.169C42.5154 575.357 42.3061 575.525 42.0322 575.672C41.7614 575.817 41.3952 575.889 40.9335 575.889C40.3611 575.889 39.8471 575.754 39.3916 575.483C38.9392 575.212 38.5806 574.818 38.316 574.301C38.0544 573.784 37.9236 573.156 37.9236 572.418C37.9236 571.691 38.0513 571.059 38.3067 570.52C38.5622 569.979 38.9176 569.56 39.3731 569.265C39.8286 568.966 40.3549 568.817 40.952 568.817C41.4136 568.817 41.7799 568.894 42.0507 569.048C42.3246 569.198 42.5339 569.371 42.6785 569.565C42.8263 569.755 42.9401 569.912 43.0202 570.036H43.1309V568.909H44.1835V576.203C44.1835 576.812 44.045 577.308 43.768 577.69C43.4941 578.074 43.1248 578.356 42.6601 578.534C42.1984 578.716 41.6845 578.807 41.1182 578.807ZM41.0812 574.911C41.5183 574.911 41.8876 574.81 42.1892 574.61C42.4908 574.41 42.7201 574.123 42.877 573.747C43.034 573.372 43.1125 572.922 43.1125 572.399C43.1125 571.888 43.0355 571.437 42.8817 571.047C42.7278 570.656 42.5 570.349 42.1984 570.128C41.8968 569.906 41.5244 569.795 41.0812 569.795C40.6196 569.795 40.2349 569.912 39.9271 570.146C39.6224 570.38 39.3931 570.694 39.2393 571.088C39.0885 571.482 39.0131 571.919 39.0131 572.399C39.0131 572.892 39.09 573.327 39.2439 573.706C39.4008 574.081 39.6317 574.377 39.9363 574.592C40.2441 574.804 40.6257 574.911 41.0812 574.911ZM49.1508 576.148C48.4676 576.148 47.8782 575.997 47.3827 575.695C46.8903 575.391 46.5102 574.966 46.2425 574.421C45.9778 573.873 45.8454 573.236 45.8454 572.51C45.8454 571.784 45.9778 571.143 46.2425 570.589C46.5102 570.032 46.8826 569.598 47.3596 569.288C47.8398 568.974 48.3999 568.817 49.04 568.817C49.4094 568.817 49.7741 568.878 50.1341 569.001C50.4942 569.125 50.822 569.325 51.1175 569.602C51.4129 569.875 51.6483 570.239 51.8238 570.691C51.9992 571.143 52.0869 571.701 52.0869 572.362V572.824H46.621V571.882H50.979C50.979 571.482 50.8989 571.125 50.7389 570.811C50.5819 570.497 50.3573 570.249 50.0649 570.068C49.7756 569.886 49.434 569.795 49.04 569.795C48.6061 569.795 48.2306 569.903 47.9136 570.119C47.5997 570.331 47.3581 570.608 47.1888 570.95C47.0196 571.291 46.9349 571.657 46.9349 572.048V572.676C46.9349 573.212 47.0273 573.666 47.2119 574.038C47.3997 574.407 47.6597 574.689 47.9921 574.883C48.3245 575.074 48.7107 575.169 49.1508 575.169C49.4371 575.169 49.6956 575.129 49.9264 575.049C50.1603 574.966 50.3619 574.843 50.5312 574.68C50.7004 574.513 50.8312 574.307 50.9236 574.061L51.9761 574.357C51.8653 574.714 51.6791 575.027 51.4175 575.298C51.1559 575.566 50.8328 575.775 50.4481 575.926C50.0634 576.074 49.6309 576.148 49.1508 576.148Z" fill="black"/>
<path d="M255.088 23.4545H255.881V27.7884C255.881 28.2358 255.775 28.6353 255.564 28.9869C255.355 29.3363 255.06 29.6122 254.679 29.8146C254.298 30.0149 253.85 30.1151 253.337 30.1151C252.823 30.1151 252.376 30.0149 251.994 29.8146C251.613 29.6122 251.317 29.3363 251.106 28.9869C250.897 28.6353 250.793 28.2358 250.793 27.7884V23.4545H251.585V27.7244C251.585 28.044 251.656 28.3285 251.796 28.5778C251.937 28.8249 252.137 29.0199 252.397 29.1626C252.659 29.3033 252.972 29.3736 253.337 29.3736C253.701 29.3736 254.014 29.3033 254.276 29.1626C254.538 29.0199 254.739 28.8249 254.877 28.5778C255.018 28.3285 255.088 28.044 255.088 27.7244V23.4545ZM258.116 23.4545V30H257.361V23.4545H258.116ZM261.632 25.0909V25.7301H259.088V25.0909H261.632ZM259.829 23.9148H260.584V28.5938C260.584 28.8068 260.615 28.9666 260.676 29.0732C260.74 29.1776 260.821 29.2479 260.919 29.2841C261.019 29.3182 261.125 29.3352 261.236 29.3352C261.319 29.3352 261.387 29.331 261.44 29.3224C261.493 29.3118 261.536 29.3033 261.568 29.2969L261.721 29.9744C261.67 29.9936 261.599 30.0128 261.507 30.032C261.416 30.0533 261.3 30.0639 261.159 30.0639C260.946 30.0639 260.737 30.0181 260.532 29.9265C260.33 29.8349 260.162 29.6953 260.028 29.5078C259.895 29.3203 259.829 29.0838 259.829 28.7983V23.9148ZM262.767 30V25.0909H263.495V25.8324H263.546C263.636 25.5895 263.798 25.3924 264.032 25.2411C264.267 25.0898 264.531 25.0142 264.825 25.0142C264.88 25.0142 264.949 25.0153 265.032 25.0174C265.116 25.0195 265.178 25.0227 265.221 25.027V25.794C265.195 25.7876 265.137 25.7781 265.045 25.7653C264.956 25.7504 264.861 25.7429 264.761 25.7429C264.522 25.7429 264.309 25.793 264.122 25.8931C263.936 25.9911 263.789 26.1275 263.681 26.3022C263.574 26.4748 263.521 26.6719 263.521 26.8935V30H262.767ZM267.56 30.1151C267.249 30.1151 266.966 30.0565 266.713 29.9393C266.459 29.82 266.258 29.6484 266.109 29.4247C265.96 29.1989 265.885 28.9261 265.885 28.6065C265.885 28.3253 265.94 28.0973 266.051 27.9226C266.162 27.7457 266.31 27.6072 266.495 27.5071C266.681 27.407 266.885 27.3324 267.109 27.2834C267.335 27.2322 267.562 27.1918 267.79 27.1619C268.088 27.1236 268.33 27.0948 268.515 27.0756C268.703 27.0543 268.839 27.0192 268.924 26.9702C269.012 26.9212 269.055 26.8359 269.055 26.7145V26.6889C269.055 26.3736 268.969 26.1286 268.797 25.9538C268.626 25.7791 268.367 25.6918 268.02 25.6918C267.66 25.6918 267.378 25.7706 267.173 25.9283C266.968 26.0859 266.825 26.2543 266.742 26.4332L266.026 26.1776C266.153 25.8793 266.324 25.647 266.537 25.4808C266.752 25.3125 266.987 25.1953 267.24 25.1293C267.496 25.0611 267.747 25.027 267.994 25.027C268.152 25.027 268.333 25.0462 268.538 25.0845C268.744 25.1207 268.944 25.1964 269.135 25.3114C269.329 25.4265 269.49 25.6001 269.618 25.8324C269.746 26.0646 269.81 26.3757 269.81 26.7656V30H269.055V29.3352H269.017C268.966 29.4418 268.881 29.5558 268.761 29.6772C268.642 29.7987 268.483 29.902 268.285 29.9872C268.087 30.0724 267.845 30.1151 267.56 30.1151ZM267.675 29.4375C267.973 29.4375 268.225 29.3789 268.429 29.2617C268.636 29.1445 268.791 28.9933 268.896 28.8079C269.002 28.6225 269.055 28.4276 269.055 28.223V27.5327C269.024 27.571 268.953 27.6062 268.845 27.6381C268.738 27.668 268.614 27.6946 268.474 27.718C268.335 27.7393 268.2 27.7585 268.068 27.7756C267.938 27.7905 267.832 27.8033 267.752 27.8139C267.555 27.8395 267.372 27.881 267.202 27.9386C267.033 27.994 266.897 28.0781 266.793 28.1911C266.69 28.3018 266.639 28.4531 266.639 28.6449C266.639 28.907 266.736 29.1051 266.93 29.2393C267.126 29.3714 267.374 29.4375 267.675 29.4375ZM271.941 23.4545V30H271.186V23.4545H271.941ZM273.322 30V25.0909H274.076V30H273.322ZM273.706 24.2727C273.559 24.2727 273.432 24.2227 273.325 24.1225C273.221 24.0224 273.169 23.902 273.169 23.7614C273.169 23.6207 273.221 23.5004 273.325 23.4002C273.432 23.3001 273.559 23.25 273.706 23.25C273.853 23.25 273.978 23.3001 274.083 23.4002C274.189 23.5004 274.243 23.6207 274.243 23.7614C274.243 23.902 274.189 24.0224 274.083 24.1225C273.978 24.2227 273.853 24.2727 273.706 24.2727ZM277.439 31.9432C277.075 31.9432 276.762 31.8963 276.5 31.8026C276.238 31.7109 276.019 31.5895 275.845 31.4382C275.672 31.2891 275.535 31.1293 275.432 30.9588L276.033 30.5369C276.101 30.6264 276.188 30.7287 276.292 30.8438C276.396 30.9609 276.539 31.0621 276.72 31.1474C276.904 31.2347 277.143 31.2784 277.439 31.2784C277.836 31.2784 278.163 31.1825 278.421 30.9908C278.678 30.799 278.807 30.4986 278.807 30.0895V29.0923H278.743C278.688 29.1818 278.609 29.2926 278.507 29.4247C278.407 29.5547 278.262 29.6708 278.072 29.7731C277.885 29.8732 277.631 29.9233 277.312 29.9233C276.915 29.9233 276.559 29.8295 276.244 29.642C275.931 29.4545 275.683 29.1818 275.499 28.8239C275.318 28.4659 275.228 28.0312 275.228 27.5199C275.228 27.017 275.316 26.5792 275.493 26.2063C275.67 25.8313 275.916 25.5415 276.231 25.337C276.547 25.1303 276.911 25.027 277.324 25.027C277.644 25.027 277.898 25.0803 278.085 25.1868C278.275 25.2912 278.42 25.4105 278.52 25.5447C278.622 25.6768 278.701 25.7855 278.756 25.8707H278.833V25.0909H279.562V30.1406C279.562 30.5625 279.466 30.9055 279.274 31.1697C279.084 31.4361 278.829 31.631 278.507 31.7546C278.187 31.8803 277.831 31.9432 277.439 31.9432ZM277.414 29.2457C277.716 29.2457 277.972 29.1765 278.181 29.038C278.39 28.8995 278.548 28.7003 278.657 28.4403C278.766 28.1804 278.82 27.8693 278.82 27.5071C278.82 27.1534 278.767 26.8413 278.66 26.5707C278.554 26.3001 278.396 26.0881 278.187 25.9347C277.979 25.7812 277.721 25.7045 277.414 25.7045C277.094 25.7045 276.828 25.7855 276.615 25.9474C276.404 26.1094 276.245 26.3267 276.139 26.5994C276.034 26.8722 275.982 27.1747 275.982 27.5071C275.982 27.848 276.035 28.1495 276.142 28.4116C276.251 28.6715 276.41 28.8761 276.621 29.0252C276.834 29.1722 277.099 29.2457 277.414 29.2457ZM281.697 27.0469V30H280.942V23.4545H281.697V25.858H281.76C281.876 25.6044 282.048 25.4031 282.278 25.2539C282.51 25.1026 282.819 25.027 283.205 25.027C283.54 25.027 283.833 25.0941 284.084 25.2283C284.335 25.3604 284.53 25.5639 284.669 25.8388C284.809 26.1115 284.88 26.4588 284.88 26.8807V30H284.126V26.9318C284.126 26.5419 284.024 26.2404 283.822 26.0273C283.622 25.8121 283.344 25.7045 282.988 25.7045C282.741 25.7045 282.519 25.7567 282.323 25.8612C282.129 25.9656 281.976 26.1179 281.863 26.3182C281.752 26.5185 281.697 26.7614 281.697 27.0469ZM288.395 25.0909V25.7301H285.851V25.0909H288.395ZM286.592 23.9148H287.346V28.5938C287.346 28.8068 287.377 28.9666 287.439 29.0732C287.503 29.1776 287.584 29.2479 287.682 29.2841C287.782 29.3182 287.888 29.3352 287.998 29.3352C288.081 29.3352 288.15 29.331 288.203 29.3224C288.256 29.3118 288.299 29.3033 288.331 29.2969L288.484 29.9744C288.433 29.9936 288.362 30.0128 288.27 30.032C288.178 30.0533 288.062 30.0639 287.922 30.0639C287.709 30.0639 287.5 30.0181 287.295 29.9265C287.093 29.8349 286.924 29.6953 286.79 29.5078C286.658 29.3203 286.592 29.0838 286.592 28.7983V23.9148Z" fill="black"/>
<path d="M450.793 30V23.4545H453.004C453.516 23.4545 453.935 23.5419 454.263 23.7166C454.592 23.8892 454.835 24.1268 454.992 24.4293C455.15 24.7319 455.229 25.076 455.229 25.4616C455.229 25.8473 455.15 26.1893 454.992 26.4876C454.835 26.7859 454.593 27.0202 454.267 27.1907C453.941 27.359 453.524 27.4432 453.017 27.4432H451.227V26.7273H452.991C453.341 26.7273 453.622 26.6761 453.835 26.5739C454.05 26.4716 454.206 26.3267 454.302 26.1392C454.4 25.9496 454.449 25.7237 454.449 25.4616C454.449 25.1996 454.4 24.9705 454.302 24.7745C454.204 24.5785 454.047 24.4272 453.832 24.3207C453.617 24.212 453.332 24.1577 452.979 24.1577H451.585V30H450.793ZM453.874 27.0597L455.484 30H454.564L452.979 27.0597H453.874ZM458.453 30.1023C457.98 30.1023 457.572 29.9979 457.229 29.7891C456.888 29.5781 456.625 29.2841 456.439 28.907C456.256 28.5277 456.164 28.0866 456.164 27.5838C456.164 27.081 456.256 26.6378 456.439 26.2543C456.625 25.8686 456.882 25.5682 457.213 25.353C457.545 25.1357 457.933 25.027 458.376 25.027C458.632 25.027 458.884 25.0696 459.133 25.1548C459.383 25.2401 459.61 25.3786 459.814 25.5703C460.019 25.7599 460.182 26.0114 460.303 26.3246C460.425 26.6378 460.485 27.0234 460.485 27.4815V27.8011H456.701V27.1491H459.718C459.718 26.8722 459.663 26.625 459.552 26.4077C459.443 26.1903 459.288 26.0188 459.085 25.8931C458.885 25.7674 458.649 25.7045 458.376 25.7045C458.076 25.7045 457.816 25.7791 457.596 25.9283C457.379 26.0753 457.212 26.267 457.094 26.5036C456.977 26.7401 456.919 26.9936 456.919 27.2642V27.6989C456.919 28.0696 456.983 28.3839 457.11 28.6417C457.24 28.8974 457.42 29.0923 457.65 29.2266C457.881 29.3587 458.148 29.4247 458.453 29.4247C458.651 29.4247 458.83 29.397 458.99 29.3416C459.152 29.2841 459.291 29.1989 459.408 29.0859C459.525 28.9709 459.616 28.8281 459.68 28.6577L460.409 28.8622C460.332 29.1094 460.203 29.3267 460.022 29.5142C459.841 29.6996 459.617 29.8445 459.351 29.9489C459.084 30.0511 458.785 30.1023 458.453 30.1023ZM463.614 31.9432C463.25 31.9432 462.937 31.8963 462.675 31.8026C462.413 31.7109 462.194 31.5895 462.019 31.4382C461.847 31.2891 461.709 31.1293 461.607 30.9588L462.208 30.5369C462.276 30.6264 462.362 30.7287 462.467 30.8438C462.571 30.9609 462.714 31.0621 462.895 31.1474C463.078 31.2347 463.318 31.2784 463.614 31.2784C464.011 31.2784 464.338 31.1825 464.595 30.9908C464.853 30.799 464.982 30.4986 464.982 30.0895V29.0923H464.918C464.863 29.1818 464.784 29.2926 464.682 29.4247C464.582 29.5547 464.437 29.6708 464.247 29.7731C464.06 29.8732 463.806 29.9233 463.486 29.9233C463.09 29.9233 462.734 29.8295 462.419 29.642C462.106 29.4545 461.858 29.1818 461.674 28.8239C461.493 28.4659 461.403 28.0312 461.403 27.5199C461.403 27.017 461.491 26.5792 461.668 26.2063C461.845 25.8313 462.091 25.5415 462.406 25.337C462.722 25.1303 463.086 25.027 463.499 25.027C463.819 25.027 464.072 25.0803 464.26 25.1868C464.449 25.2912 464.594 25.4105 464.695 25.5447C464.797 25.6768 464.876 25.7855 464.931 25.8707H465.008V25.0909H465.736V30.1406C465.736 30.5625 465.641 30.9055 465.449 31.1697C465.259 31.4361 465.003 31.631 464.682 31.7546C464.362 31.8803 464.006 31.9432 463.614 31.9432ZM463.589 29.2457C463.891 29.2457 464.147 29.1765 464.356 29.038C464.565 28.8995 464.723 28.7003 464.832 28.4403C464.941 28.1804 464.995 27.8693 464.995 27.5071C464.995 27.1534 464.942 26.8413 464.835 26.5707C464.729 26.3001 464.571 26.0881 464.362 25.9347C464.153 25.7812 463.896 25.7045 463.589 25.7045C463.269 25.7045 463.003 25.7855 462.79 25.9474C462.579 26.1094 462.42 26.3267 462.313 26.5994C462.209 26.8722 462.157 27.1747 462.157 27.5071C462.157 27.848 462.21 28.1495 462.317 28.4116C462.425 28.6715 462.585 28.8761 462.796 29.0252C463.009 29.1722 463.273 29.2457 463.589 29.2457ZM470.211 27.9929V25.0909H470.965V30H470.211V29.169H470.16C470.045 29.4183 469.866 29.6303 469.623 29.805C469.38 29.9776 469.073 30.0639 468.702 30.0639C468.396 30.0639 468.123 29.9968 467.884 29.8626C467.646 29.7262 467.458 29.5217 467.322 29.2489C467.185 28.9741 467.117 28.6278 467.117 28.2102V25.0909H467.871V28.1591C467.871 28.517 467.972 28.8026 468.172 29.0156C468.374 29.2287 468.632 29.3352 468.945 29.3352C469.133 29.3352 469.323 29.2873 469.517 29.1914C469.713 29.0955 469.877 28.9485 470.009 28.7504C470.144 28.5522 470.211 28.2997 470.211 27.9929ZM473.101 23.4545V30H472.347V23.4545H473.101ZM475.927 30.1151C475.616 30.1151 475.334 30.0565 475.08 29.9393C474.826 29.82 474.625 29.6484 474.476 29.4247C474.327 29.1989 474.252 28.9261 474.252 28.6065C474.252 28.3253 474.308 28.0973 474.418 27.9226C474.529 27.7457 474.677 27.6072 474.863 27.5071C475.048 27.407 475.253 27.3324 475.476 27.2834C475.702 27.2322 475.929 27.1918 476.157 27.1619C476.455 27.1236 476.697 27.0948 476.883 27.0756C477.07 27.0543 477.206 27.0192 477.292 26.9702C477.379 26.9212 477.423 26.8359 477.423 26.7145V26.6889C477.423 26.3736 477.336 26.1286 477.164 25.9538C476.993 25.7791 476.734 25.6918 476.387 25.6918C476.027 25.6918 475.745 25.7706 475.54 25.9283C475.336 26.0859 475.192 26.2543 475.109 26.4332L474.393 26.1776C474.521 25.8793 474.691 25.647 474.904 25.4808C475.119 25.3125 475.354 25.1953 475.607 25.1293C475.863 25.0611 476.114 25.027 476.362 25.027C476.519 25.027 476.7 25.0462 476.905 25.0845C477.112 25.1207 477.311 25.1964 477.503 25.3114C477.696 25.4265 477.857 25.6001 477.985 25.8324C478.113 26.0646 478.177 26.3757 478.177 26.7656V30H477.423V29.3352H477.384C477.333 29.4418 477.248 29.5558 477.129 29.6772C477.009 29.7987 476.851 29.902 476.652 29.9872C476.454 30.0724 476.212 30.1151 475.927 30.1151ZM476.042 29.4375C476.34 29.4375 476.592 29.3789 476.796 29.2617C477.003 29.1445 477.158 28.9933 477.263 28.8079C477.369 28.6225 477.423 28.4276 477.423 28.223V27.5327C477.391 27.571 477.32 27.6062 477.212 27.6381C477.105 27.668 476.982 27.6946 476.841 27.718C476.703 27.7393 476.567 27.7585 476.435 27.7756C476.305 27.7905 476.2 27.8033 476.119 27.8139C475.923 27.8395 475.739 27.881 475.569 27.9386C475.401 27.994 475.264 28.0781 475.16 28.1911C475.058 28.3018 475.006 28.4531 475.006 28.6449C475.006 28.907 475.103 29.1051 475.297 29.2393C475.493 29.3714 475.742 29.4375 476.042 29.4375ZM479.554 30V25.0909H480.282V25.8324H480.333C480.423 25.5895 480.585 25.3924 480.819 25.2411C481.054 25.0898 481.318 25.0142 481.612 25.0142C481.667 25.0142 481.737 25.0153 481.82 25.0174C481.903 25.0195 481.966 25.0227 482.008 25.027V25.794C481.983 25.7876 481.924 25.7781 481.832 25.7653C481.743 25.7504 481.648 25.7429 481.548 25.7429C481.309 25.7429 481.096 25.793 480.909 25.8931C480.723 25.9911 480.576 26.1275 480.468 26.3022C480.361 26.4748 480.308 26.6719 480.308 26.8935V30H479.554Z" fill="black"/>
<path d="M650.793 30V23.4545H653.081C653.537 23.4545 653.913 23.5334 654.209 23.6911C654.505 23.8466 654.726 24.0565 654.871 24.3207C655.016 24.5827 655.088 24.8736 655.088 25.1932C655.088 25.4744 655.038 25.7067 654.938 25.8899C654.84 26.0732 654.71 26.218 654.548 26.3246C654.388 26.4311 654.214 26.5099 654.027 26.5611V26.625C654.227 26.6378 654.429 26.7081 654.631 26.8359C654.833 26.9638 655.003 27.147 655.139 27.3857C655.276 27.6243 655.344 27.9162 655.344 28.2614C655.344 28.5895 655.269 28.8846 655.12 29.1467C654.971 29.4087 654.735 29.6165 654.414 29.7699C654.092 29.9233 653.673 30 653.158 30H650.793ZM651.585 29.2969H653.158C653.675 29.2969 654.043 29.1967 654.26 28.9964C654.48 28.794 654.589 28.549 654.589 28.2614C654.589 28.0398 654.533 27.8352 654.42 27.6477C654.307 27.4581 654.146 27.3068 653.938 27.1939C653.729 27.0788 653.482 27.0213 653.196 27.0213H651.585V29.2969ZM651.585 26.331H653.055C653.294 26.331 653.509 26.2841 653.701 26.1903C653.895 26.0966 654.048 25.9645 654.161 25.794C654.276 25.6236 654.334 25.4233 654.334 25.1932C654.334 24.9055 654.234 24.6616 654.033 24.4613C653.833 24.2589 653.516 24.1577 653.081 24.1577H651.585V26.331ZM657.298 23.4545V30H656.544V23.4545H657.298ZM660.124 30.1151C659.813 30.1151 659.531 30.0565 659.277 29.9393C659.024 29.82 658.822 29.6484 658.673 29.4247C658.524 29.1989 658.449 28.9261 658.449 28.6065C658.449 28.3253 658.505 28.0973 658.616 27.9226C658.726 27.7457 658.875 27.6072 659.06 27.5071C659.245 27.407 659.45 27.3324 659.674 27.2834C659.899 27.2322 660.126 27.1918 660.354 27.1619C660.653 27.1236 660.894 27.0948 661.08 27.0756C661.267 27.0543 661.404 27.0192 661.489 26.9702C661.576 26.9212 661.62 26.8359 661.62 26.7145V26.6889C661.62 26.3736 661.534 26.1286 661.361 25.9538C661.191 25.7791 660.932 25.6918 660.584 25.6918C660.224 25.6918 659.942 25.7706 659.737 25.9283C659.533 26.0859 659.389 26.2543 659.306 26.4332L658.59 26.1776C658.718 25.8793 658.888 25.647 659.101 25.4808C659.317 25.3125 659.551 25.1953 659.805 25.1293C660.06 25.0611 660.312 25.027 660.559 25.027C660.717 25.027 660.898 25.0462 661.102 25.0845C661.309 25.1207 661.508 25.1964 661.7 25.3114C661.894 25.4265 662.055 25.6001 662.182 25.8324C662.31 26.0646 662.374 26.3757 662.374 26.7656V30H661.62V29.3352H661.582C661.53 29.4418 661.445 29.5558 661.326 29.6772C661.207 29.7987 661.048 29.902 660.85 29.9872C660.652 30.0724 660.41 30.1151 660.124 30.1151ZM660.239 29.4375C660.538 29.4375 660.789 29.3789 660.994 29.2617C661.2 29.1445 661.356 28.9933 661.46 28.8079C661.567 28.6225 661.62 28.4276 661.62 28.223V27.5327C661.588 27.571 661.518 27.6062 661.409 27.6381C661.302 27.668 661.179 27.6946 661.038 27.718C660.9 27.7393 660.764 27.7585 660.632 27.7756C660.502 27.7905 660.397 27.8033 660.316 27.8139C660.12 27.8395 659.937 27.881 659.766 27.9386C659.598 27.994 659.462 28.0781 659.357 28.1911C659.255 28.3018 659.204 28.4531 659.204 28.6449C659.204 28.907 659.301 29.1051 659.495 29.2393C659.691 29.3714 659.939 29.4375 660.239 29.4375ZM665.745 30.1023C665.285 30.1023 664.889 29.9936 664.556 29.7763C664.224 29.5589 663.968 29.2596 663.789 28.8782C663.61 28.4968 663.521 28.0611 663.521 27.571C663.521 27.0724 663.612 26.6325 663.796 26.2511C663.981 25.8675 664.239 25.5682 664.569 25.353C664.901 25.1357 665.289 25.027 665.732 25.027C666.078 25.027 666.389 25.0909 666.666 25.2188C666.943 25.3466 667.17 25.5256 667.346 25.7557C667.523 25.9858 667.633 26.2543 667.676 26.5611H666.921C666.864 26.3374 666.736 26.1392 666.538 25.9666C666.342 25.7919 666.078 25.7045 665.745 25.7045C665.451 25.7045 665.193 25.7812 664.972 25.9347C664.752 26.0859 664.581 26.3001 664.457 26.5771C664.336 26.8519 664.275 27.1747 664.275 27.5455C664.275 27.9247 664.335 28.255 664.454 28.5362C664.575 28.8175 664.746 29.0359 664.965 29.1914C665.187 29.3469 665.447 29.4247 665.745 29.4247C665.941 29.4247 666.119 29.3906 666.279 29.3224C666.439 29.2543 666.574 29.1562 666.685 29.0284C666.796 28.9006 666.874 28.7472 666.921 28.5682H667.676C667.633 28.858 667.528 29.119 667.359 29.3512C667.193 29.5813 666.972 29.7646 666.698 29.9009C666.425 30.0352 666.107 30.1023 665.745 30.1023ZM669.481 28.2102L669.469 27.277H669.622L671.77 25.0909H672.703L670.415 27.4048H670.351L669.481 28.2102ZM668.778 30V23.4545H669.532V30H668.778ZM671.898 30L669.98 27.571L670.517 27.0469L672.856 30H671.898Z" fill="black"/>
<path d="M722.435 569.158V568.455H727.344V569.158H725.286V575H724.493V569.158H722.435ZM729.811 575.102C729.338 575.102 728.93 574.998 728.587 574.789C728.246 574.578 727.983 574.284 727.798 573.907C727.614 573.528 727.523 573.087 727.523 572.584C727.523 572.081 727.614 571.638 727.798 571.254C727.983 570.869 728.241 570.568 728.571 570.353C728.903 570.136 729.291 570.027 729.734 570.027C729.99 570.027 730.243 570.07 730.492 570.155C730.741 570.24 730.968 570.379 731.173 570.57C731.377 570.76 731.54 571.011 731.662 571.325C731.783 571.638 731.844 572.023 731.844 572.482V572.801H728.06V572.149H731.077C731.077 571.872 731.021 571.625 730.911 571.408C730.802 571.19 730.646 571.019 730.444 570.893C730.244 570.767 730.007 570.705 729.734 570.705C729.434 570.705 729.174 570.779 728.955 570.928C728.737 571.075 728.57 571.267 728.453 571.504C728.336 571.74 728.277 571.994 728.277 572.264V572.699C728.277 573.07 728.341 573.384 728.469 573.642C728.599 573.897 728.779 574.092 729.009 574.227C729.239 574.359 729.506 574.425 729.811 574.425C730.009 574.425 730.188 574.397 730.348 574.342C730.51 574.284 730.65 574.199 730.767 574.086C730.884 573.971 730.974 573.828 731.038 573.658L731.767 573.862C731.69 574.109 731.561 574.327 731.38 574.514C731.199 574.7 730.975 574.844 730.709 574.949C730.443 575.051 730.143 575.102 729.811 575.102ZM732.991 575V570.091H733.72V570.858H733.784C733.886 570.596 734.051 570.392 734.279 570.248C734.507 570.1 734.781 570.027 735.1 570.027C735.424 570.027 735.694 570.1 735.909 570.248C736.126 570.392 736.296 570.596 736.417 570.858H736.468C736.594 570.604 736.783 570.403 737.034 570.254C737.286 570.103 737.587 570.027 737.939 570.027C738.377 570.027 738.737 570.164 739.016 570.439C739.295 570.712 739.434 571.137 739.434 571.714V575H738.68V571.714C738.68 571.352 738.581 571.093 738.383 570.938C738.185 570.782 737.951 570.705 737.683 570.705C737.338 570.705 737.07 570.809 736.881 571.018C736.691 571.224 736.596 571.487 736.596 571.804V575H735.829V571.638C735.829 571.359 735.739 571.134 735.558 570.963C735.376 570.791 735.143 570.705 734.858 570.705C734.662 570.705 734.478 570.757 734.308 570.861C734.14 570.966 734.003 571.11 733.899 571.296C733.797 571.479 733.745 571.691 733.745 571.932V575H732.991ZM740.813 576.841V570.091H741.542V570.871H741.632C741.687 570.786 741.764 570.677 741.862 570.545C741.962 570.411 742.105 570.291 742.29 570.187C742.477 570.08 742.731 570.027 743.051 570.027C743.464 570.027 743.828 570.13 744.144 570.337C744.459 570.544 744.705 570.837 744.882 571.216C745.059 571.595 745.147 572.043 745.147 572.558C745.147 573.078 745.059 573.529 744.882 573.91C744.705 574.289 744.46 574.583 744.147 574.792C743.834 574.999 743.472 575.102 743.063 575.102C742.748 575.102 742.496 575.05 742.306 574.946C742.116 574.839 741.97 574.719 741.868 574.585C741.766 574.448 741.687 574.335 741.632 574.246H741.568V576.841H740.813ZM741.555 572.545C741.555 572.916 741.609 573.243 741.718 573.527C741.827 573.808 741.985 574.028 742.194 574.188C742.403 574.346 742.659 574.425 742.961 574.425C743.276 574.425 743.54 574.342 743.751 574.175C743.964 574.007 744.123 573.781 744.23 573.498C744.339 573.212 744.393 572.895 744.393 572.545C744.393 572.2 744.34 571.889 744.233 571.612C744.129 571.333 743.97 571.113 743.757 570.951C743.546 570.787 743.281 570.705 742.961 570.705C742.654 570.705 742.396 570.782 742.188 570.938C741.979 571.091 741.821 571.306 741.715 571.583C741.608 571.858 741.555 572.179 741.555 572.545ZM747.052 568.455V575H746.298V568.455H747.052ZM749.878 575.115C749.567 575.115 749.285 575.056 749.031 574.939C748.778 574.82 748.576 574.648 748.427 574.425C748.278 574.199 748.203 573.926 748.203 573.607C748.203 573.325 748.259 573.097 748.37 572.923C748.48 572.746 748.628 572.607 748.814 572.507C748.999 572.407 749.204 572.332 749.427 572.283C749.653 572.232 749.88 572.192 750.108 572.162C750.407 572.124 750.648 572.095 750.834 572.076C751.021 572.054 751.158 572.019 751.243 571.97C751.33 571.921 751.374 571.836 751.374 571.714V571.689C751.374 571.374 751.288 571.129 751.115 570.954C750.945 570.779 750.686 570.692 750.338 570.692C749.978 570.692 749.696 570.771 749.491 570.928C749.287 571.086 749.143 571.254 749.06 571.433L748.344 571.178C748.472 570.879 748.642 570.647 748.855 570.481C749.071 570.312 749.305 570.195 749.559 570.129C749.814 570.061 750.066 570.027 750.313 570.027C750.47 570.027 750.652 570.046 750.856 570.085C751.063 570.121 751.262 570.196 751.454 570.311C751.648 570.426 751.809 570.6 751.936 570.832C752.064 571.065 752.128 571.376 752.128 571.766V575H751.374V574.335H751.335C751.284 574.442 751.199 574.556 751.08 574.677C750.96 574.799 750.802 574.902 750.604 574.987C750.405 575.072 750.164 575.115 749.878 575.115ZM749.993 574.438C750.291 574.438 750.543 574.379 750.747 574.262C750.954 574.145 751.11 573.993 751.214 573.808C751.321 573.623 751.374 573.428 751.374 573.223V572.533C751.342 572.571 751.272 572.606 751.163 572.638C751.056 572.668 750.933 572.695 750.792 572.718C750.654 572.739 750.518 572.759 750.386 572.776C750.256 572.79 750.151 572.803 750.07 572.814C749.874 572.839 749.691 572.881 749.52 572.939C749.352 572.994 749.215 573.078 749.111 573.191C749.009 573.302 748.958 573.453 748.958 573.645C748.958 573.907 749.055 574.105 749.248 574.239C749.445 574.371 749.693 574.438 749.993 574.438ZM755.64 570.091V570.73H753.096V570.091H755.64ZM753.837 568.915H754.591V573.594C754.591 573.807 754.622 573.967 754.684 574.073C754.748 574.178 754.829 574.248 754.927 574.284C755.027 574.318 755.133 574.335 755.243 574.335C755.327 574.335 755.395 574.331 755.448 574.322C755.501 574.312 755.544 574.303 755.576 574.297L755.729 574.974C755.678 574.994 755.607 575.013 755.515 575.032C755.423 575.053 755.307 575.064 755.167 575.064C754.954 575.064 754.745 575.018 754.54 574.926C754.338 574.835 754.17 574.695 754.035 574.508C753.903 574.32 753.837 574.084 753.837 573.798V568.915ZM758.78 575.102C758.307 575.102 757.899 574.998 757.556 574.789C757.215 574.578 756.952 574.284 756.766 573.907C756.583 573.528 756.491 573.087 756.491 572.584C756.491 572.081 756.583 571.638 756.766 571.254C756.952 570.869 757.21 570.568 757.54 570.353C757.872 570.136 758.26 570.027 758.703 570.027C758.959 570.027 759.211 570.07 759.461 570.155C759.71 570.24 759.937 570.379 760.141 570.57C760.346 570.76 760.509 571.011 760.63 571.325C760.752 571.638 760.812 572.023 760.812 572.482V572.801H757.028V572.149H760.045C760.045 571.872 759.99 571.625 759.879 571.408C759.771 571.19 759.615 571.019 759.413 570.893C759.212 570.767 758.976 570.705 758.703 570.705C758.403 570.705 758.143 570.779 757.923 570.928C757.706 571.075 757.539 571.267 757.422 571.504C757.304 571.74 757.246 571.994 757.246 572.264V572.699C757.246 573.07 757.31 573.384 757.438 573.642C757.567 573.897 757.748 574.092 757.978 574.227C758.208 574.359 758.475 574.425 758.78 574.425C758.978 574.425 759.157 574.397 759.317 574.342C759.479 574.284 759.618 574.199 759.735 574.086C759.853 573.971 759.943 573.828 760.007 573.658L760.736 573.862C760.659 574.109 760.53 574.327 760.349 574.514C760.168 574.7 759.944 574.844 759.678 574.949C759.412 575.051 759.112 575.102 758.78 575.102ZM768.505 570.091L766.69 575H765.923L764.108 570.091H764.926L766.281 574.003H766.332L767.687 570.091H768.505ZM769.743 575.051C769.585 575.051 769.45 574.995 769.337 574.882C769.224 574.769 769.168 574.634 769.168 574.476C769.168 574.318 769.224 574.183 769.337 574.07C769.45 573.957 769.585 573.901 769.743 573.901C769.901 573.901 770.036 573.957 770.149 574.07C770.262 574.183 770.318 574.318 770.318 574.476C770.318 574.58 770.292 574.676 770.238 574.763C770.187 574.851 770.118 574.921 770.031 574.974C769.945 575.026 769.85 575.051 769.743 575.051ZM773.625 575.089C773.203 575.089 772.827 575.017 772.496 574.872C772.168 574.727 771.907 574.526 771.713 574.268C771.522 574.008 771.417 573.707 771.4 573.364H772.206C772.223 573.575 772.295 573.757 772.423 573.91C772.551 574.061 772.718 574.179 772.925 574.262C773.131 574.345 773.36 574.386 773.612 574.386C773.893 574.386 774.142 574.337 774.36 574.239C774.577 574.141 774.747 574.005 774.871 573.83C774.995 573.656 775.056 573.453 775.056 573.223C775.056 572.982 774.997 572.77 774.877 572.587C774.758 572.402 774.583 572.257 774.353 572.152C774.123 572.048 773.842 571.996 773.509 571.996H772.985V571.293H773.509C773.769 571.293 773.997 571.246 774.193 571.152C774.392 571.058 774.546 570.926 774.657 570.756C774.77 570.585 774.826 570.385 774.826 570.155C774.826 569.933 774.777 569.74 774.679 569.576C774.581 569.412 774.443 569.284 774.264 569.193C774.087 569.101 773.878 569.055 773.637 569.055C773.411 569.055 773.198 569.097 772.998 569.18C772.8 569.261 772.638 569.379 772.512 569.535C772.387 569.688 772.318 569.874 772.308 570.091H771.541C771.554 569.748 771.657 569.447 771.851 569.19C772.045 568.93 772.298 568.727 772.611 568.582C772.927 568.437 773.273 568.365 773.65 568.365C774.055 568.365 774.402 568.447 774.692 568.611C774.982 568.773 775.204 568.987 775.36 569.254C775.516 569.52 775.593 569.808 775.593 570.116C775.593 570.485 775.496 570.799 775.302 571.059C775.111 571.319 774.85 571.499 774.519 571.599V571.651C774.933 571.719 775.256 571.895 775.488 572.178C775.72 572.459 775.836 572.808 775.836 573.223C775.836 573.579 775.739 573.898 775.545 574.182C775.354 574.463 775.092 574.685 774.759 574.847C774.427 575.009 774.049 575.089 773.625 575.089ZM777.504 575.051C777.346 575.051 777.211 574.995 777.098 574.882C776.985 574.769 776.928 574.634 776.928 574.476C776.928 574.318 776.985 574.183 777.098 574.07C777.211 573.957 777.346 573.901 777.504 573.901C777.661 573.901 777.797 573.957 777.91 574.07C778.023 574.183 778.079 574.318 778.079 574.476C778.079 574.58 778.052 574.676 777.999 574.763C777.948 574.851 777.879 574.921 777.791 574.974C777.706 575.026 777.61 575.051 777.504 575.051ZM781.326 575.089C780.845 575.089 780.434 574.958 780.096 574.696C779.757 574.432 779.498 574.05 779.319 573.549C779.14 573.046 779.051 572.439 779.051 571.727C779.051 571.02 779.14 570.416 779.319 569.915C779.5 569.412 779.76 569.029 780.099 568.765C780.44 568.498 780.849 568.365 781.326 568.365C781.803 568.365 782.211 568.498 782.55 568.765C782.891 569.029 783.151 569.412 783.33 569.915C783.511 570.416 783.602 571.02 783.602 571.727C783.602 572.439 783.512 573.046 783.333 573.549C783.154 574.05 782.895 574.432 782.557 574.696C782.218 574.958 781.808 575.089 781.326 575.089ZM781.326 574.386C781.803 574.386 782.174 574.156 782.438 573.696C782.703 573.236 782.835 572.58 782.835 571.727C782.835 571.161 782.774 570.678 782.653 570.279C782.533 569.881 782.361 569.577 782.135 569.369C781.911 569.16 781.642 569.055 781.326 569.055C780.853 569.055 780.483 569.289 780.217 569.755C779.951 570.22 779.818 570.877 779.818 571.727C779.818 572.294 779.877 572.776 779.997 573.172C780.116 573.568 780.287 573.87 780.511 574.076C780.737 574.283 781.009 574.386 781.326 574.386Z" fill="#505050"/>
<path d="M647.445 587.047V590H646.69V583.455H647.445V585.858H647.509C647.624 585.604 647.796 585.403 648.026 585.254C648.259 585.103 648.567 585.027 648.953 585.027C649.288 585.027 649.581 585.094 649.832 585.228C650.083 585.36 650.278 585.564 650.417 585.839C650.558 586.112 650.628 586.459 650.628 586.881V590H649.874V586.932C649.874 586.542 649.772 586.24 649.57 586.027C649.37 585.812 649.092 585.705 648.736 585.705C648.489 585.705 648.267 585.757 648.071 585.861C647.877 585.966 647.724 586.118 647.611 586.318C647.5 586.518 647.445 586.761 647.445 587.047ZM654.143 585.091V585.73H651.599V585.091H654.143ZM652.34 583.915H653.094V588.594C653.094 588.807 653.125 588.967 653.187 589.073C653.251 589.178 653.332 589.248 653.43 589.284C653.53 589.318 653.636 589.335 653.746 589.335C653.829 589.335 653.898 589.331 653.951 589.322C654.004 589.312 654.047 589.303 654.079 589.297L654.232 589.974C654.181 589.994 654.11 590.013 654.018 590.032C653.926 590.053 653.81 590.064 653.67 590.064C653.457 590.064 653.248 590.018 653.043 589.926C652.841 589.835 652.672 589.695 652.538 589.508C652.406 589.32 652.34 589.084 652.34 588.798V583.915ZM657.412 585.091V585.73H654.868V585.091H657.412ZM655.61 583.915H656.364V588.594C656.364 588.807 656.395 588.967 656.457 589.073C656.521 589.178 656.601 589.248 656.699 589.284C656.8 589.318 656.905 589.335 657.016 589.335C657.099 589.335 657.167 589.331 657.22 589.322C657.274 589.312 657.316 589.303 657.348 589.297L657.502 589.974C657.451 589.994 657.379 590.013 657.288 590.032C657.196 590.053 657.08 590.064 656.939 590.064C656.726 590.064 656.517 590.018 656.313 589.926C656.11 589.835 655.942 589.695 655.808 589.508C655.676 589.32 655.61 589.084 655.61 588.798V583.915ZM658.547 591.841V585.091H659.275V585.871H659.365C659.42 585.786 659.497 585.677 659.595 585.545C659.695 585.411 659.838 585.291 660.023 585.187C660.211 585.08 660.464 585.027 660.784 585.027C661.197 585.027 661.562 585.13 661.877 585.337C662.192 585.544 662.438 585.837 662.615 586.216C662.792 586.595 662.881 587.043 662.881 587.558C662.881 588.078 662.792 588.529 662.615 588.91C662.438 589.289 662.193 589.583 661.88 589.792C661.567 589.999 661.206 590.102 660.797 590.102C660.481 590.102 660.229 590.05 660.039 589.946C659.85 589.839 659.704 589.719 659.601 589.585C659.499 589.448 659.42 589.335 659.365 589.246H659.301V591.841H658.547ZM659.288 587.545C659.288 587.916 659.343 588.243 659.451 588.527C659.56 588.808 659.719 589.028 659.927 589.188C660.136 589.346 660.392 589.425 660.695 589.425C661.01 589.425 661.273 589.342 661.484 589.175C661.697 589.007 661.857 588.781 661.963 588.498C662.072 588.212 662.126 587.895 662.126 587.545C662.126 587.2 662.073 586.889 661.967 586.612C661.862 586.333 661.703 586.113 661.49 585.951C661.279 585.787 661.014 585.705 660.695 585.705C660.388 585.705 660.13 585.782 659.921 585.938C659.712 586.091 659.555 586.306 659.448 586.583C659.342 586.858 659.288 587.179 659.288 587.545ZM667.508 586.19L666.831 586.382C666.788 586.269 666.725 586.159 666.642 586.053C666.561 585.944 666.451 585.855 666.31 585.784C666.169 585.714 665.989 585.679 665.77 585.679C665.469 585.679 665.219 585.748 665.019 585.887C664.821 586.023 664.722 586.197 664.722 586.408C664.722 586.595 664.79 586.743 664.926 586.852C665.062 586.961 665.275 587.051 665.565 587.124L666.294 587.303C666.733 587.409 667.06 587.572 667.275 587.792C667.49 588.009 667.598 588.289 667.598 588.632C667.598 588.913 667.517 589.165 667.355 589.386C667.195 589.608 666.972 589.783 666.684 589.911C666.396 590.038 666.062 590.102 665.68 590.102C665.18 590.102 664.765 589.994 664.437 589.776C664.109 589.559 663.901 589.241 663.814 588.824L664.53 588.645C664.598 588.909 664.727 589.107 664.916 589.239C665.108 589.371 665.359 589.438 665.668 589.438C666.019 589.438 666.298 589.363 666.505 589.214C666.714 589.062 666.818 588.881 666.818 588.67C666.818 588.5 666.758 588.357 666.639 588.242C666.52 588.125 666.337 588.038 666.089 587.98L665.271 587.788C664.822 587.682 664.491 587.517 664.28 587.293C664.072 587.067 663.967 586.785 663.967 586.446C663.967 586.169 664.045 585.924 664.201 585.711C664.358 585.498 664.572 585.331 664.843 585.209C665.116 585.088 665.425 585.027 665.77 585.027C666.256 585.027 666.637 585.134 666.914 585.347C667.193 585.56 667.391 585.841 667.508 586.19ZM669.283 590.051C669.125 590.051 668.99 589.995 668.877 589.882C668.764 589.769 668.708 589.634 668.708 589.476C668.708 589.318 668.764 589.183 668.877 589.07C668.99 588.957 669.125 588.901 669.283 588.901C669.441 588.901 669.576 588.957 669.689 589.07C669.802 589.183 669.858 589.318 669.858 589.476C669.858 589.58 669.832 589.676 669.778 589.763C669.727 589.851 669.658 589.921 669.571 589.974C669.485 590.026 669.39 590.051 669.283 590.051ZM669.283 586.408C669.125 586.408 668.99 586.351 668.877 586.238C668.764 586.125 668.708 585.99 668.708 585.832C668.708 585.675 668.764 585.539 668.877 585.426C668.99 585.314 669.125 585.257 669.283 585.257C669.441 585.257 669.576 585.314 669.689 585.426C669.802 585.539 669.858 585.675 669.858 585.832C669.858 585.937 669.832 586.033 669.778 586.12C669.727 586.207 669.658 586.278 669.571 586.331C669.485 586.382 669.39 586.408 669.283 586.408ZM673.526 583.148L671.416 590.984H670.726L672.835 583.148H673.526ZM676.734 583.148L674.624 590.984H673.934L676.043 583.148H676.734ZM678.74 590L677.244 585.091H678.037L679.098 588.849H679.149L680.197 585.091H681.003L682.038 588.837H682.089L683.151 585.091H683.943L682.447 590H681.706L680.632 586.229H680.555L679.482 590H678.74ZM686.385 590.115C686.074 590.115 685.792 590.056 685.538 589.939C685.284 589.82 685.083 589.648 684.934 589.425C684.785 589.199 684.71 588.926 684.71 588.607C684.71 588.325 684.766 588.097 684.876 587.923C684.987 587.746 685.135 587.607 685.321 587.507C685.506 587.407 685.711 587.332 685.934 587.283C686.16 587.232 686.387 587.192 686.615 587.162C686.913 587.124 687.155 587.095 687.341 587.076C687.528 587.054 687.664 587.019 687.75 586.97C687.837 586.921 687.881 586.836 687.881 586.714V586.689C687.881 586.374 687.794 586.129 687.622 585.954C687.451 585.779 687.192 585.692 686.845 585.692C686.485 585.692 686.203 585.771 685.998 585.928C685.794 586.086 685.65 586.254 685.567 586.433L684.851 586.178C684.979 585.879 685.149 585.647 685.362 585.481C685.577 585.312 685.812 585.195 686.065 585.129C686.321 585.061 686.572 585.027 686.82 585.027C686.977 585.027 687.158 585.046 687.363 585.085C687.57 585.121 687.769 585.196 687.961 585.311C688.154 585.426 688.315 585.6 688.443 585.832C688.571 586.065 688.635 586.376 688.635 586.766V590H687.881V589.335H687.842C687.791 589.442 687.706 589.556 687.587 589.677C687.467 589.799 687.309 589.902 687.11 589.987C686.912 590.072 686.67 590.115 686.385 590.115ZM686.5 589.438C686.798 589.438 687.05 589.379 687.254 589.262C687.461 589.145 687.616 588.993 687.721 588.808C687.827 588.623 687.881 588.428 687.881 588.223V587.533C687.849 587.571 687.778 587.606 687.67 587.638C687.563 587.668 687.44 587.695 687.299 587.718C687.161 587.739 687.025 587.759 686.893 587.776C686.763 587.79 686.658 587.803 686.577 587.814C686.381 587.839 686.197 587.881 686.027 587.939C685.859 587.994 685.722 588.078 685.618 588.191C685.516 588.302 685.464 588.453 685.464 588.645C685.464 588.907 685.561 589.105 685.755 589.239C685.951 589.371 686.2 589.438 686.5 589.438ZM690.766 587.047V590H690.012V585.091H690.74V585.858H690.804C690.919 585.609 691.094 585.408 691.328 585.257C691.563 585.104 691.865 585.027 692.236 585.027C692.568 585.027 692.859 585.095 693.109 585.232C693.358 585.366 693.552 585.57 693.69 585.845C693.829 586.118 693.898 586.463 693.898 586.881V590H693.144V586.932C693.144 586.546 693.044 586.246 692.843 586.031C692.643 585.813 692.368 585.705 692.019 585.705C691.778 585.705 691.563 585.757 691.373 585.861C691.186 585.966 691.038 586.118 690.929 586.318C690.82 586.518 690.766 586.761 690.766 587.047ZM697.258 591.943C696.893 591.943 696.58 591.896 696.318 591.803C696.056 591.711 695.838 591.589 695.663 591.438C695.49 591.289 695.353 591.129 695.251 590.959L695.852 590.537C695.92 590.626 696.006 590.729 696.11 590.844C696.215 590.961 696.358 591.062 696.539 591.147C696.722 591.235 696.962 591.278 697.258 591.278C697.654 591.278 697.981 591.183 698.239 590.991C698.497 590.799 698.626 590.499 698.626 590.089V589.092H698.562C698.506 589.182 698.428 589.293 698.325 589.425C698.225 589.555 698.08 589.671 697.891 589.773C697.703 589.873 697.45 589.923 697.13 589.923C696.734 589.923 696.378 589.83 696.062 589.642C695.749 589.455 695.501 589.182 695.318 588.824C695.137 588.466 695.046 588.031 695.046 587.52C695.046 587.017 695.135 586.579 695.311 586.206C695.488 585.831 695.734 585.542 696.05 585.337C696.365 585.13 696.729 585.027 697.143 585.027C697.462 585.027 697.716 585.08 697.903 585.187C698.093 585.291 698.238 585.411 698.338 585.545C698.44 585.677 698.519 585.786 698.575 585.871H698.651V585.091H699.38V590.141C699.38 590.562 699.284 590.906 699.092 591.17C698.903 591.436 698.647 591.631 698.325 591.755C698.006 591.88 697.65 591.943 697.258 591.943ZM697.232 589.246C697.535 589.246 697.79 589.176 697.999 589.038C698.208 588.9 698.367 588.7 698.475 588.44C698.584 588.18 698.638 587.869 698.638 587.507C698.638 587.153 698.585 586.841 698.479 586.571C698.372 586.3 698.214 586.088 698.006 585.935C697.797 585.781 697.539 585.705 697.232 585.705C696.913 585.705 696.646 585.786 696.433 585.947C696.222 586.109 696.064 586.327 695.957 586.599C695.853 586.872 695.8 587.175 695.8 587.507C695.8 587.848 695.854 588.15 695.96 588.412C696.069 588.672 696.229 588.876 696.44 589.025C696.653 589.172 696.917 589.246 697.232 589.246ZM702.755 590.102C702.295 590.102 701.898 589.994 701.566 589.776C701.234 589.559 700.978 589.26 700.799 588.878C700.62 588.497 700.531 588.061 700.531 587.571C700.531 587.072 700.622 586.632 700.805 586.251C700.991 585.868 701.249 585.568 701.579 585.353C701.911 585.136 702.299 585.027 702.742 585.027C703.087 585.027 703.398 585.091 703.675 585.219C703.952 585.347 704.179 585.526 704.356 585.756C704.533 585.986 704.643 586.254 704.685 586.561H703.931C703.874 586.337 703.746 586.139 703.548 585.967C703.352 585.792 703.087 585.705 702.755 585.705C702.461 585.705 702.203 585.781 701.982 585.935C701.762 586.086 701.591 586.3 701.467 586.577C701.346 586.852 701.285 587.175 701.285 587.545C701.285 587.925 701.344 588.255 701.464 588.536C701.585 588.817 701.756 589.036 701.975 589.191C702.197 589.347 702.457 589.425 702.755 589.425C702.951 589.425 703.129 589.391 703.289 589.322C703.449 589.254 703.584 589.156 703.695 589.028C703.805 588.901 703.884 588.747 703.931 588.568H704.685C704.643 588.858 704.537 589.119 704.369 589.351C704.203 589.581 703.982 589.765 703.707 589.901C703.435 590.035 703.117 590.102 702.755 590.102ZM706.542 587.047V590H705.788V583.455H706.542V585.858H706.606C706.721 585.604 706.894 585.403 707.124 585.254C707.356 585.103 707.665 585.027 708.051 585.027C708.385 585.027 708.678 585.094 708.93 585.228C709.181 585.36 709.376 585.564 709.515 585.839C709.655 586.112 709.725 586.459 709.725 586.881V590H708.971V586.932C708.971 586.542 708.87 586.24 708.668 586.027C708.467 585.812 708.189 585.705 707.833 585.705C707.586 585.705 707.365 585.757 707.169 585.861C706.975 585.966 706.821 586.118 706.708 586.318C706.598 586.518 706.542 586.761 706.542 587.047ZM714.199 587.993V585.091H714.953V590H714.199V589.169H714.148C714.033 589.418 713.854 589.63 713.611 589.805C713.368 589.978 713.061 590.064 712.691 590.064C712.384 590.064 712.111 589.997 711.872 589.863C711.634 589.726 711.446 589.522 711.31 589.249C711.174 588.974 711.105 588.628 711.105 588.21V585.091H711.86V588.159C711.86 588.517 711.96 588.803 712.16 589.016C712.362 589.229 712.62 589.335 712.934 589.335C713.121 589.335 713.312 589.287 713.506 589.191C713.702 589.096 713.866 588.949 713.998 588.75C714.132 588.552 714.199 588.3 714.199 587.993ZM716.335 585.091H717.089V590.358C717.089 590.661 717.037 590.923 716.933 591.144C716.83 591.366 716.675 591.537 716.466 591.659C716.259 591.78 715.998 591.841 715.683 591.841C715.657 591.841 715.632 591.841 715.606 591.841C715.581 591.841 715.555 591.841 715.529 591.841V591.138C715.555 591.138 715.578 591.138 715.6 591.138C715.621 591.138 715.645 591.138 715.67 591.138C715.9 591.138 716.069 591.07 716.175 590.933C716.282 590.799 716.335 590.607 716.335 590.358V585.091ZM716.706 584.273C716.559 584.273 716.432 584.223 716.325 584.123C716.221 584.022 716.169 583.902 716.169 583.761C716.169 583.621 716.221 583.5 716.325 583.4C716.432 583.3 716.559 583.25 716.706 583.25C716.853 583.25 716.978 583.3 717.083 583.4C717.189 583.5 717.243 583.621 717.243 583.761C717.243 583.902 717.189 584.022 717.083 584.123C716.978 584.223 716.853 584.273 716.706 584.273ZM718.471 590V585.091H719.225V590H718.471ZM718.854 584.273C718.707 584.273 718.58 584.223 718.474 584.123C718.369 584.022 718.317 583.902 718.317 583.761C718.317 583.621 718.369 583.5 718.474 583.4C718.58 583.3 718.707 583.25 718.854 583.25C719.001 583.25 719.127 583.3 719.231 583.4C719.338 583.5 719.391 583.621 719.391 583.761C719.391 583.902 719.338 584.022 719.231 584.123C719.127 584.223 719.001 584.273 718.854 584.273ZM722.051 590.115C721.74 590.115 721.458 590.056 721.204 589.939C720.95 589.82 720.749 589.648 720.6 589.425C720.451 589.199 720.376 588.926 720.376 588.607C720.376 588.325 720.432 588.097 720.542 587.923C720.653 587.746 720.801 587.607 720.987 587.507C721.172 587.407 721.377 587.332 721.6 587.283C721.826 587.232 722.053 587.192 722.281 587.162C722.579 587.124 722.821 587.095 723.007 587.076C723.194 587.054 723.33 587.019 723.416 586.97C723.503 586.921 723.547 586.836 723.547 586.714V586.689C723.547 586.374 723.46 586.129 723.288 585.954C723.117 585.779 722.858 585.692 722.511 585.692C722.151 585.692 721.869 585.771 721.664 585.928C721.46 586.086 721.316 586.254 721.233 586.433L720.517 586.178C720.645 585.879 720.815 585.647 721.028 585.481C721.243 585.312 721.478 585.195 721.731 585.129C721.987 585.061 722.238 585.027 722.486 585.027C722.643 585.027 722.824 585.046 723.029 585.085C723.236 585.121 723.435 585.196 723.627 585.311C723.82 585.426 723.981 585.6 724.109 585.832C724.237 586.065 724.301 586.376 724.301 586.766V590H723.547V589.335H723.508C723.457 589.442 723.372 589.556 723.253 589.677C723.133 589.799 722.975 589.902 722.776 589.987C722.578 590.072 722.336 590.115 722.051 590.115ZM722.166 589.438C722.464 589.438 722.716 589.379 722.92 589.262C723.127 589.145 723.282 588.993 723.387 588.808C723.493 588.623 723.547 588.428 723.547 588.223V587.533C723.515 587.571 723.444 587.606 723.336 587.638C723.229 587.668 723.106 587.695 722.965 587.718C722.827 587.739 722.691 587.759 722.559 587.776C722.429 587.79 722.324 587.803 722.243 587.814C722.047 587.839 721.863 587.881 721.693 587.939C721.525 587.994 721.388 588.078 721.284 588.191C721.182 588.302 721.131 588.453 721.131 588.645C721.131 588.907 721.227 589.105 721.421 589.239C721.617 589.371 721.866 589.438 722.166 589.438ZM726.432 587.047V590H725.678V585.091H726.406V585.858H726.47C726.585 585.609 726.76 585.408 726.994 585.257C727.229 585.104 727.531 585.027 727.902 585.027C728.234 585.027 728.525 585.095 728.775 585.232C729.024 585.366 729.218 585.57 729.356 585.845C729.495 586.118 729.564 586.463 729.564 586.881V590H728.81V586.932C728.81 586.546 728.71 586.246 728.509 586.031C728.309 585.813 728.034 585.705 727.685 585.705C727.444 585.705 727.229 585.757 727.039 585.861C726.852 585.966 726.704 586.118 726.595 586.318C726.486 586.518 726.432 586.761 726.432 587.047ZM732.924 591.943C732.559 591.943 732.246 591.896 731.984 591.803C731.722 591.711 731.504 591.589 731.329 591.438C731.156 591.289 731.019 591.129 730.917 590.959L731.518 590.537C731.586 590.626 731.672 590.729 731.776 590.844C731.881 590.961 732.024 591.062 732.205 591.147C732.388 591.235 732.628 591.278 732.924 591.278C733.32 591.278 733.647 591.183 733.905 590.991C734.163 590.799 734.292 590.499 734.292 590.089V589.092H734.228C734.172 589.182 734.094 589.293 733.991 589.425C733.891 589.555 733.746 589.671 733.557 589.773C733.369 589.873 733.116 589.923 732.796 589.923C732.4 589.923 732.044 589.83 731.729 589.642C731.415 589.455 731.167 589.182 730.984 588.824C730.803 588.466 730.712 588.031 730.712 587.52C730.712 587.017 730.801 586.579 730.977 586.206C731.154 585.831 731.4 585.542 731.716 585.337C732.031 585.13 732.395 585.027 732.809 585.027C733.128 585.027 733.382 585.08 733.569 585.187C733.759 585.291 733.904 585.411 734.004 585.545C734.106 585.677 734.185 585.786 734.241 585.871H734.317V585.091H735.046V590.141C735.046 590.562 734.95 590.906 734.758 591.17C734.569 591.436 734.313 591.631 733.991 591.755C733.672 591.88 733.316 591.943 732.924 591.943ZM732.898 589.246C733.201 589.246 733.456 589.176 733.665 589.038C733.874 588.9 734.033 588.7 734.142 588.44C734.25 588.18 734.305 587.869 734.305 587.507C734.305 587.153 734.251 586.841 734.145 586.571C734.038 586.3 733.881 586.088 733.672 585.935C733.463 585.781 733.205 585.705 732.898 585.705C732.579 585.705 732.312 585.786 732.099 585.947C731.888 586.109 731.73 586.327 731.623 586.599C731.519 586.872 731.466 587.175 731.466 587.507C731.466 587.848 731.52 588.15 731.626 588.412C731.735 588.672 731.895 588.876 732.106 589.025C732.319 589.172 732.583 589.246 732.898 589.246ZM736.976 590.051C736.819 590.051 736.683 589.995 736.57 589.882C736.458 589.769 736.401 589.634 736.401 589.476C736.401 589.318 736.458 589.183 736.57 589.07C736.683 588.957 736.819 588.901 736.976 588.901C737.134 588.901 737.269 588.957 737.382 589.07C737.495 589.183 737.552 589.318 737.552 589.476C737.552 589.58 737.525 589.676 737.472 589.763C737.421 589.851 737.351 589.921 737.264 589.974C737.179 590.026 737.083 590.051 736.976 590.051ZM740.9 590.102C740.439 590.102 740.043 589.994 739.711 589.776C739.378 589.559 739.123 589.26 738.944 588.878C738.765 588.497 738.675 588.061 738.675 587.571C738.675 587.072 738.767 586.632 738.95 586.251C739.135 585.868 739.393 585.568 739.723 585.353C740.056 585.136 740.444 585.027 740.887 585.027C741.232 585.027 741.543 585.091 741.82 585.219C742.097 585.347 742.324 585.526 742.501 585.756C742.678 585.986 742.787 586.254 742.83 586.561H742.076C742.018 586.337 741.89 586.139 741.692 585.967C741.496 585.792 741.232 585.705 740.9 585.705C740.605 585.705 740.348 585.781 740.126 585.935C739.907 586.086 739.735 586.3 739.612 586.577C739.49 586.852 739.429 587.175 739.429 587.545C739.429 587.925 739.489 588.255 739.608 588.536C739.73 588.817 739.9 589.036 740.12 589.191C740.341 589.347 740.601 589.425 740.9 589.425C741.096 589.425 741.273 589.391 741.433 589.322C741.593 589.254 741.728 589.156 741.839 589.028C741.95 588.901 742.029 588.747 742.076 588.568H742.83C742.787 588.858 742.682 589.119 742.513 589.351C742.347 589.581 742.127 589.765 741.852 589.901C741.579 590.035 741.262 590.102 740.9 590.102ZM745.927 590.102C745.484 590.102 745.095 589.997 744.76 589.786C744.428 589.575 744.168 589.28 743.98 588.901C743.795 588.521 743.702 588.078 743.702 587.571C743.702 587.06 743.795 586.613 743.98 586.232C744.168 585.85 744.428 585.554 744.76 585.343C745.095 585.132 745.484 585.027 745.927 585.027C746.37 585.027 746.758 585.132 747.09 585.343C747.425 585.554 747.685 585.85 747.87 586.232C748.058 586.613 748.151 587.06 748.151 587.571C748.151 588.078 748.058 588.521 747.87 588.901C747.685 589.28 747.425 589.575 747.09 589.786C746.758 589.997 746.37 590.102 745.927 590.102ZM745.927 589.425C746.263 589.425 746.54 589.338 746.758 589.166C746.975 588.993 747.136 588.766 747.24 588.485C747.345 588.204 747.397 587.899 747.397 587.571C747.397 587.243 747.345 586.937 747.24 586.654C747.136 586.37 746.975 586.141 746.758 585.967C746.54 585.792 746.263 585.705 745.927 585.705C745.59 585.705 745.313 585.792 745.096 585.967C744.879 586.141 744.718 586.37 744.613 586.654C744.509 586.937 744.457 587.243 744.457 587.571C744.457 587.899 744.509 588.204 744.613 588.485C744.718 588.766 744.879 588.993 745.096 589.166C745.313 589.338 745.59 589.425 745.927 589.425ZM749.303 590V585.091H750.031V585.858H750.095C750.198 585.596 750.363 585.392 750.591 585.248C750.819 585.1 751.092 585.027 751.412 585.027C751.736 585.027 752.005 585.1 752.221 585.248C752.438 585.392 752.607 585.596 752.729 585.858H752.78C752.906 585.604 753.094 585.403 753.346 585.254C753.597 585.103 753.899 585.027 754.25 585.027C754.689 585.027 755.048 585.164 755.327 585.439C755.606 585.712 755.746 586.137 755.746 586.714V590H754.992V586.714C754.992 586.352 754.892 586.093 754.694 585.938C754.496 585.782 754.263 585.705 753.994 585.705C753.649 585.705 753.382 585.809 753.192 586.018C753.003 586.224 752.908 586.487 752.908 586.804V590H752.141V586.638C752.141 586.359 752.05 586.134 751.869 585.963C751.688 585.791 751.455 585.705 751.169 585.705C750.973 585.705 750.79 585.757 750.619 585.861C750.451 585.966 750.315 586.11 750.21 586.296C750.108 586.479 750.057 586.691 750.057 586.932V590H749.303ZM759.439 583.148L757.329 590.984H756.639L758.748 583.148H759.439ZM762.775 590L763.849 583.455H764.488L763.414 590H762.775ZM759.796 588.185L759.898 587.545H764.782L764.68 588.185H759.796ZM760.474 590L761.547 583.455H762.187L761.113 590H760.474ZM760.18 585.909L760.282 585.27H765.165L765.063 585.909H760.18ZM768.325 583.148L766.215 590.984H765.525L767.634 583.148H768.325ZM770.663 590.115C770.352 590.115 770.07 590.056 769.816 589.939C769.563 589.82 769.361 589.648 769.212 589.425C769.063 589.199 768.989 588.926 768.989 588.607C768.989 588.325 769.044 588.097 769.155 587.923C769.266 587.746 769.414 587.607 769.599 587.507C769.784 587.407 769.989 587.332 770.213 587.283C770.438 587.232 770.665 587.192 770.893 587.162C771.192 587.124 771.434 587.095 771.619 587.076C771.806 587.054 771.943 587.019 772.028 586.97C772.115 586.921 772.159 586.836 772.159 586.714V586.689C772.159 586.374 772.073 586.129 771.9 585.954C771.73 585.779 771.471 585.692 771.123 585.692C770.763 585.692 770.481 585.771 770.277 585.928C770.072 586.086 769.928 586.254 769.845 586.433L769.129 586.178C769.257 585.879 769.427 585.647 769.641 585.481C769.856 585.312 770.09 585.195 770.344 585.129C770.599 585.061 770.851 585.027 771.098 585.027C771.256 585.027 771.437 585.046 771.641 585.085C771.848 585.121 772.047 585.196 772.239 585.311C772.433 585.426 772.594 585.6 772.722 585.832C772.849 586.065 772.913 586.376 772.913 586.766V590H772.159V589.335H772.121C772.07 589.442 771.984 589.556 771.865 589.677C771.746 589.799 771.587 589.902 771.389 589.987C771.191 590.072 770.949 590.115 770.663 590.115ZM770.778 589.438C771.077 589.438 771.328 589.379 771.533 589.262C771.739 589.145 771.895 588.993 771.999 588.808C772.106 588.623 772.159 588.428 772.159 588.223V587.533C772.127 587.571 772.057 587.606 771.948 587.638C771.842 587.668 771.718 587.695 771.577 587.718C771.439 587.739 771.304 587.759 771.171 587.776C771.041 587.79 770.936 587.803 770.855 587.814C770.659 587.839 770.476 587.881 770.305 587.939C770.137 587.994 770.001 588.078 769.896 588.191C769.794 588.302 769.743 588.453 769.743 588.645C769.743 588.907 769.84 589.105 770.034 589.239C770.23 589.371 770.478 589.438 770.778 589.438ZM774.29 591.841V585.091H775.019V585.871H775.108C775.164 585.786 775.24 585.677 775.338 585.545C775.438 585.411 775.581 585.291 775.767 585.187C775.954 585.08 776.208 585.027 776.527 585.027C776.941 585.027 777.305 585.13 777.62 585.337C777.936 585.544 778.182 585.837 778.358 586.216C778.535 586.595 778.624 587.043 778.624 587.558C778.624 588.078 778.535 588.529 778.358 588.91C778.182 589.289 777.937 589.583 777.623 589.792C777.31 589.999 776.949 590.102 776.54 590.102C776.225 590.102 775.972 590.05 775.782 589.946C775.593 589.839 775.447 589.719 775.345 589.585C775.242 589.448 775.164 589.335 775.108 589.246H775.044V591.841H774.29ZM775.031 587.545C775.031 587.916 775.086 588.243 775.194 588.527C775.303 588.808 775.462 589.028 775.671 589.188C775.879 589.346 776.135 589.425 776.438 589.425C776.753 589.425 777.016 589.342 777.227 589.175C777.44 589.007 777.6 588.781 777.706 588.498C777.815 588.212 777.869 587.895 777.869 587.545C777.869 587.2 777.816 586.889 777.71 586.612C777.605 586.333 777.447 586.113 777.233 585.951C777.023 585.787 776.757 585.705 776.438 585.705C776.131 585.705 775.873 585.782 775.664 585.938C775.455 586.091 775.298 586.306 775.191 586.583C775.085 586.858 775.031 587.179 775.031 587.545ZM779.774 591.841V585.091H780.503V585.871H780.593C780.648 585.786 780.725 585.677 780.823 585.545C780.923 585.411 781.066 585.291 781.251 585.187C781.438 585.08 781.692 585.027 782.012 585.027C782.425 585.027 782.789 585.13 783.105 585.337C783.42 585.544 783.666 585.837 783.843 586.216C784.02 586.595 784.108 587.043 784.108 587.558C784.108 588.078 784.02 588.529 783.843 588.91C783.666 589.289 783.421 589.583 783.108 589.792C782.795 589.999 782.433 590.102 782.024 590.102C781.709 590.102 781.456 590.05 781.267 589.946C781.077 589.839 780.931 589.719 780.829 589.585C780.727 589.448 780.648 589.335 780.593 589.246H780.529V591.841H779.774ZM780.516 587.545C780.516 587.916 780.57 588.243 780.679 588.527C780.787 588.808 780.946 589.028 781.155 589.188C781.364 589.346 781.619 589.425 781.922 589.425C782.237 589.425 782.501 589.342 782.711 589.175C782.925 589.007 783.084 588.781 783.191 588.498C783.3 588.212 783.354 587.895 783.354 587.545C783.354 587.2 783.301 586.889 783.194 586.612C783.09 586.333 782.931 586.113 782.718 585.951C782.507 585.787 782.242 585.705 781.922 585.705C781.615 585.705 781.357 585.782 781.149 585.938C780.94 586.091 780.782 586.306 780.676 586.583C780.569 586.858 780.516 587.179 780.516 587.545Z" fill="#505050"/>
<path d="M18 76H818H18Z" fill="black"/>
<path d="M18 76H818" stroke="#27AAE1" stroke-width="0.5"/>
<path d="M85 145.755H87.685L113.369 79.287H114.052V76H112.148L85 145.755ZM95.693 121.536H130.996L130.263 119.313H96.474L95.693 121.536ZM139.15 145.755H141.787L114.638 76H113.466V79.287L139.15 145.755Z" fill="black"/>
<path d="M18 146H818H18Z" fill="black"/>
<path d="M18 146H818" stroke="#27AAE1" stroke-width="0.5"/>
<path d="M219.536 56V166V56Z" fill="black"/>
<path d="M219.536 56V166" stroke="#27AAE1" stroke-width="0.5"/>
<path d="M310.464 56V166V56Z" fill="black"/>
<path d="M310.464 56V166" stroke="#27AAE1" stroke-width="0.5"/>
<path d="M419.536 56V166V56Z" fill="black"/>
<path d="M419.536 56V166" stroke="#27AAE1" stroke-width="0.5"/>
<path d="M510.464 56V166V56Z" fill="black"/>
<path d="M510.464 56V166" stroke="#27AAE1" stroke-width="0.5"/>
<path d="M619.536 56V166V56Z" fill="black"/>
<path d="M619.536 56V166" stroke="#27AAE1" stroke-width="0.5"/>
<path d="M710.464 56V166V56Z" fill="black"/>
<path d="M710.464 56V166" stroke="#27AAE1" stroke-width="0.5"/>
<path d="M18 276H818H18Z" fill="black"/>
<path d="M18 276H818" stroke="#27AAE1" stroke-width="0.5"/>
<path d="M18 346H818H18Z" fill="black"/>
<path d="M18 346H818" stroke="#27AAE1" stroke-width="0.5"/>
<path d="M18 476H818H18Z" fill="black"/>
<path d="M18 476H818" stroke="#27AAE1" stroke-width="0.5"/>
<path d="M18 546H818H18Z" fill="black"/>
<path d="M18 546H818" stroke="#27AAE1" stroke-width="0.5"/>
<path d="M290.357 81.725C290.771 85.174 291.108 85.504 294.613 85.912C291.108 86.32 290.771 86.651 290.357 90.1C289.942 86.651 289.605 86.32 286.1 85.912C289.605 85.504 289.942 85.174 290.357 81.725Z" fill="black"/>
<path d="M265 91.292C265.338 93.215 265.705 94.952 266.132 96.519C267.186 100.387 268.615 103.342 270.869 105.595C273.123 107.849 276.077 109.279 279.945 110.332C281.511 110.759 283.248 111.124 285.17 111.462C283.248 111.8 281.511 112.167 279.945 112.594C276.077 113.648 273.123 115.079 270.869 117.333C268.615 119.587 267.186 122.542 266.132 126.41C265.706 127.976 265.338 129.712 265 131.634C264.662 129.712 264.297 127.976 263.87 126.41C262.816 122.541 261.385 119.587 259.131 117.333C256.877 115.079 253.923 113.648 250.054 112.594C248.488 112.167 246.751 111.8 244.827 111.462C246.751 111.124 248.488 110.759 250.054 110.332C253.923 109.279 256.877 107.849 259.131 105.595C261.385 103.342 262.816 100.387 263.87 96.519C264.297 94.952 264.662 93.215 265 91.292Z" fill="black"/>
<path d="M236.907 82.5979C242.451 77.1789 250.682 75.9629 259.147 77.9009C267.636 79.8459 276.66 85.0029 284.304 92.8229C291.948 100.643 296.899 109.782 298.65 118.313C300.396 126.819 298.993 135.019 293.45 140.438C287.906 145.857 279.677 147.073 271.213 145.135C262.723 143.191 253.7 138.035 246.056 130.216C238.411 122.396 233.458 113.255 231.707 104.723C229.961 96.2169 231.364 88.0169 236.907 82.5979ZM258.233 81.8899C250.591 80.1389 243.98 81.4089 239.768 85.5259C235.558 89.6429 234.138 96.2239 235.714 103.903C237.285 111.557 241.803 120.012 248.981 127.355C256.159 134.697 264.508 139.402 272.124 141.147C279.765 142.897 286.377 141.629 290.589 137.513C294.8 133.397 296.219 126.816 294.643 119.136C293.073 111.482 288.557 103.028 281.379 95.6839C274.2 88.3409 265.85 83.6339 258.233 81.8899Z" fill="black"/>
<path d="M490.357 80.9125C490.892 85.0307 491.327 85.4247 495.856 85.9119C491.327 86.399 490.892 86.7943 490.357 90.9125C489.821 86.7943 489.385 86.399 484.856 85.9119C489.385 85.4247 489.821 85.0307 490.357 80.9125Z" fill="black"/>
<path d="M465 91.292C465.338 93.215 465.705 94.952 466.132 96.519C467.186 100.387 468.615 103.342 470.869 105.595C473.123 107.849 476.077 109.279 479.946 110.332C481.511 110.759 483.248 111.124 485.17 111.462C483.248 111.8 481.511 112.167 479.946 112.594C476.077 113.648 473.123 115.079 470.869 117.333C468.615 119.587 467.186 122.542 466.132 126.41C465.706 127.976 465.338 129.712 465 131.634C464.662 129.712 464.297 127.976 463.87 126.41C462.816 122.541 461.385 119.587 459.131 117.333C456.877 115.079 453.923 113.648 450.055 112.594C448.488 112.167 446.751 111.8 444.828 111.462C446.751 111.124 448.488 110.759 450.055 110.332C453.923 109.279 456.877 107.849 459.131 105.595C461.385 103.342 462.816 100.387 463.87 96.519C464.297 94.952 464.662 93.215 465 91.292Z" fill="black"/>
<path d="M436.907 82.5979C442.451 77.1789 450.682 75.9629 459.147 77.9009C467.636 79.8459 476.66 85.0029 484.304 92.8229C491.948 100.643 496.899 109.782 498.65 118.313C500.396 126.819 498.993 135.019 493.45 140.438C487.906 145.857 479.677 147.073 471.213 145.135C462.723 143.191 453.7 138.035 446.056 130.216C438.411 122.396 433.458 113.255 431.707 104.723C429.961 96.2169 431.364 88.0169 436.907 82.5979ZM458.233 81.8899C450.591 80.1389 443.98 81.4089 439.768 85.5259C435.558 89.6429 434.138 96.2239 435.714 103.903C437.285 111.557 441.803 120.012 448.981 127.355C456.159 134.697 464.508 139.402 472.124 141.147C479.765 142.897 486.377 141.629 490.589 137.513C494.8 133.397 496.219 126.816 494.643 119.136C493.073 111.482 488.557 103.028 481.379 95.6839C474.2 88.3409 465.85 83.6339 458.233 81.8899Z" fill="black"/>
<path d="M438.709 84.2601C443.899 79.1525 451.606 78.0064 459.532 79.8331C467.48 81.6663 475.929 86.5269 483.086 93.8974C490.243 101.268 494.878 109.882 496.517 117.922C498.152 125.94 496.839 133.668 491.649 138.776C486.458 143.883 478.753 145.029 470.829 143.203C462.88 141.371 454.432 136.511 447.275 129.141C440.117 121.771 435.479 113.155 433.84 105.113C432.205 97.0964 433.519 89.3676 438.709 84.2601ZM458.676 83.5928C451.521 81.9424 445.331 83.1394 441.387 87.0198C437.446 90.9002 436.116 97.103 437.592 104.341C439.062 111.555 443.293 119.524 450.013 126.445C456.734 133.365 464.551 137.799 471.682 139.444C478.836 141.093 485.026 139.898 488.97 136.019C492.913 132.139 494.241 125.937 492.766 118.698C491.296 111.484 487.068 103.516 480.347 96.594C473.625 89.673 465.807 85.2366 458.676 83.5928Z" fill="black"/>
<path d="M690.357 77.9125C691.136 84.5016 691.767 85.1321 698.356 85.9115C691.767 86.691 691.136 87.3233 690.357 93.9125C689.577 87.3233 688.944 86.691 682.356 85.9115C688.944 85.1321 689.577 84.5016 690.357 77.9125Z" fill="black"/>
<path d="M665 91.292C665.338 93.215 665.705 94.952 666.132 96.519C667.186 100.387 668.615 103.342 670.869 105.595C673.123 107.849 676.077 109.279 679.945 110.332C681.511 110.759 683.248 111.124 685.17 111.462C683.247 111.8 681.511 112.167 679.945 112.594C676.077 113.648 673.123 115.079 670.869 117.333C668.615 119.587 667.186 122.542 666.132 126.41C665.706 127.976 665.338 129.712 665 131.634C664.662 129.712 664.297 127.976 663.87 126.41C662.816 122.541 661.385 119.587 659.131 117.333C656.877 115.079 653.923 113.648 650.054 112.594C648.488 112.167 646.751 111.8 644.827 111.462C646.751 111.124 648.488 110.759 650.054 110.332C653.923 109.279 656.877 107.849 659.131 105.595C661.385 103.342 662.816 100.387 663.87 96.519C664.297 94.952 664.662 93.215 665 91.292Z" fill="black"/>
<path d="M636.907 82.5979C642.451 77.1789 650.682 75.9629 659.147 77.9009C667.636 79.8459 676.66 85.0029 684.304 92.8229C691.948 100.643 696.899 109.782 698.65 118.313C700.396 126.819 698.993 135.019 693.45 140.438C687.906 145.857 679.677 147.073 671.213 145.135C662.723 143.191 653.7 138.035 646.056 130.216C638.411 122.396 633.458 113.255 631.707 104.723C629.961 96.2169 631.364 88.0169 636.907 82.5979ZM658.233 81.8899C650.591 80.1389 643.979 81.4089 639.768 85.5259C635.558 89.6429 634.138 96.2239 635.714 103.903C637.285 111.557 641.803 120.012 648.981 127.355C656.159 134.697 664.508 139.402 672.124 141.147C679.765 142.897 686.377 141.629 690.589 137.513C694.8 133.397 696.219 126.816 694.643 119.136C693.073 111.482 688.557 103.028 681.379 95.6839C674.2 88.3409 665.85 83.6339 658.233 81.8899Z" fill="black"/>
<path d="M639.535 85.0988C644.564 80.1484 652.03 79.0376 659.708 80.808C667.407 82.5848 675.592 87.2958 682.526 94.4396C689.459 101.583 693.949 109.932 695.538 117.725C697.121 125.496 695.849 132.987 690.821 137.937C685.793 142.887 678.329 143.998 670.652 142.228C662.951 140.452 654.767 135.742 647.834 128.599C640.9 121.455 636.407 113.105 634.819 105.311C633.235 97.5401 634.508 90.0492 639.535 85.0988ZM658.878 84.452C651.947 82.8524 645.95 84.0126 642.13 87.7736C638.312 91.5346 637.024 97.5465 638.453 104.561C639.878 111.554 643.976 119.277 650.487 125.985C656.997 132.693 664.57 136.991 671.478 138.585C678.409 140.183 684.406 139.025 688.226 135.265C692.046 131.505 693.333 125.493 691.903 118.477C690.479 111.485 686.383 103.762 679.872 97.0532C673.361 90.3452 665.787 86.0452 658.878 84.452Z" fill="black"/>
</g>
<defs>
<clipPath id="clip0_1747_61">
<rect width="800" height="600" fill="white"/>
</clipPath>
</defs>
</svg>
