<svg width="24" height="28" viewBox="0 0 24 28" fill="none" xmlns="http://www.w3.org/2000/svg">
<path d="M18.1401 25.1172C17.2601 25.3772 16.2201 25.4972 15.0001 25.4972H12.0001H9.00011C7.78011 25.4972 6.74011 25.3772 5.86011 25.1172M16 19.9973C13.88 21.9973 10.11 21.9973 8 19.9973" stroke="white" stroke-width="1.5" stroke-linecap="round" stroke-linejoin="round"/>
<path d="M5.86 25.1173C3.14 24.3473 2 22.2773 2 18.4973V12.4973C2 7.49731 4 5.49731 9 5.49731H15C20 5.49731 22 7.49731 22 12.4973V18.4973C22 22.2773 20.86 24.3473 18.14 25.1173" stroke="white" stroke-width="1.5" stroke-linecap="round" stroke-linejoin="round"/>
<path d="M12 2.49731V5.49731" stroke="white" stroke-width="1.5" stroke-linecap="round" stroke-linejoin="round"/>
<path d="M0.25 14.7753L0.25 17.2195C0.25 18.2811 0.52125 18.9141 0.97625 18.9141L2.0225 18.9141C2.47875 18.9141 2.75 18.2811 2.75 17.2195L2.75 14.7782C2.75 13.7166 2.47875 13.0836 2.02375 13.0836L0.97625 13.0836C0.52125 13.0807 0.25 13.7136 0.25 14.7753ZM1.59375 14.2474L1.59375 17.7474C1.59375 17.867 1.55125 17.9661 1.5 17.9661C1.44875 17.9661 1.40625 17.867 1.40625 17.7474L1.40625 14.2474C1.40625 14.1278 1.44875 14.0286 1.5 14.0286C1.55125 14.0286 1.59375 14.1278 1.59375 14.2474Z" fill="white"/>
<path d="M21.25 14.7753L21.25 17.2195C21.25 18.2811 21.5213 18.9141 21.9763 18.9141L23.0225 18.9141C23.4788 18.9141 23.75 18.2811 23.75 17.2195L23.75 14.7782C23.75 13.7166 23.4787 13.0836 23.0238 13.0836L21.9762 13.0836C21.5212 13.0807 21.25 13.7136 21.25 14.7753ZM22.5937 14.2474L22.5938 17.7474C22.5938 17.867 22.5513 17.9661 22.5 17.9661C22.4488 17.9661 22.4063 17.867 22.4063 17.7474L22.4062 14.2474C22.4062 14.1278 22.4487 14.0286 22.5 14.0286C22.5512 14.0286 22.5937 14.1278 22.5937 14.2474Z" fill="white"/>
<path fill-rule="evenodd" clip-rule="evenodd" d="M7.50022 8.99731C7.84108 12.2914 8.11764 12.6075 11 12.9971C8.11764 13.3871 7.84108 13.7032 7.50022 16.9973C7.15892 13.7032 6.88236 13.3871 4 12.9971C6.88236 12.6075 7.15892 12.2914 7.50022 8.99731Z" fill="white"/>
<path fill-rule="evenodd" clip-rule="evenodd" d="M16.5002 8.99731C16.8411 12.2914 17.1176 12.6075 20 12.9971C17.1176 13.3871 16.8411 13.7032 16.5002 16.9973C16.1589 13.7032 15.8824 13.3871 13 12.9971C15.8824 12.6075 16.1589 12.2914 16.5002 8.99731Z" fill="white"/>
<path d="M12.0636 0.000103951C10.9574 0.000103951 10.0636 0.892712 10.0636 1.99731C10.0636 3.10192 10.9574 4.0001 12.0636 4.0001C13.1697 4.0001 14.0636 3.10192 14.0636 1.99731C14.0636 0.892712 13.1697 0.000103951 12.0636 0.000103951Z" fill="white"/>
</svg>
