<svg width="24" height="28" viewBox="0 0 24 28" fill="none" xmlns="http://www.w3.org/2000/svg">
<path d="M18.1401 25.1172C17.2601 25.3772 16.2201 25.4972 15.0001 25.4972H12.0001H9.00011C7.78011 25.4972 6.74011 25.3772 5.86011 25.1172M16 19.9973C13.88 21.9973 10.11 21.9973 8 19.9973" stroke="white" stroke-width="1.5" stroke-linecap="round" stroke-linejoin="round"/>
<path d="M5.86 25.1173C3.14 24.3473 2 22.2773 2 18.4973V12.4973C2 7.49731 4 5.49731 9 5.49731H15C20 5.49731 22 7.49731 22 12.4973V18.4973C22 22.2773 20.86 24.3473 18.14 25.1173" stroke="white" stroke-width="1.5" stroke-linecap="round" stroke-linejoin="round"/>
<path d="M12 2.49731V5.49731" stroke="white" stroke-width="1.5" stroke-linecap="round" stroke-linejoin="round"/>
<path d="M0.25 14.7753L0.25 17.2195C0.25 18.2811 0.52125 18.9141 0.97625 18.9141L2.0225 18.9141C2.47875 18.9141 2.75 18.2811 2.75 17.2195L2.75 14.7782C2.75 13.7166 2.47875 13.0836 2.02375 13.0836L0.97625 13.0836C0.52125 13.0807 0.25 13.7136 0.25 14.7753ZM1.59375 14.2474L1.59375 17.7474C1.59375 17.867 1.55125 17.9661 1.5 17.9661C1.44875 17.9661 1.40625 17.867 1.40625 17.7474L1.40625 14.2474C1.40625 14.1278 1.44875 14.0286 1.5 14.0286C1.55125 14.0286 1.59375 14.1278 1.59375 14.2474Z" fill="white"/>
<path d="M21.25 14.7753L21.25 17.2195C21.25 18.2811 21.5213 18.9141 21.9763 18.9141L23.0225 18.9141C23.4788 18.9141 23.75 18.2811 23.75 17.2195L23.75 14.7782C23.75 13.7166 23.4787 13.0836 23.0238 13.0836L21.9762 13.0836C21.5212 13.0807 21.25 13.7136 21.25 14.7753ZM22.5937 14.2474L22.5938 17.7474C22.5938 17.867 22.5513 17.9661 22.5 17.9661C22.4488 17.9661 22.4063 17.867 22.4063 17.7474L22.4062 14.2474C22.4062 14.1278 22.4487 14.0286 22.5 14.0286C22.5512 14.0286 22.5937 14.1278 22.5937 14.2474Z" fill="white"/>
<path d="M12.0636 0.000103951C10.9574 0.000103951 10.0636 0.892712 10.0636 1.99731C10.0636 3.10192 10.9574 4.0001 12.0636 4.0001C13.1697 4.0001 14.0636 3.10192 14.0636 1.99731C14.0636 0.892712 13.1697 0.000103951 12.0636 0.000103951Z" fill="white"/>
<path d="M5 13.4973C5 15.1482 6.34024 16.4973 8 16.4973C9.65976 16.4973 11 15.1571 11 13.4973C11 11.8376 9.65976 10.4973 8 10.4973C7.17456 10.4973 6.42012 10.8346 5.8787 11.376C5.33728 11.9263 5 12.6719 5 13.4973Z" stroke="white" stroke-width="1.5" stroke-miterlimit="10" stroke-linecap="round" stroke-linejoin="round"/>
<path d="M13 13.4973C13 15.1482 14.3402 16.4973 16 16.4973C17.6598 16.4973 19 15.1571 19 13.4973C19 11.8375 17.6598 10.4973 16 10.4973C15.1746 10.4973 14.4201 10.8346 13.8787 11.376C13.3373 11.9263 13 12.6718 13 13.4973Z" stroke="white" stroke-width="1.5" stroke-miterlimit="10" stroke-linecap="round" stroke-linejoin="round"/>
</svg>
