<svg width="24" height="28" viewBox="0 0 24 28" fill="none" xmlns="http://www.w3.org/2000/svg">
<path d="M18.1401 25.1172C17.2601 25.3772 16.2201 25.4972 15.0001 25.4972H12.0001H9.00011C7.78011 25.4972 6.74011 25.3772 5.86011 25.1172M16 19.9973C13.88 21.9973 10.11 21.9973 8 19.9973" stroke="white" stroke-width="1.5" stroke-linecap="round" stroke-linejoin="round"/>
<path d="M5.86 25.1172C3.14 24.3472 2 22.2772 2 18.4972V12.4972C2 7.49719 4 5.49719 9 5.49719H15C20 5.49719 22 7.49719 22 12.4972V18.4972C22 22.2772 20.86 24.3472 18.14 25.1172" stroke="white" stroke-width="1.5" stroke-linecap="round" stroke-linejoin="round"/>
<path d="M12 2.49719V5.49719" stroke="white" stroke-width="1.5" stroke-linecap="round" stroke-linejoin="round"/>
<path d="M0.25 14.7751L0.25 17.2192C0.25 18.2809 0.52125 18.9138 0.97625 18.9138L2.0225 18.9138C2.47875 18.9138 2.75 18.2809 2.75 17.2192L2.75 14.778C2.75 13.7163 2.47875 13.0834 2.02375 13.0834L0.97625 13.0834C0.52125 13.0805 0.25 13.7134 0.25 14.7751ZM1.59375 14.2472L1.59375 17.7472C1.59375 17.8667 1.55125 17.9659 1.5 17.9659C1.44875 17.9659 1.40625 17.8667 1.40625 17.7472L1.40625 14.2472C1.40625 14.1276 1.44875 14.0284 1.5 14.0284C1.55125 14.0284 1.59375 14.1276 1.59375 14.2472Z" fill="white"/>
<path d="M21.25 14.7751L21.25 17.2192C21.25 18.2809 21.5213 18.9138 21.9763 18.9138L23.0225 18.9138C23.4788 18.9138 23.75 18.2809 23.75 17.2192L23.75 14.778C23.75 13.7163 23.4787 13.0834 23.0238 13.0834L21.9762 13.0834C21.5212 13.0805 21.25 13.7134 21.25 14.7751ZM22.5937 14.2472L22.5938 17.7472C22.5938 17.8667 22.5513 17.9659 22.5 17.9659C22.4488 17.9659 22.4063 17.8667 22.4063 17.7472L22.4062 14.2472C22.4062 14.1276 22.4487 14.0284 22.5 14.0284C22.5512 14.0284 22.5937 14.1276 22.5937 14.2472Z" fill="white"/>
<path d="M12.0636 -1.81198e-05C10.9574 -1.81198e-05 10.0636 0.89259 10.0636 1.99719C10.0636 3.10179 10.9574 3.99998 12.0636 3.99998C13.1697 3.99998 14.0636 3.10179 14.0636 1.99719C14.0636 0.89259 13.1697 -1.81198e-05 12.0636 -1.81198e-05Z" fill="white"/>
</svg>
