<svg width="60" height="348" viewBox="0 0 60 348" fill="none" xmlns="http://www.w3.org/2000/svg">
<rect x="0.5" y="0.5" width="59" height="347" rx="4.5" stroke="#7B61FF" stroke-dasharray="10 5"/>
<ellipse cx="27.8819" cy="28.0198" rx="9.0539" ry="14.0748" transform="rotate(-44.3491 27.8819 28.0198)" stroke="white" stroke-width="1.5"/>
<path fill-rule="evenodd" clip-rule="evenodd" d="M37.1113 17.0986C37.2632 18.3627 37.3865 18.484 38.6716 18.6335C37.3865 18.7831 37.2632 18.9044 37.1113 20.1685C36.9591 18.9044 36.8358 18.7831 35.5508 18.6335C36.8358 18.484 36.9591 18.3627 37.1113 17.0986Z" fill="white"/>
<path fill-rule="evenodd" clip-rule="evenodd" d="M27.7833 21.6805C28.4066 26.8655 28.9124 27.3631 34.1835 27.9762C28.9124 28.5902 28.4066 29.0877 27.7833 34.2727C27.1592 29.0877 26.6534 28.5902 21.3823 27.9762C26.6534 27.3631 27.1592 26.8655 27.7833 21.6805Z" fill="white"/>
<ellipse cx="27.8819" cy="80.0198" rx="9.0539" ry="14.0748" transform="rotate(-44.3491 27.8819 80.0198)" fill="#D9D9D9" stroke="white" stroke-width="1.5"/>
<path fill-rule="evenodd" clip-rule="evenodd" d="M37.1113 69.0986C37.2632 70.3627 37.3865 70.484 38.6716 70.6335C37.3865 70.7831 37.2632 70.9044 37.1113 72.1685C36.9591 70.9044 36.8358 70.7831 35.5508 70.6335C36.8358 70.484 36.9591 70.3627 37.1113 69.0986Z" fill="white"/>
<path fill-rule="evenodd" clip-rule="evenodd" d="M27.7833 73.6805C28.4066 78.8655 28.9124 79.3631 34.1835 79.9762C28.9124 80.5902 28.4066 81.0877 27.7833 86.2727C27.1592 81.0877 26.6534 80.5902 21.3823 79.9762C26.6534 79.3631 27.1592 78.8655 27.7833 73.6805Z" fill="black"/>
<ellipse cx="27.8819" cy="128.02" rx="9.0539" ry="14.0748" transform="rotate(-44.3491 27.8819 128.02)" stroke="white" stroke-width="1.5"/>
<path fill-rule="evenodd" clip-rule="evenodd" d="M37.1113 117.099C37.2632 118.363 37.3865 118.484 38.6716 118.633C37.3865 118.783 37.2632 118.904 37.1113 120.168C36.9591 118.904 36.8358 118.783 35.5508 118.633C36.8358 118.484 36.9591 118.363 37.1113 117.099Z" fill="#707276"/>
<path fill-rule="evenodd" clip-rule="evenodd" d="M27.7833 121.681C28.4066 126.866 28.9124 127.363 34.1835 127.976C28.9124 128.59 28.4066 129.088 27.7833 134.273C27.1592 129.088 26.6534 128.59 21.3823 127.976C26.6534 127.363 27.1592 126.866 27.7833 121.681Z" fill="#707276"/>
<ellipse cx="27.8819" cy="176.02" rx="9.0539" ry="14.0748" transform="rotate(-44.3491 27.8819 176.02)" stroke="#707276" stroke-width="1.5"/>
<path fill-rule="evenodd" clip-rule="evenodd" d="M37.1113 165.099C37.2632 166.363 37.3865 166.484 38.6716 166.633C37.3865 166.783 37.2632 166.904 37.1113 168.168C36.9591 166.904 36.8358 166.783 35.5508 166.633C36.8358 166.484 36.9591 166.363 37.1113 165.099Z" fill="white"/>
<path fill-rule="evenodd" clip-rule="evenodd" d="M27.7833 169.681C28.4066 174.866 28.9124 175.363 34.1835 175.976C28.9124 176.59 28.4066 177.088 27.7833 182.273C27.1592 177.088 26.6534 176.59 21.3823 175.976C26.6534 175.363 27.1592 174.866 27.7833 169.681Z" fill="white"/>
<ellipse cx="27.8819" cy="224.02" rx="9.0539" ry="14.0748" transform="rotate(-44.3491 27.8819 224.02)" stroke="#707276" stroke-width="1.5"/>
<path fill-rule="evenodd" clip-rule="evenodd" d="M37.1113 213.099C37.2632 214.363 37.3865 214.484 38.6716 214.633C37.3865 214.783 37.2632 214.904 37.1113 216.168C36.9591 214.904 36.8358 214.783 35.5508 214.633C36.8358 214.484 36.9591 214.363 37.1113 213.099Z" fill="white"/>
<path fill-rule="evenodd" clip-rule="evenodd" d="M27.7833 217.681C28.4066 222.866 28.9124 223.363 34.1835 223.976C28.9124 224.59 28.4066 225.088 27.7833 230.273C27.1592 225.088 26.6534 224.59 21.3823 223.976C26.6534 223.363 27.1592 222.866 27.7833 217.681Z" fill="white" fill-opacity="0.27"/>
<path fill-rule="evenodd" clip-rule="evenodd" d="M35.2949 261.099C35.4468 262.363 35.5701 262.484 36.8552 262.633C35.5701 262.783 35.4468 262.904 35.2949 264.168C35.1427 262.904 35.0194 262.783 33.7344 262.633C35.0194 262.484 35.1427 262.363 35.2949 261.099Z" fill="white"/>
<path d="M26.0063 268.899C26.2368 269.732 26.5567 270.391 27.0737 270.899C27.5901 271.407 28.2587 271.72 29.1021 271.946C29.1415 271.957 29.1818 271.965 29.2222 271.975C29.1815 271.986 29.1408 271.996 29.1011 272.007C28.258 272.233 27.59 272.546 27.0737 273.054C26.5567 273.562 26.2368 274.222 26.0063 275.055C25.9924 275.105 25.9797 275.157 25.9663 275.209C25.9529 275.157 25.9403 275.105 25.9263 275.055C25.6957 274.222 25.377 273.562 24.8599 273.054C24.3434 272.546 23.675 272.233 22.8315 272.007C22.7918 271.996 22.7512 271.987 22.7104 271.976C22.7512 271.966 22.7918 271.957 22.8315 271.946C23.675 271.72 24.3434 271.407 24.8599 270.899C25.3768 270.391 25.6957 269.731 25.9263 268.899C25.9404 268.848 25.9527 268.796 25.9663 268.743C25.9799 268.796 25.9922 268.848 26.0063 268.899Z" stroke="white"/>
<path fill-rule="evenodd" clip-rule="evenodd" d="M15.2652 269.227C15.841 272.033 17.4961 275.133 20.1276 277.825C22.7591 280.516 25.8199 282.242 28.612 282.881C31.4133 283.522 33.8364 283.057 35.3801 281.548C36.9237 280.039 37.4438 277.627 36.866 274.812C36.2902 272.006 34.6352 268.907 32.0037 266.215C29.3722 263.523 26.3113 261.798 23.5193 261.159C20.718 260.517 18.2949 260.982 16.7512 262.491C15.2075 264 14.6875 266.412 15.2652 269.227ZM13.7959 269.529C13.1559 266.411 13.6706 263.405 15.7027 261.419C17.7347 259.432 20.7512 258.986 23.8541 259.697C26.9663 260.409 30.2741 262.3 33.0763 265.167C35.8786 268.033 37.6936 271.383 38.3354 274.511C38.9753 277.629 38.4606 280.635 36.4286 282.621C34.3966 284.607 31.38 285.054 28.2771 284.343C25.165 283.63 21.8572 281.74 19.0549 278.873C16.2527 276.006 14.4377 272.656 13.7959 269.529Z" fill="white"/>
<path fill-rule="evenodd" clip-rule="evenodd" d="M35.2949 309.099C35.4468 310.363 35.5701 310.484 36.8552 310.633C35.5701 310.783 35.4468 310.904 35.2949 312.168C35.1427 310.904 35.0194 310.783 33.7344 310.633C35.0194 310.484 35.1427 310.363 35.2949 309.099Z" fill="white"/>
<path d="M26 312.605C26.1238 313.31 26.2586 313.947 26.415 314.521C26.8012 315.939 27.3252 317.022 28.1514 317.849C28.9775 318.675 30.0606 319.199 31.4785 319.585C32.0525 319.741 32.689 319.875 33.3936 319.999C32.6889 320.123 32.0525 320.258 31.4785 320.414C30.0605 320.8 28.9775 321.325 28.1514 322.151C27.3253 322.978 26.8012 324.061 26.415 325.479C26.2587 326.053 26.1238 326.689 26 327.394C25.8761 326.689 25.7423 326.052 25.5859 325.479C25.1995 324.06 24.6749 322.978 23.8486 322.151C23.0224 321.325 21.9396 320.8 20.5215 320.414C19.9472 320.258 19.3105 320.123 18.6055 319.999C19.3104 319.875 19.9473 319.741 20.5215 319.585C21.9394 319.199 23.0224 318.675 23.8486 317.849C24.6749 317.022 25.1995 315.94 25.5859 314.521C25.7424 313.947 25.8761 313.31 26 312.605Z" stroke="white"/>
<path d="M15.7021 309.419C17.7342 307.432 20.7516 306.986 23.8545 307.697C26.9664 308.41 30.2741 310.3 33.0762 313.167C35.8782 316.033 37.6931 319.383 38.335 322.51C38.9748 325.629 38.4605 328.634 36.4287 330.621C34.3967 332.607 31.3801 333.053 28.2773 332.342C25.1655 331.63 21.8578 329.74 19.0557 326.874C16.2534 324.007 14.4378 320.656 13.7959 317.529C13.156 314.411 13.6703 311.405 15.7021 309.419ZM23.5195 309.159C20.7182 308.517 18.2946 308.983 16.751 310.492C15.2076 312.001 14.687 314.413 15.2646 317.228C15.8406 320.034 17.4966 323.133 20.1279 325.825C22.7591 328.516 25.8196 330.241 28.6113 330.881C31.4125 331.522 33.8362 331.057 35.3799 329.549C36.9235 328.04 37.4438 325.627 36.8662 322.812C36.2904 320.007 34.6351 316.907 32.0039 314.216C29.3725 311.524 26.3115 309.798 23.5195 309.159Z" fill="white"/>
</svg>
