<svg width="24" height="28" viewBox="0 0 24 28" fill="none" xmlns="http://www.w3.org/2000/svg">
<path d="M18.1401 25.6199C17.2601 25.8799 16.2201 25.9999 15.0001 25.9999H9.00011C7.78011 25.9999 6.74011 25.8799 5.86011 25.6199" stroke="white" stroke-width="1.5" stroke-linecap="round" stroke-linejoin="round"/>
<path d="M5.86 25.6199C3.14 24.8499 2 22.7799 2 18.9999V16.9399V12.9999C2 7.99988 4 5.99988 9 5.99988H15C20 5.99988 22 7.99988 22 12.9999V18.9999C22 22.7799 20.86 24.8499 18.14 25.6199" stroke="white" stroke-width="1.5" stroke-linecap="round" stroke-linejoin="round"/>
<path fill-rule="evenodd" clip-rule="evenodd" d="M12.0004 8.99988C12.5847 14.3528 13.0588 14.8664 18 15.4995C13.0588 16.1333 12.5847 16.6469 12.0004 21.9999C11.4153 16.6469 10.9412 16.1333 6 15.4995C10.9412 14.8664 11.4153 14.3528 12.0004 8.99988Z" fill="white"/>
<path d="M0.25 15.2778L0.25 17.7219C0.25 18.7836 0.52125 19.4165 0.97625 19.4165L2.0225 19.4165C2.47875 19.4165 2.75 18.7836 2.75 17.7219L2.75 15.2807C2.75 14.219 2.47875 13.5861 2.02375 13.5861L0.97625 13.5861C0.52125 13.5832 0.25 14.2161 0.25 15.2778ZM1.59375 14.7498L1.59375 18.2498C1.59375 18.3694 1.55125 18.4686 1.5 18.4686C1.44875 18.4686 1.40625 18.3694 1.40625 18.2498L1.40625 14.7498C1.40625 14.6303 1.44875 14.5311 1.5 14.5311C1.55125 14.5311 1.59375 14.6303 1.59375 14.7498Z" fill="white"/>
<path d="M12.0001 -1.81198e-05C10.894 -1.81198e-05 10.0001 0.89259 10.0001 1.99719C10.0001 3.10179 10.894 3.99998 12.0001 3.99998C13.1062 3.99998 14.0001 3.10179 14.0001 1.99719C14.0001 0.89259 13.1062 -1.81198e-05 12.0001 -1.81198e-05Z" fill="white"/>
<path d="M11.9365 2.49719V5.49719" stroke="white" stroke-width="1.5" stroke-linecap="round" stroke-linejoin="round"/>
<path d="M21.25 15.2778L21.25 17.7219C21.25 18.7836 21.5213 19.4165 21.9763 19.4165L23.0225 19.4165C23.4788 19.4165 23.75 18.7836 23.75 17.7219L23.75 15.2807C23.75 14.219 23.4787 13.5861 23.0238 13.5861L21.9762 13.5861C21.5212 13.5832 21.25 14.2161 21.25 15.2778ZM22.5937 14.7498L22.5938 18.2498C22.5938 18.3694 22.5513 18.4686 22.5 18.4686C22.4488 18.4686 22.4063 18.3694 22.4063 18.2498L22.4062 14.7498C22.4062 14.6303 22.4487 14.5311 22.5 14.5311C22.5512 14.5311 22.5937 14.6303 22.5937 14.7498Z" fill="white"/>
</svg>
