<svg xmlns="http://www.w3.org/2000/svg" width="450" height="412" viewBox="0 0 450 412" version="1.1"><path d="M 179.500 7.095 C 170.150 7.530, 155.750 8.593, 147.500 9.456 C 139.250 10.320, 129.575 11.435, 126 11.933 C 122.425 12.432, 116.125 13.329, 112 13.928 C 107.875 14.526, 99.775 15.933, 94 17.056 C 88.225 18.178, 79 20.212, 73.500 21.576 C 68 22.939, 59.225 25.446, 54 27.146 C 48.775 28.845, 40 32.405, 34.500 35.056 C 29 37.706, 21.972 41.888, 18.882 44.348 C 15.487 47.052, 12.421 50.564, 11.132 53.226 C 9.960 55.649, 9 59.147, 9 61 C 9 62.853, 9.960 66.351, 11.132 68.774 C 12.423 71.440, 15.482 74.941, 18.882 77.645 C 21.972 80.101, 28.550 84.088, 33.500 86.505 C 38.450 88.922, 47.225 92.475, 53 94.401 C 58.775 96.327, 66.875 98.785, 71 99.864 C 75.125 100.943, 83 102.739, 88.500 103.855 C 94 104.972, 102.550 106.566, 107.500 107.397 C 112.450 108.229, 122.350 109.603, 129.500 110.452 C 136.650 111.302, 144.525 112.240, 147 112.538 C 149.475 112.836, 160.725 113.727, 172 114.519 C 183.425 115.321, 206.888 115.958, 225 115.958 C 243.671 115.958, 266.223 115.331, 278 114.485 C 289.275 113.675, 302.861 112.574, 308.190 112.038 C 313.520 111.501, 324.320 110.134, 332.190 108.999 C 340.061 107.864, 353.025 105.593, 361 103.951 C 368.975 102.309, 379.550 99.815, 384.500 98.408 C 389.450 97.001, 397.265 94.528, 401.866 92.912 C 406.467 91.296, 414.234 87.907, 419.126 85.381 C 424.018 82.854, 430.211 78.817, 432.888 76.410 C 435.566 74.003, 438.486 70.496, 439.378 68.616 C 440.270 66.736, 441 63.335, 441 61.059 C 441 58.783, 440.115 55.186, 439.034 53.067 C 437.953 50.948, 434.916 47.341, 432.284 45.052 C 429.653 42.762, 422.550 38.465, 416.500 35.502 C 410.450 32.540, 402.125 29.008, 398 27.654 C 393.875 26.300, 385.325 23.850, 379 22.209 C 372.675 20.569, 362.550 18.287, 356.500 17.139 C 350.450 15.991, 341 14.395, 335.500 13.592 C 330 12.789, 321.900 11.660, 317.500 11.083 C 313.100 10.505, 304.775 9.573, 299 9.011 C 293.225 8.448, 279.050 7.551, 267.500 7.016 C 255.950 6.481, 235.250 6.102, 221.500 6.174 C 207.750 6.245, 188.850 6.660, 179.500 7.095 M 9.569 329 C 9.863 331.475, 11.164 335.300, 12.460 337.500 C 13.756 339.700, 17.220 343.898, 20.158 346.829 C 23.096 349.760, 29.156 354.601, 33.624 357.587 C 38.092 360.573, 47.400 365.720, 54.308 369.025 C 61.215 372.329, 71.284 376.617, 76.684 378.553 C 82.083 380.490, 92.575 383.834, 100 385.985 C 107.425 388.135, 120.355 391.269, 128.734 392.949 C 137.113 394.630, 148.588 396.672, 154.234 397.489 C 159.880 398.306, 171.819 399.655, 180.765 400.487 C 190.647 401.406, 207.809 402, 224.500 402 C 241.337 402, 258.266 401.410, 268.235 400.475 C 277.181 399.637, 289.225 398.266, 295 397.428 C 300.775 396.591, 312.250 394.544, 320.500 392.880 C 328.750 391.215, 341.800 388.045, 349.500 385.834 C 357.200 383.624, 368.450 380.010, 374.500 377.804 C 380.550 375.598, 390.900 371.162, 397.500 367.946 C 404.100 364.730, 412.875 359.869, 417 357.145 C 421.125 354.420, 427.183 349.467, 430.462 346.139 C 433.741 342.811, 437.453 338.162, 438.712 335.809 C 439.970 333.456, 440.990 330.174, 440.978 328.515 C 440.956 325.522, 440.943 325.529, 439.127 329.527 C 438.120 331.742, 435.381 335.433, 433.039 337.729 C 430.697 340.025, 425.680 343.776, 421.891 346.066 C 418.102 348.355, 410.389 352.133, 404.751 354.462 C 399.113 356.790, 390.900 359.852, 386.500 361.267 C 382.100 362.683, 374.225 364.955, 369 366.318 C 363.775 367.680, 355.225 369.722, 350 370.856 C 344.775 371.989, 336.675 373.566, 332 374.359 C 327.325 375.152, 319.900 376.324, 315.500 376.963 C 311.100 377.602, 304.800 378.524, 301.500 379.011 C 298.200 379.499, 285.827 380.645, 274.003 381.559 C 257.038 382.871, 244.495 383.112, 214.503 382.703 C 190.528 382.376, 171.148 381.608, 162 380.624 C 154.025 379.765, 144.125 378.616, 140 378.070 C 135.875 377.524, 127.100 376.143, 120.500 375.002 C 113.900 373.860, 105.350 372.281, 101.500 371.492 C 97.650 370.704, 89.100 368.675, 82.500 366.983 C 75.900 365.291, 65.775 362.311, 60 360.362 C 54.225 358.412, 43.875 354.079, 37 350.733 C 26.582 345.664, 23.408 343.555, 17.942 338.075 C 14.310 334.434, 10.860 329.938, 10.209 328 L 9.035 324.500 9.569 329" stroke="none" fill="#040404" fill-rule="evenodd"/></svg>