<svg width="24" height="24" viewBox="0 0 24 24" fill="none" xmlns="http://www.w3.org/2000/svg">
<path d="M17.49 9.59989L5.6 16.7699C4.9 17.1899 4 16.6899 4 15.8699V7.86989C4 4.37989 7.77 2.19989 10.8 3.93989L15.39 6.57989L17.48 7.77989C18.17 8.18989 18.18 9.18989 17.49 9.59989Z" fill="white"/>
<path d="M18.09 15.4599L14.04 17.7999L10 20.1299C8.55 20.9599 6.91 20.7899 5.72 19.9499C5.14 19.5499 5.21 18.6599 5.82 18.2999L18.53 10.6799C19.13 10.3199 19.92 10.6599 20.03 11.3499C20.28 12.8999 19.64 14.5699 18.09 15.4599Z" fill="white"/>
</svg>
