<svg width="24" height="24" viewBox="0 0 24 24" fill="none" xmlns="http://www.w3.org/2000/svg">
<path d="M2 13.02V7C2 3 3 2 7 2H8.5C10 2 10.33 2.44 10.9 3.2L12.4 5.2C12.78 5.7 13 6 14 6H17C21 6 22 7 22 11" stroke="white" stroke-width="1.5" stroke-miterlimit="10" stroke-linecap="round" stroke-linejoin="round"/>
<path d="M9.54295 15.4648C9.58613 15.2724 9.50762 14.9977 9.37024 14.8603L8.41642 13.9065C8.11811 13.6082 8.00036 13.2902 8.08671 13.0155C8.17699 12.7407 8.45568 12.5523 8.87174 12.4817L10.0964 12.2775C10.273 12.2461 10.4889 12.0891 10.5713 11.9282L11.2465 10.574C11.4427 10.1854 11.7096 9.96954 12.0001 9.96954C12.2906 9.96954 12.5575 10.1854 12.7537 10.574L13.4289 11.9282C13.4799 12.0303 14.2344 12.4766 14.7461 12.4102L9.27344 17.4102C9.21849 17.4651 9.32314 16.4265 9.33884 16.3479L9.54295 15.4648Z" fill="white"/>
<path d="M14.6303 14.8604C14.489 15.0017 14.4105 15.2725 14.4576 15.4648L14.7284 16.6463C14.8423 17.137 14.7716 17.5059 14.5283 17.6826C14.4301 17.7532 14.3124 17.7885 14.175 17.7885C13.9748 17.7885 13.7393 17.714 13.4802 17.5609L12.3302 16.8779C12.1496 16.7719 11.8513 16.7719 11.6707 16.8779L10.5207 17.5609C10.085 17.816 9.71208 17.8592 9.47264 17.6826C9.38237 17.6158 9.31564 17.5256 9.27246 17.4078L14.0455 12.6348C14.226 12.4542 14.4576 12.4447 14.7284 12.415L15.1249 12.4817C15.541 12.5524 15.8196 12.7408 15.9099 13.0155C15.9963 13.2903 15.8785 13.6082 15.5802 13.9065L14.6303 14.8604Z" fill="white"/>
<path d="M22 14.99V17C22 21 21 22 17 22H7C3 22 2 21 2 17" stroke="white" stroke-width="1.5" stroke-miterlimit="10" stroke-linecap="round" stroke-linejoin="round"/>
</svg>
