<svg width="29" height="29" viewBox="0 0 29 29" fill="none" xmlns="http://www.w3.org/2000/svg">
<ellipse cx="15.8819" cy="16.0198" rx="9.0539" ry="14.0748" transform="rotate(-44.3491 15.8819 16.0198)" fill="#D9D9D9" stroke="white" stroke-width="1.5"/>
<path fill-rule="evenodd" clip-rule="evenodd" d="M25.1113 5.09863C25.2632 6.36269 25.3865 6.48397 26.6716 6.63346C25.3865 6.78313 25.2632 6.90442 25.1113 8.16847C24.9591 6.90442 24.8358 6.78313 23.5508 6.63346C24.8358 6.48397 24.9591 6.36269 25.1113 5.09863Z" fill="white"/>
<path fill-rule="evenodd" clip-rule="evenodd" d="M15.7833 9.68054C16.4066 14.8655 16.9124 15.3631 22.1835 15.9762C16.9124 16.5902 16.4066 17.0877 15.7833 22.2727C15.1592 17.0877 14.6534 16.5902 9.38232 15.9762C14.6534 15.3631 15.1592 14.8655 15.7833 9.68054Z" fill="black"/>
</svg>
