<svg width="24" height="24" viewBox="0 0 24 24" fill="none" xmlns="http://www.w3.org/2000/svg">
<path opacity="0.4" d="M15.48 3H7.52C4.07 3 2 5.06 2 8.52V16.47C2 19.94 4.07 22 7.52 22H15.47C18.93 22 20.99 19.94 20.99 16.48V8.52C21 5.06 18.93 3 15.48 3Z" fill="white"/>
<path d="M21.02 2.97997C19.23 1.17997 17.48 1.13997 15.64 2.97997L14.51 4.09997C14.41 4.19997 14.38 4.33997 14.42 4.46997C15.12 6.91997 17.08 8.87997 19.53 9.57997C19.56 9.58997 19.61 9.58997 19.64 9.58997C19.74 9.58997 19.84 9.54997 19.91 9.47997L21.02 8.35997C21.93 7.44997 22.38 6.57997 22.38 5.68997C22.38 4.78997 21.93 3.89997 21.02 2.97997Z" fill="white"/>
<path d="M17.8601 10.42C17.5901 10.29 17.3301 10.16 17.0901 10.01C16.8901 9.89003 16.6901 9.76003 16.5001 9.62003C16.3401 9.52003 16.1601 9.37003 15.9801 9.22003C15.9601 9.21003 15.9001 9.16003 15.8201 9.08003C15.5101 8.83003 15.1801 8.49003 14.8701 8.12003C14.8501 8.10003 14.7901 8.04003 14.7401 7.95003C14.6401 7.84003 14.4901 7.65003 14.3601 7.44003C14.2501 7.30003 14.1201 7.10003 14.0001 6.89003C13.8501 6.64003 13.7201 6.39003 13.6001 6.13003C13.4701 5.85003 13.3701 5.59003 13.2801 5.34003L7.9001 10.72C7.5501 11.07 7.2101 11.73 7.1401 12.22L6.7101 15.2C6.6201 15.83 6.7901 16.42 7.1801 16.81C7.5101 17.14 7.9601 17.31 8.4601 17.31C8.5701 17.31 8.6801 17.3 8.7901 17.29L11.7601 16.87C12.2501 16.8 12.9101 16.47 13.2601 16.11L18.6401 10.73C18.3901 10.65 18.1401 10.54 17.8601 10.42Z" fill="white"/>
</svg>
