<svg width="29" height="29" viewBox="0 0 29 29" fill="none" xmlns="http://www.w3.org/2000/svg">
<path fill-rule="evenodd" clip-rule="evenodd" d="M25.1113 5.09863C25.2632 6.36269 25.3865 6.48397 26.6716 6.63346C25.3865 6.78313 25.2632 6.90442 25.1113 8.16847C24.9591 6.90442 24.8358 6.78313 23.5508 6.63346C24.8358 6.48397 24.9591 6.36269 25.1113 5.09863Z" fill="white"/>
<path d="M15.8164 8.60547C15.9402 9.31049 16.0751 9.94724 16.2314 10.5215C16.6177 11.9394 17.1416 13.0225 17.9678 13.8486C18.7939 14.6748 19.877 15.1988 21.2949 15.585C21.8689 15.7413 22.5054 15.8753 23.21 15.999C22.5053 16.1229 21.8689 16.2577 21.2949 16.4141C19.8769 16.8005 18.7939 17.3251 17.9678 18.1514C17.1417 18.9776 16.6176 20.0606 16.2314 21.4785C16.0751 22.0525 15.9402 22.6889 15.8164 23.3936C15.6926 22.6889 15.5587 22.0525 15.4023 21.4785C15.0159 20.0604 14.4913 18.9776 13.665 18.1514C12.8388 17.3251 11.756 16.8005 10.3379 16.4141C9.76361 16.2576 9.12693 16.1229 8.42188 15.999C9.12683 15.8752 9.76368 15.7413 10.3379 15.585C11.7558 15.1988 12.8388 14.6747 13.665 13.8486C14.4913 13.0225 15.0159 11.9395 15.4023 10.5215C15.5588 9.94726 15.6925 9.31046 15.8164 8.60547Z" stroke="white"/>
<path d="M5.51855 5.41867C7.55059 3.43228 10.568 2.98639 13.6709 3.69699C16.7828 4.40975 20.0905 6.30035 22.8926 9.16672C25.6946 12.0332 27.5095 15.3832 28.1514 18.5105C28.7912 21.6286 28.2769 24.6344 26.2451 26.6208C24.2131 28.6071 21.1965 29.053 18.0937 28.3425C14.9819 27.6298 11.6742 25.74 8.87206 22.8737C6.06985 20.0071 4.25416 16.6565 3.6123 13.529C2.97243 10.4109 3.48673 7.40504 5.51855 5.41867ZM13.3359 5.1589C10.5346 4.51738 8.11104 4.98293 6.56737 6.49191C5.02402 8.00092 4.50338 10.4134 5.08105 13.2282C5.65699 16.0339 7.31305 19.1332 9.94433 21.8249C12.5755 24.5164 15.636 26.2411 18.4277 26.8806C21.2289 27.5221 23.6526 27.0574 25.1963 25.5486C26.7399 24.0396 27.2602 21.6272 26.6826 18.8122C26.1068 16.0066 24.4515 12.9074 21.8203 10.2155C19.1889 7.52366 16.1279 5.79836 13.3359 5.1589Z" fill="white"/>
</svg>
