<svg width="29" height="29" viewBox="0 0 29 29" fill="none" xmlns="http://www.w3.org/2000/svg">
<path fill-rule="evenodd" clip-rule="evenodd" d="M25.1113 5.09863C25.2632 6.36269 25.3865 6.48397 26.6716 6.63346C25.3865 6.78313 25.2632 6.90442 25.1113 8.16847C24.9591 6.90442 24.8358 6.78313 23.5508 6.63346C24.8358 6.48397 24.9591 6.36269 25.1113 5.09863Z" fill="white"/>
<path d="M15.8228 12.8993C16.0532 13.7316 16.3731 14.3907 16.8901 14.8993C17.4065 15.4072 18.0751 15.7202 18.9185 15.9462C18.9579 15.9567 18.9982 15.9652 19.0386 15.9755C18.9979 15.9858 18.9572 15.9961 18.9175 16.0067C18.0744 16.2327 17.4064 16.5458 16.8901 17.0536C16.3731 17.5623 16.0532 18.2221 15.8228 19.0546C15.8088 19.1051 15.7961 19.1567 15.7827 19.2089C15.7693 19.1567 15.7567 19.1051 15.7427 19.0546C15.5121 18.2222 15.1934 17.5622 14.6763 17.0536C14.1598 16.5456 13.4914 16.2328 12.6479 16.0067C12.6082 15.9961 12.5676 15.9868 12.5269 15.9764C12.5676 15.9661 12.6082 15.9568 12.6479 15.9462C13.4914 15.7202 14.1598 15.4072 14.6763 14.8993C15.1932 14.3908 15.5121 13.7314 15.7427 12.8993C15.7568 12.8483 15.7692 12.7957 15.7827 12.743C15.7963 12.7957 15.8086 12.8483 15.8228 12.8993Z" stroke="white"/>
<path fill-rule="evenodd" clip-rule="evenodd" d="M5.08164 13.2274C5.65745 16.0333 7.31248 19.1326 9.94398 21.8245C12.5755 24.5165 15.6363 26.2415 18.4284 26.8809C21.2297 27.5224 23.6528 27.0573 25.1965 25.5483C26.7401 24.0394 27.2602 21.6274 26.6824 18.8123C26.1066 16.0064 24.4516 12.9072 21.8201 10.2152C19.1886 7.52323 16.1277 5.79822 13.3357 5.15881C10.5344 4.51729 8.11127 4.98239 6.56761 6.49138C5.02395 8.00036 4.50392 10.4123 5.08164 13.2274ZM3.61226 13.529C2.97234 10.4107 3.48703 7.40513 5.51907 5.41874C7.55111 3.43235 10.5676 2.98607 13.6705 3.69666C16.7827 4.40937 20.0905 6.29999 22.8927 9.16665C25.695 12.0333 27.51 15.3832 28.1518 18.5107C28.7917 21.629 28.2771 24.6346 26.245 26.621C24.213 28.6074 21.1964 29.0537 18.0935 28.3431C14.9814 27.6304 11.6736 25.7397 8.87134 22.8731C6.06907 20.0064 4.25409 16.6565 3.61226 13.529Z" fill="white"/>
</svg>
