<svg width="26" height="26" viewBox="0 0 26 26" fill="none" xmlns="http://www.w3.org/2000/svg">
<ellipse cx="12.5284" cy="12.6402" rx="9.0539" ry="14.0748" transform="rotate(-44.3491 12.5284 12.6402)" stroke="white" stroke-width="1.5"/>
<path fill-rule="evenodd" clip-rule="evenodd" d="M21.7578 1.71899C21.9097 2.98305 22.033 3.10433 23.3181 3.25382C22.033 3.40349 21.9097 3.52478 21.7578 4.78883C21.6056 3.52478 21.4823 3.40349 20.1973 3.25382C21.4823 3.10433 21.6056 2.98305 21.7578 1.71899Z" fill="white"/>
<path fill-rule="evenodd" clip-rule="evenodd" d="M12.4298 6.3009C13.0531 11.4859 13.5589 11.9834 18.83 12.5966C13.5589 13.2105 13.0531 13.708 12.4298 18.8931C11.8056 13.708 11.2999 13.2105 6.02881 12.5966C11.2999 11.9834 11.8056 11.4859 12.4298 6.3009Z" fill="white"/>
</svg>
