<svg width="69" height="69" viewBox="0 0 69 69" fill="none" xmlns="http://www.w3.org/2000/svg">
<path d="M59.3561 3.87634C59.891 7.99455 60.3265 8.38859 64.8555 8.87575C60.3265 9.36291 59.891 9.75813 59.3561 13.8763C58.8199 9.75813 58.3844 9.36291 53.8555 8.87575C58.3844 8.38859 58.8199 7.99455 59.3561 3.87634Z" fill="black"/>
<path d="M33.9991 14.2559C34.3371 16.1789 34.7041 17.9159 35.1311 19.4829C36.1851 23.3509 37.6141 26.3059 39.8681 28.5589C42.1221 30.8129 45.0762 32.2429 48.9452 33.2959C50.5102 33.7229 52.2472 34.0879 54.1692 34.4259C52.2472 34.7639 50.5102 35.1309 48.9452 35.5579C45.0762 36.6119 42.1221 38.0429 39.8681 40.2969C37.6141 42.5509 36.1851 45.5059 35.1311 49.3739C34.7051 50.9399 34.3371 52.6759 33.9991 54.5979C33.6611 52.6759 33.2961 50.9399 32.8691 49.3739C31.8151 45.5049 30.3842 42.5509 28.1302 40.2969C25.8762 38.0429 22.9221 36.6119 19.0541 35.5579C17.4871 35.1309 15.7501 34.7639 13.8271 34.4259C15.7501 34.0879 17.4871 33.7229 19.0541 33.2959C22.9221 32.2429 25.8762 30.8129 28.1302 28.5589C30.3842 26.3059 31.8151 23.3509 32.8691 19.4829C33.2961 17.9159 33.6611 16.1789 33.9991 14.2559Z" fill="black"/>
<path d="M5.90623 5.56181C11.4502 0.142811 19.6812 -1.07319 28.1462 0.864813C36.6352 2.80981 45.6592 7.96681 53.3032 15.7868C60.9472 23.6068 65.8982 32.7458 67.6492 41.2768C69.3952 49.7828 67.9922 57.9828 62.4492 63.4018C56.9052 68.8208 48.6762 70.0368 40.2122 68.0988C31.7222 66.1548 22.6992 60.9988 15.0552 53.1798C7.41022 45.3598 2.45722 36.2188 0.706222 27.6868C-1.03978 19.1808 0.363235 10.9808 5.90623 5.56181ZM27.2322 4.85381C19.5902 3.10281 12.9792 4.37281 8.76723 8.48981C4.55723 12.6068 3.13721 19.1878 4.71321 26.8668C6.28421 34.5208 10.8022 42.9758 17.9802 50.3188C25.1582 57.6608 33.5072 62.3658 41.1232 64.1108C48.7642 65.8608 55.3762 64.5928 59.5882 60.4768C63.7992 56.3608 65.2182 49.7798 63.6422 42.0998C62.0722 34.4458 57.5562 25.9918 50.3782 18.6478C43.1992 11.3048 34.8492 6.59781 27.2322 4.85381Z" fill="black"/>
<path d="M7.70763 7.22396C12.8984 2.11642 20.6049 0.970305 28.5305 2.79692C36.4786 4.63013 44.9276 9.49074 52.0846 16.8613C59.2415 24.2318 63.8771 32.8456 65.5165 40.8863C67.1512 48.9034 65.8377 56.6321 60.6478 61.7397C55.4571 66.8472 47.7524 67.9933 39.8277 66.1667C31.8787 64.3344 23.4306 59.4748 16.2737 52.1052C9.11578 44.7346 4.47838 36.119 2.83895 28.0773C1.2042 20.0602 2.51781 12.3315 7.70763 7.22396ZM27.6748 6.55665C20.5197 4.90629 14.3299 6.1033 10.3863 9.98368C6.44457 13.8641 5.11504 20.0668 6.59062 27.3045C8.06152 34.5186 12.2916 42.4876 19.0123 49.4086C25.7329 56.3286 33.5499 60.7632 40.6807 62.4079C47.8348 64.0573 54.0255 62.8622 57.9691 58.9828C61.9118 55.1033 63.2404 48.9006 61.7648 41.662C60.2949 34.4479 56.0666 26.4798 49.346 19.5579C42.6244 12.6369 34.8064 8.20042 27.6748 6.55665Z" fill="black"/>
</svg>
