<svg width="24" height="24" viewBox="0 0 24 24" fill="none" xmlns="http://www.w3.org/2000/svg">
<path d="M18.07 10.3199C17.88 10.3199 17.69 10.2499 17.54 10.0999L12 4.55994L6.46 10.0999C6.17 10.3899 5.69 10.3899 5.4 10.0999C5.11 9.80994 5.11 9.32994 5.4 9.03994L11.47 2.96994C11.76 2.67994 12.24 2.67994 12.53 2.96994L18.6 9.03994C18.89 9.32994 18.89 9.80994 18.6 10.0999C18.46 10.2499 18.26 10.3199 18.07 10.3199Z" fill="white"/>
<path d="M12 21.25C11.59 21.25 11.25 20.91 11.25 20.5V3.67004C11.25 3.26004 11.59 2.92004 12 2.92004C12.41 2.92004 12.75 3.26004 12.75 3.67004V20.5C12.75 20.91 12.41 21.25 12 21.25Z" fill="white"/>
</svg>
