<svg width="69" height="69" viewBox="0 0 69 69" fill="none" xmlns="http://www.w3.org/2000/svg">
<path d="M59.3561 4.68884C59.7701 8.13784 60.1071 8.46785 63.6121 8.87585C60.1071 9.28385 59.7701 9.61484 59.3561 13.0638C58.9411 9.61484 58.6041 9.28385 55.0991 8.87585C58.6041 8.46785 58.9411 8.13784 59.3561 4.68884Z" fill="black"/>
<path d="M33.9992 14.2559C34.3372 16.1789 34.7042 17.9159 35.1312 19.4829C36.1852 23.3509 37.6142 26.3059 39.8682 28.5589C42.1222 30.8129 45.0762 32.2429 48.9442 33.2959C50.5102 33.7229 52.2472 34.0879 54.1692 34.4259C52.2472 34.7639 50.5102 35.1309 48.9442 35.5579C45.0762 36.6119 42.1222 38.0429 39.8682 40.2969C37.6142 42.5509 36.1852 45.5059 35.1312 49.3739C34.7052 50.9399 34.3372 52.6759 33.9992 54.5979C33.6612 52.6759 33.2962 50.9399 32.8692 49.3739C31.8152 45.5049 30.3842 42.5509 28.1302 40.2969C25.8762 38.0429 22.9222 36.6119 19.0532 35.5579C17.4872 35.1309 15.7502 34.7639 13.8262 34.4259C15.7502 34.0879 17.4872 33.7229 19.0532 33.2959C22.9222 32.2429 25.8762 30.8129 28.1302 28.5589C30.3842 26.3059 31.8152 23.3509 32.8692 19.4829C33.2962 17.9159 33.6612 16.1789 33.9992 14.2559Z" fill="black"/>
<path d="M5.90622 5.56181C11.4502 0.142811 19.6812 -1.07319 28.1462 0.864813C36.6352 2.80981 45.6592 7.96681 53.3032 15.7868C60.9472 23.6068 65.8982 32.7458 67.6492 41.2768C69.3952 49.7828 67.9922 57.9828 62.4492 63.4018C56.9052 68.8208 48.6762 70.0368 40.2122 68.0988C31.7222 66.1548 22.6992 60.9988 15.0552 53.1798C7.41022 45.3598 2.45723 36.2188 0.706225 27.6868C-1.03978 19.1808 0.363222 10.9808 5.90622 5.56181ZM27.2322 4.85381C19.5902 3.10281 12.9792 4.37281 8.76723 8.48981C4.55723 12.6068 3.13723 19.1878 4.71323 26.8668C6.28423 34.5208 10.8022 42.9758 17.9802 50.3188C25.1582 57.6608 33.5072 62.3658 41.1232 64.1108C48.7642 65.8608 55.3762 64.5928 59.5882 60.4768C63.7992 56.3608 65.2182 49.7798 63.6422 42.0998C62.0722 34.4458 57.5562 25.9918 50.3782 18.6478C43.1992 11.3048 34.8492 6.59781 27.2322 4.85381Z" fill="black"/>
</svg>
