<svg width="24" height="24" viewBox="0 0 24 24" fill="none" xmlns="http://www.w3.org/2000/svg">
<path d="M16.61 20C17.95 20.01 19.24 19.51 20.23 18.61C23.5 15.75 21.75 10.01 17.44 9.47001C15.9 0.13001 2.42998 3.67001 5.61998 12.56" stroke="white" stroke-width="1.5" stroke-miterlimit="10" stroke-linecap="round" stroke-linejoin="round"/>
<path d="M7.27999 12.97C6.74999 12.7 6.15999 12.56 5.56999 12.57C0.909986 12.9 0.919986 19.68 5.56999 20.01" stroke="white" stroke-width="1.5" stroke-miterlimit="10" stroke-linecap="round" stroke-linejoin="round"/>
<path d="M15.8199 9.88998C16.3399 9.62998 16.8999 9.48998 17.4799 9.47998" stroke="white" stroke-width="1.5" stroke-miterlimit="10" stroke-linecap="round" stroke-linejoin="round"/>
<path d="M9.22995 19.16H10.23V21.49C10.23 21.83 10.66 22 10.88 21.74L13.33 18.95C13.63 18.61 13.5 18.33 13.05 18.33H12.05V16C12.05 15.66 11.62 15.49 11.4 15.75L8.94995 18.54C8.64995 18.88 8.77995 19.16 9.22995 19.16Z" stroke="white" stroke-width="1.5" stroke-miterlimit="10" stroke-linecap="round" stroke-linejoin="round"/>
</svg>
