<svg width="33" height="33" viewBox="0 0 33 33" fill="none" xmlns="http://www.w3.org/2000/svg">
<ellipse cx="16.3131" cy="16.3937" rx="9.0539" ry="14.0748" transform="rotate(-44.3491 16.3131 16.3937)" stroke="white" stroke-width="1.5"/>
<path fill-rule="evenodd" clip-rule="evenodd" d="M25.5424 5.47253C25.6944 6.73659 25.8177 6.85787 27.1027 7.00736C25.8177 7.15703 25.6944 7.27832 25.5424 8.54237C25.3903 7.27832 25.267 7.15703 23.9819 7.00736C25.267 6.85787 25.3903 6.73659 25.5424 5.47253Z" fill="white"/>
<path fill-rule="evenodd" clip-rule="evenodd" d="M16.2145 10.0544C16.8378 15.2394 17.3436 15.737 22.6146 16.3501C17.3436 16.9641 16.8378 17.4616 16.2145 22.6466C15.5903 17.4616 15.0845 16.9641 9.81348 16.3501C15.0845 15.737 15.5903 15.2394 16.2145 10.0544Z" fill="white"/>
</svg>
