<svg width="24" height="24" viewBox="0 0 24 24" fill="none" xmlns="http://www.w3.org/2000/svg">
<path d="M15.03 10.77L20.69 6.98001C21.26 6.60001 21.41 5.82001 21.03 5.26001L19.21 2.54999C18.83 1.97999 18.05 1.82999 17.49 2.20999L11.83 6L15.03 10.77Z" stroke="white" stroke-width="1.5" stroke-linecap="round" stroke-linejoin="round"/>
<path d="M12.1739 6.47923L7.39618 9.67911L9.95608 13.5013L14.7338 10.3014L12.1739 6.47923Z" stroke="white" stroke-width="1.5" stroke-linecap="round" stroke-linejoin="round"/>
<path d="M5.83001 15.9L9.78001 13.26L7.54001 9.92001L3.59001 12.56C3.13001 12.87 3.01001 13.49 3.32001 13.95L4.45001 15.63C4.75001 16.08 5.37001 16.2 5.83001 15.9Z" stroke="white" stroke-width="1.5" stroke-linecap="round" stroke-linejoin="round"/>
<path d="M12.05 12.2L7.56 22" stroke="white" stroke-width="1.5" stroke-linecap="round" stroke-linejoin="round"/>
<path d="M12 12.2L16.44 22" stroke="white" stroke-width="1.5" stroke-linecap="round" stroke-linejoin="round"/>
</svg>
