<svg width="24" height="24" viewBox="0 0 24 24" fill="none" xmlns="http://www.w3.org/2000/svg">
<path d="M12 9.32C13.19 9.32 14.16 8.35 14.16 7.16C14.16 5.97 13.19 5 12 5C10.81 5 9.83997 5.97 9.83997 7.16C9.83997 8.35 10.81 9.32 12 9.32Z" stroke="white" stroke-width="1.5" stroke-linecap="round" stroke-linejoin="round"/>
<path d="M6.79 19.0001C7.98 19.0001 8.95 18.0301 8.95 16.8401C8.95 15.6501 7.98 14.6801 6.79 14.6801C5.6 14.6801 4.63 15.6501 4.63 16.8401C4.63 18.0301 5.59 19.0001 6.79 19.0001Z" stroke="white" stroke-width="1.5" stroke-linecap="round" stroke-linejoin="round"/>
<path d="M17.21 19.0001C18.4 19.0001 19.37 18.0301 19.37 16.8401C19.37 15.6501 18.4 14.6801 17.21 14.6801C16.02 14.6801 15.05 15.6501 15.05 16.8401C15.05 18.0301 16.02 19.0001 17.21 19.0001Z" stroke="white" stroke-width="1.5" stroke-linecap="round" stroke-linejoin="round"/>
</svg>
