<svg width="24" height="24" viewBox="0 0 24 24" fill="none" xmlns="http://www.w3.org/2000/svg">
<path d="M6.28 22C8.00313 22 9.4 20.6031 9.4 18.88C9.4 17.1569 8.00313 15.76 6.28 15.76C4.55688 15.76 3.16 17.1569 3.16 18.88C3.16 20.6031 4.55688 22 6.28 22Z" stroke="white" stroke-width="1.5" stroke-linecap="round" stroke-linejoin="round"/>
<path d="M20.84 16.8001V4.60009C20.84 2.00009 19.21 1.64009 17.56 2.09009L11.32 3.79009C10.18 4.10009 9.39999 5.00009 9.39999 6.30009V8.47009V9.93009V18.8701" stroke="white" stroke-width="1.5" stroke-linecap="round" stroke-linejoin="round"/>
<path d="M17.72 19.9199C19.4431 19.9199 20.84 18.5231 20.84 16.7999C20.84 15.0768 19.4431 13.6799 17.72 13.6799C15.9969 13.6799 14.6 15.0768 14.6 16.7999C14.6 18.5231 15.9969 19.9199 17.72 19.9199Z" stroke="white" stroke-width="1.5" stroke-linecap="round" stroke-linejoin="round"/>
<path d="M9.39999 9.5199L20.84 6.3999" stroke="white" stroke-width="1.5" stroke-linecap="round" stroke-linejoin="round"/>
</svg>
