<?xml version="1.0" standalone="no"?>
<!DOCTYPE svg PUBLIC "-//W3C//DTD SVG 20010904//EN"
 "http://www.w3.org/TR/2001/REC-SVG-20010904/DTD/svg10.dtd">
<svg version="1.0" xmlns="http://www.w3.org/2000/svg"
 width="900.000000pt" height="900.000000pt" viewBox="0 0 900.000000 900.000000"
 preserveAspectRatio="xMidYMid meet">
<metadata>
Created by potrace 1.14, written by Peter Selinger 2001-2017
</metadata>
<g transform="translate(0.000000,900.000000) scale(0.100000,-0.100000)"
fill="#000000" stroke="none">
<path d="M3935 7944 c-27 -2 -129 -8 -225 -14 -556 -34 -901 -73 -1375 -155
-459 -79 -931 -222 -1189 -358 -222 -118 -336 -229 -371 -362 -14 -53 -14 -65
0 -120 9 -33 27 -78 42 -99 106 -162 381 -317 788 -446 98 -31 329 -94 385
-105 19 -3 87 -18 150 -32 63 -14 153 -31 200 -38 47 -7 137 -23 200 -34 199
-35 652 -87 895 -101 105 -6 200 -13 213 -15 13 -2 143 -9 290 -16 347 -15
1170 -7 1457 15 116 9 272 21 349 26 174 12 512 53 721 86 88 14 196 32 240
39 108 17 384 78 525 115 519 138 871 318 995 507 57 88 63 199 15 293 -23 46
-122 148 -185 192 -139 96 -324 182 -560 259 -99 33 -390 114 -445 124 -19 3
-71 15 -115 25 -273 66 -873 148 -1305 180 -80 6 -206 15 -280 21 -125 10
-1302 21 -1415 13z"/>
<path d="M770 2373 c1 -299 536 -682 1309 -939 370 -123 850 -235 1191 -279
63 -8 165 -21 225 -29 498 -67 1370 -74 1895 -15 208 23 481 61 595 84 66 13
140 26 165 30 25 4 101 20 170 36 571 135 1013 294 1362 489 196 110 321 203
434 322 107 113 161 222 152 309 l-4 34 -12 -43 c-49 -164 -228 -306 -587
-465 -323 -143 -967 -313 -1446 -381 -57 -9 -149 -22 -204 -31 -136 -21 -536
-61 -807 -81 -274 -20 -1084 -23 -1348 -5 -292 20 -683 60 -905 92 -1214 176
-2071 520 -2165 868 -13 51 -20 52 -20 4z"/>
</g>
</svg>
