<svg width="24" height="24" viewBox="0 0 24 24" fill="none" xmlns="http://www.w3.org/2000/svg">
<path d="M20.89 10.5301C20.48 10.5301 20.14 10.1901 20.14 9.78007V6.91008L12 2.84007L3.85999 6.91008V9.78007C3.85999 10.1901 3.51999 10.5301 3.10999 10.5301C2.69999 10.5301 2.35999 10.1901 2.35999 9.78007V6.45007C2.35999 6.17007 2.52003 5.91007 2.78003 5.78007L11.67 1.34007C11.88 1.23007 12.13 1.23007 12.34 1.34007L21.23 5.78007C21.48 5.91007 21.65 6.17007 21.65 6.45007V9.78007C21.64 10.1901 21.3 10.5301 20.89 10.5301Z" fill="white"/>
<path d="M12 22.75C11.88 22.75 11.77 22.72 11.67 22.67L2.78003 18.23C2.53003 18.1 2.35999 17.84 2.35999 17.56V14.23C2.35999 13.82 2.69999 13.48 3.10999 13.48C3.51999 13.48 3.85999 13.82 3.85999 14.23V17.1L12 21.17L20.14 17.1V14.23C20.14 13.82 20.48 13.48 20.89 13.48C21.3 13.48 21.64 13.82 21.64 14.23V17.56C21.64 17.84 21.48 18.1 21.22 18.23L12.33 22.67C12.23 22.72 12.12 22.75 12 22.75Z" fill="white"/>
<path d="M12 22.7499C11.59 22.7499 11.25 22.4099 11.25 21.9999V16.4399C11.25 16.0299 11.59 15.6899 12 15.6899C12.41 15.6899 12.75 16.0299 12.75 16.4399V21.9999C12.75 22.4099 12.41 22.7499 12 22.7499Z" fill="white"/>
<path d="M12.0001 17.1901C9.14006 17.1901 6.81006 14.8601 6.81006 12.0001C6.81006 9.14006 9.14006 6.81006 12.0001 6.81006C14.8601 6.81006 17.1901 9.14006 17.1901 12.0001C17.1901 14.8601 14.8601 17.1901 12.0001 17.1901ZM12.0001 8.31006C9.96006 8.31006 8.31006 9.97006 8.31006 12.0001C8.31006 14.0301 9.97006 15.6901 12.0001 15.6901C14.0301 15.6901 15.6901 14.0301 15.6901 12.0001C15.6901 9.97006 14.0401 8.31006 12.0001 8.31006Z" fill="white"/>
</svg>
