<svg width="24" height="24" viewBox="0 0 24 24" fill="none" xmlns="http://www.w3.org/2000/svg">
<path d="M8.34003 10.8299C8.02003 10.8299 7.70003 10.7099 7.46003 10.4599L5.73005 8.72988C5.24005 8.23988 5.24005 7.44988 5.73005 6.95988L10.88 1.80988C11.37 1.31988 12.16 1.31988 12.65 1.80988L14.38 3.53988C14.87 4.02988 14.87 4.81988 14.38 5.30988L9.23005 10.4599C8.98005 10.7099 8.66003 10.8299 8.34003 10.8299ZM6.96003 7.84988L8.34003 9.22988L13.13 4.43988L11.75 3.05988L6.96003 7.84988Z" fill="white"/>
<path d="M8.34003 18.64C8.02003 18.64 7.70003 18.52 7.46003 18.27L5.73005 16.54C5.24005 16.05 5.24005 15.26 5.73005 14.77L14.78 5.72004C15.27 5.23004 16.06 5.23004 16.55 5.72004L18.28 7.45004C18.77 7.94004 18.77 8.73004 18.28 9.22004L9.23005 18.27C8.98005 18.52 8.66003 18.64 8.34003 18.64ZM6.96003 15.66L8.34003 17.04L17.04 8.34004L15.66 6.96004L6.96003 15.66Z" fill="white"/>
<path d="M12.24 22.5399C11.92 22.5399 11.6 22.4199 11.36 22.1699L9.63001 20.4399C9.14001 19.9499 9.14001 19.1599 9.63001 18.6699L18.68 9.61994C19.17 9.12994 19.96 9.12994 20.45 9.61994L22.18 11.3499C22.67 11.8399 22.67 12.6299 22.18 13.1199L13.13 22.1699C12.88 22.4199 12.56 22.5399 12.24 22.5399ZM10.87 19.5599L12.25 20.9399L20.95 12.2399L19.57 10.8599L10.87 19.5599Z" fill="white"/>
<path d="M4.44004 14.74C4.12004 14.74 3.80004 14.62 3.56004 14.38L1.83002 12.65C1.34002 12.16 1.34002 11.37 1.83002 10.88L3.56004 9.14997C4.05004 8.65997 4.84002 8.65997 5.33002 9.14997L7.06004 10.88C7.55004 11.37 7.55004 12.16 7.06004 12.65L5.33002 14.38C5.08002 14.62 4.76004 14.74 4.44004 14.74ZM3.06004 11.76L4.44004 13.14L5.82004 11.76L4.44004 10.38L3.06004 11.76Z" fill="white"/>
</svg>
