<svg width="24" height="24" viewBox="0 0 24 24" fill="none" xmlns="http://www.w3.org/2000/svg">
<path d="M16 10.7499C15.81 10.7499 15.62 10.6799 15.47 10.5299L12 7.05994L8.53 10.5299C8.24 10.8199 7.76 10.8199 7.47 10.5299L5.47 8.52994C5.18 8.23994 5.18 7.75994 5.47 7.46994L11.47 1.46994C11.76 1.17994 12.24 1.17994 12.53 1.46994L18.53 7.46994C18.82 7.75994 18.82 8.23994 18.53 8.52994L16.53 10.5299C16.38 10.6799 16.19 10.7499 16 10.7499ZM12 5.24994C12.19 5.24994 12.38 5.31994 12.53 5.46994L16 8.93994L16.94 7.99994L12 3.05994L7.06 7.99994L8 8.93994L11.47 5.46994C11.62 5.31994 11.81 5.24994 12 5.24994Z" fill="white"/>
<path d="M12 22.7499C11.81 22.7499 11.62 22.6799 11.47 22.5299L5.47 16.5299C5.18 16.2399 5.18 15.7599 5.47 15.4699L7.47 13.4699C7.76 13.1799 8.24 13.1799 8.53 13.4699L12 16.9399L15.47 13.4699C15.76 13.1799 16.24 13.1799 16.53 13.4699L18.53 15.4699C18.82 15.7599 18.82 16.2399 18.53 16.5299L12.53 22.5299C12.38 22.6799 12.19 22.7499 12 22.7499ZM7.06 15.9999L12 20.9399L16.94 15.9999L16 15.0599L12.53 18.5299C12.24 18.8199 11.76 18.8199 11.47 18.5299L8 15.0599L7.06 15.9999Z" fill="white"/>
<path d="M19.75 14.9999C19.56 14.9999 19.37 14.9299 19.22 14.7799L16.97 12.5299C16.68 12.2399 16.68 11.7599 16.97 11.4699L19.22 9.21994C19.51 8.92994 19.99 8.92994 20.28 9.21994L22.53 11.4699C22.82 11.7599 22.82 12.2399 22.53 12.5299L20.28 14.7799C20.13 14.9299 19.94 14.9999 19.75 14.9999ZM18.56 11.9999L19.75 13.1899L20.94 11.9999L19.75 10.8099L18.56 11.9999Z" fill="white"/>
<path d="M4.25 14.9999C4.06 14.9999 3.87 14.9299 3.72 14.7799L1.47 12.5299C1.18 12.2399 1.18 11.7599 1.47 11.4699L3.72 9.21994C4.01 8.92994 4.49 8.92994 4.78 9.21994L7.03 11.4699C7.32 11.7599 7.32 12.2399 7.03 12.5299L4.78 14.7799C4.63 14.9299 4.44 14.9999 4.25 14.9999ZM3.06 11.9999L4.25 13.1899L5.44 11.9999L4.25 10.8099L3.06 11.9999Z" fill="white"/>
<path d="M12 15.23C11.81 15.23 11.62 15.16 11.47 15.01L8.99002 12.53C8.70002 12.24 8.70002 11.76 8.99002 11.47L11.47 8.98996C11.76 8.69996 12.24 8.69996 12.53 8.98996L15.01 11.47C15.3 11.76 15.3 12.24 15.01 12.53L12.53 15.01C12.38 15.15 12.19 15.23 12 15.23ZM10.58 12L12 13.42L13.42 12L12 10.58L10.58 12Z" fill="white"/>
</svg>
