<svg width="24" height="24" viewBox="0 0 24 24" fill="none" xmlns="http://www.w3.org/2000/svg">
<path d="M12 22.75C6.07 22.75 1.25 17.93 1.25 12C1.25 6.07 6.07 1.25 12 1.25C17.93 1.25 22.75 6.07 22.75 12C22.75 17.93 17.93 22.75 12 22.75ZM12 2.75C6.9 2.75 2.75 6.9 2.75 12C2.75 17.1 6.9 21.25 12 21.25C17.1 21.25 21.25 17.1 21.25 12C21.25 6.9 17.1 2.75 12 2.75Z" fill="white"/>
<path d="M14.2 12.7499H8.78C8.37 12.7499 8.03 12.4099 8.03 11.9999V7.66992C8.03 7.25992 8.37 6.91992 8.78 6.91992H14.2C15.75 6.91992 17.12 8.27992 17.12 9.83992C17.12 11.4399 15.81 12.7499 14.2 12.7499ZM9.53 11.2499H14.2C14.98 11.2499 15.62 10.6099 15.62 9.82992C15.62 9.16992 15 8.40992 14.2 8.40992H9.53V11.2499Z" fill="white"/>
<path d="M14.97 17.08H8.78C8.37 17.08 8.03 16.74 8.03 16.33V12C8.03 11.59 8.37 11.25 8.78 11.25H14.97C16.75 11.25 18.2 12.56 18.2 14.17C18.2 15.78 16.75 17.08 14.97 17.08ZM9.53 15.58H14.97C15.92 15.58 16.7 14.94 16.7 14.16C16.7 13.38 15.93 12.74 14.97 12.74H9.53V15.58Z" fill="white"/>
<path d="M12.57 19.2501C12.16 19.2501 11.82 18.9101 11.82 18.5001V16.3301C11.82 15.9201 12.16 15.5801 12.57 15.5801C12.98 15.5801 13.32 15.9201 13.32 16.3301V18.5001C13.32 18.9101 12.99 19.2501 12.57 19.2501Z" fill="white"/>
<path d="M9.87 19.2501C9.46 19.2501 9.12 18.9101 9.12 18.5001V16.3301C9.12 15.9201 9.46 15.5801 9.87 15.5801C10.28 15.5801 10.62 15.9201 10.62 16.3301V18.5001C10.62 18.9101 10.28 19.2501 9.87 19.2501Z" fill="white"/>
<path d="M12.57 8.42C12.16 8.42 11.82 8.08 11.82 7.67V5.5C11.82 5.09 12.16 4.75 12.57 4.75C12.98 4.75 13.32 5.09 13.32 5.5V7.67C13.32 8.08 12.99 8.42 12.57 8.42Z" fill="white"/>
<path d="M9.87 8.42C9.46 8.42 9.12 8.08 9.12 7.67V5.5C9.12 5.09 9.46 4.75 9.87 4.75C10.28 4.75 10.62 5.09 10.62 5.5V7.67C10.62 8.08 10.28 8.42 9.87 8.42Z" fill="white"/>
<path d="M10.84 8.41992H7.04999C6.63999 8.41992 6.29999 8.07992 6.29999 7.66992C6.29999 7.25992 6.63999 6.91992 7.04999 6.91992H10.84C11.25 6.91992 11.59 7.25992 11.59 7.66992C11.59 8.07992 11.26 8.41992 10.84 8.41992Z" fill="white"/>
<path d="M10.84 17.0801H7.04999C6.63999 17.0801 6.29999 16.7401 6.29999 16.3301C6.29999 15.9201 6.63999 15.5801 7.04999 15.5801H10.84C11.25 15.5801 11.59 15.9201 11.59 16.3301C11.59 16.7401 11.26 17.0801 10.84 17.0801Z" fill="white"/>
</svg>
