<svg width="24" height="24" viewBox="0 0 24 24" fill="none" xmlns="http://www.w3.org/2000/svg">
<path d="M13.75 10.5C12.92 10.5 12.25 9.83 12.25 9C12.25 8.17 12.92 7.5 13.75 7.5C14.58 7.5 15.25 8.17 15.25 9C15.25 9.83 14.58 10.5 13.75 10.5ZM13.75 8.5C13.47 8.5 13.25 8.72 13.25 9C13.25 9.28 13.47 9.5 13.75 9.5C14.03 9.5 14.25 9.28 14.25 9C14.25 8.72 14.03 8.5 13.75 8.5Z" fill="white"/>
<path d="M10.25 10.5C9.42 10.5 8.75 9.83 8.75 9C8.75 8.17 9.42 7.5 10.25 7.5C11.08 7.5 11.75 8.17 11.75 9C11.75 9.83 11.08 10.5 10.25 10.5ZM10.25 8.5C9.97 8.5 9.75 8.72 9.75 9C9.75 9.28 9.97 9.5 10.25 9.5C10.53 9.5 10.75 9.28 10.75 9C10.75 8.72 10.53 8.5 10.25 8.5Z" fill="white"/>
<path d="M15.5 13.5C14.67 13.5 14 12.83 14 12C14 11.17 14.67 10.5 15.5 10.5C16.33 10.5 17 11.17 17 12C17 12.83 16.33 13.5 15.5 13.5ZM15.5 11.5C15.22 11.5 15 11.72 15 12C15 12.28 15.22 12.5 15.5 12.5C15.78 12.5 16 12.28 16 12C16 11.72 15.78 11.5 15.5 11.5Z" fill="white"/>
<path d="M17.15 10.25C16.46 10.25 15.9 9.69 15.9 9C15.9 8.31 16.46 7.75 17.15 7.75C17.84 7.75 18.4 8.31 18.4 9C18.4 9.69 17.84 10.25 17.15 10.25ZM17.15 8.75C17.01 8.75 16.9 8.86 16.9 9C16.9 9.28 17.4 9.28 17.4 9C17.4 8.86 17.29 8.75 17.15 8.75Z" fill="white"/>
<path d="M17.15 16.25C16.46 16.25 15.9 15.69 15.9 15C15.9 14.31 16.46 13.75 17.15 13.75C17.84 13.75 18.4 14.31 18.4 15C18.4 15.69 17.84 16.25 17.15 16.25ZM17.15 14.75C17.01 14.75 16.9 14.86 16.9 15C16.9 15.28 17.4 15.28 17.4 15C17.4 14.86 17.29 14.75 17.15 14.75Z" fill="white"/>
<path d="M19.75 13.25C19.06 13.25 18.5 12.69 18.5 12C18.5 11.31 19.06 10.75 19.75 10.75C20.44 10.75 21 11.31 21 12C21 12.69 20.44 13.25 19.75 13.25ZM19.75 11.75C19.61 11.75 19.5 11.86 19.5 12C19.5 12.28 20 12.28 20 12C20 11.86 19.89 11.75 19.75 11.75Z" fill="white"/>
<path d="M6.79999 10.25C6.10999 10.25 5.54999 9.69 5.54999 9C5.54999 8.31 6.10999 7.75 6.79999 7.75C7.48999 7.75 8.04999 8.31 8.04999 9C8.04999 9.69 7.48999 10.25 6.79999 10.25ZM6.79999 8.75C6.65999 8.75 6.54999 8.86 6.54999 9C6.54999 9.28 7.04999 9.28 7.04999 9C7.04999 8.86 6.93999 8.75 6.79999 8.75Z" fill="white"/>
<path d="M6.79999 16.25C6.10999 16.25 5.54999 15.69 5.54999 15C5.54999 14.31 6.10999 13.75 6.79999 13.75C7.48999 13.75 8.04999 14.31 8.04999 15C8.04999 15.69 7.48999 16.25 6.79999 16.25ZM6.79999 14.75C6.65999 14.75 6.54999 14.86 6.54999 15C6.54999 15.28 7.04999 15.28 7.04999 15C7.04999 14.86 6.93999 14.75 6.79999 14.75Z" fill="white"/>
<path d="M4.20001 13.25C3.51001 13.25 2.95001 12.69 2.95001 12C2.95001 11.31 3.51001 10.75 4.20001 10.75C4.89001 10.75 5.45001 11.31 5.45001 12C5.45001 12.69 4.89001 13.25 4.20001 13.25ZM4.20001 11.75C4.06001 11.75 3.95001 11.86 3.95001 12C3.95001 12.28 4.45001 12.28 4.45001 12C4.45001 11.86 4.34001 11.75 4.20001 11.75Z" fill="white"/>
<path d="M15.9 6.44995C15.21 6.44995 14.65 5.88995 14.65 5.19995C14.65 4.50995 15.21 3.94995 15.9 3.94995C16.59 3.94995 17.15 4.50995 17.15 5.19995C17.15 5.88995 16.59 6.44995 15.9 6.44995ZM15.9 4.94995C15.76 4.94995 15.65 5.05995 15.65 5.19995C15.65 5.47995 16.15 5.47995 16.15 5.19995C16.15 5.05995 16.04 4.94995 15.9 4.94995Z" fill="white"/>
<path d="M8.09998 6.44995C7.40998 6.44995 6.84998 5.88995 6.84998 5.19995C6.84998 4.50995 7.40998 3.94995 8.09998 3.94995C8.78998 3.94995 9.34998 4.50995 9.34998 5.19995C9.34998 5.88995 8.78998 6.44995 8.09998 6.44995ZM8.09998 4.94995C7.95998 4.94995 7.84998 5.05995 7.84998 5.19995C7.84998 5.47995 8.34998 5.47995 8.34998 5.19995C8.34998 5.05995 8.23998 4.94995 8.09998 4.94995Z" fill="white"/>
<path d="M12.05 7.25C11.36 7.25 10.8 6.69 10.8 6C10.8 5.31 11.36 4.75 12.05 4.75C12.74 4.75 13.3 5.31 13.3 6C13.3 6.69 12.74 7.25 12.05 7.25ZM12.05 5.75C11.91 5.75 11.8 5.86 11.8 6C11.8 6.28 12.3 6.28 12.3 6C12.3 5.86 12.19 5.75 12.05 5.75Z" fill="white"/>
<path d="M15.9 20.25C15.21 20.25 14.65 19.69 14.65 19C14.65 18.31 15.21 17.75 15.9 17.75C16.59 17.75 17.15 18.31 17.15 19C17.15 19.69 16.59 20.25 15.9 20.25ZM15.9 18.75C15.76 18.75 15.65 18.86 15.65 19C15.65 19.28 16.15 19.28 16.15 19C16.15 18.86 16.04 18.75 15.9 18.75Z" fill="white"/>
<path d="M8.09998 20.25C7.40998 20.25 6.84998 19.69 6.84998 19C6.84998 18.31 7.40998 17.75 8.09998 17.75C8.78998 17.75 9.34998 18.31 9.34998 19C9.34998 19.69 8.78998 20.25 8.09998 20.25ZM8.09998 18.75C7.95998 18.75 7.84998 18.86 7.84998 19C7.84998 19.28 8.34998 19.28 8.34998 19C8.34998 18.86 8.23998 18.75 8.09998 18.75Z" fill="white"/>
<path d="M12.05 19.45C11.36 19.45 10.8 18.89 10.8 18.2C10.8 17.51 11.36 16.95 12.05 16.95C12.74 16.95 13.3 17.51 13.3 18.2C13.3 18.89 12.74 19.45 12.05 19.45ZM12.05 17.95C11.91 17.95 11.8 18.06 11.8 18.2C11.8 18.48 12.3 18.48 12.3 18.2C12.3 18.06 12.19 17.95 12.05 17.95Z" fill="white"/>
<path d="M8.5 13.5C7.67 13.5 7 12.83 7 12C7 11.17 7.67 10.5 8.5 10.5C9.33 10.5 10 11.17 10 12C10 12.83 9.33 13.5 8.5 13.5ZM8.5 11.5C8.22 11.5 8 11.72 8 12C8 12.28 8.22 12.5 8.5 12.5C8.78 12.5 9 12.28 9 12C9 11.72 8.78 11.5 8.5 11.5Z" fill="white"/>
<path d="M10.25 16.5C9.42 16.5 8.75 15.83 8.75 15C8.75 14.17 9.42 13.5 10.25 13.5C11.08 13.5 11.75 14.17 11.75 15C11.75 15.83 11.08 16.5 10.25 16.5ZM10.25 14.5C9.97 14.5 9.75 14.72 9.75 15C9.75 15.28 9.97 15.5 10.25 15.5C10.53 15.5 10.75 15.28 10.75 15C10.75 14.72 10.53 14.5 10.25 14.5Z" fill="white"/>
<path d="M13.75 16.5C12.92 16.5 12.25 15.83 12.25 15C12.25 14.17 12.92 13.5 13.75 13.5C14.58 13.5 15.25 14.17 15.25 15C15.25 15.83 14.58 16.5 13.75 16.5ZM13.75 14.5C13.47 14.5 13.25 14.72 13.25 15C13.25 15.28 13.47 15.5 13.75 15.5C14.03 15.5 14.25 15.28 14.25 15C14.25 14.72 14.03 14.5 13.75 14.5Z" fill="white"/>
<path d="M12 3.44995C11.44 3.44995 10.99 2.99995 10.99 2.44995C10.99 1.89995 11.44 1.44995 11.99 1.44995C12.54 1.44995 12.99 1.89995 12.99 2.44995C12.99 2.99995 12.56 3.44995 12 3.44995Z" fill="white"/>
<path d="M17.25 3.6001C16.83 3.6001 16.49 3.2601 16.49 2.8501C16.49 2.4401 16.83 2.1001 17.24 2.1001C17.65 2.1001 18 2.4401 18 2.8501C18 3.2601 17.67 3.6001 17.25 3.6001Z" fill="white"/>
<path d="M6.75 3.6001C6.34 3.6001 6 3.2601 6 2.8501C6 2.4401 6.33 2.1001 6.75 2.1001H6.76001C7.17001 2.1001 7.51001 2.4401 7.51001 2.8501C7.51001 3.2601 7.17 3.6001 6.75 3.6001Z" fill="white"/>
<path d="M12 22.5C11.44 22.5 10.99 22.05 10.99 21.5C10.99 20.95 11.44 20.5 11.99 20.5C12.54 20.5 12.99 20.95 12.99 21.5C12.99 22.05 12.56 22.5 12 22.5Z" fill="white"/>
<path d="M17.25 21.8501C16.83 21.8501 16.49 21.5101 16.49 21.1001C16.49 20.6901 16.83 20.3501 17.24 20.3501C17.65 20.3501 18 20.6901 18 21.1001C18 21.5101 17.67 21.8501 17.25 21.8501Z" fill="white"/>
<path d="M6.75 21.8501C6.34 21.8501 6 21.5101 6 21.1001C6 20.6901 6.33 20.3501 6.75 20.3501H6.76001C7.17001 20.3501 7.51001 20.6901 7.51001 21.1001C7.51001 21.5101 7.17 21.8501 6.75 21.8501Z" fill="white"/>
<path d="M1.54999 13C0.999988 13 0.549988 12.56 0.549988 12C0.549988 11.45 0.999988 11 1.54999 11C2.09999 11 2.54999 11.45 2.54999 12C2.54999 12.55 2.09999 13 1.54999 13Z" fill="white"/>
<path d="M3.75 17.75C3.34 17.75 3 17.42 3 17V16.99C3 16.58 3.34 16.24 3.75 16.24C4.16 16.24 4.5 16.58 4.5 16.99C4.5 17.4 4.16 17.75 3.75 17.75Z" fill="white"/>
<path d="M3.75 7.76001C3.34 7.76001 3 7.42001 3 7.01001C3 6.60001 3.34 6.26001 3.75 6.26001C4.16 6.26001 4.5 6.59001 4.5 7.00001V7.01001C4.5 7.42001 4.16 7.76001 3.75 7.76001Z" fill="white"/>
<path d="M22.5 13C21.95 13 21.5 12.56 21.5 12C21.5 11.45 21.95 11 22.5 11C23.05 11 23.5 11.45 23.5 12C23.5 12.55 23.05 13 22.5 13Z" fill="white"/>
<path d="M20.3 17.75C19.89 17.75 19.55 17.42 19.55 17V16.99C19.55 16.58 19.89 16.24 20.3 16.24C20.71 16.24 21.05 16.58 21.05 16.99C21.05 17.4 20.71 17.75 20.3 17.75Z" fill="white"/>
<path d="M20.3 7.76001C19.89 7.76001 19.55 7.42001 19.55 7.01001C19.55 6.60001 19.89 6.26001 20.3 6.26001C20.71 6.26001 21.05 6.59001 21.05 7.01001V7.02001C21.05 7.42001 20.71 7.76001 20.3 7.76001Z" fill="white"/>
</svg>
