<svg width="24" height="24" viewBox="0 0 24 24" fill="none" xmlns="http://www.w3.org/2000/svg">
<path d="M12 18.1901C8.59 18.1901 5.81 15.4101 5.81 12.0001C5.81 8.59006 8.59 5.81006 12 5.81006C13.35 5.81006 14.64 6.24006 15.72 7.05006C16.05 7.30006 16.12 7.77007 15.87 8.10007C15.62 8.43007 15.15 8.50006 14.82 8.25006C14 7.63006 13.03 7.31006 12 7.31006C9.42 7.31006 7.31 9.41006 7.31 12.0001C7.31 14.5901 9.41 16.6901 12 16.6901C13.48 16.6901 14.84 16.0101 15.74 14.8301C15.99 14.5001 16.46 14.4401 16.79 14.6901C17.12 14.9401 17.18 15.4101 16.93 15.7401C15.75 17.2901 13.95 18.1901 12 18.1901Z" fill="white"/>
<path d="M17.42 12.09C16.36 12.09 15.5 11.23 15.5 10.17C15.5 9.11 16.36 8.25 17.42 8.25C18.48 8.25 19.34 9.11 19.34 10.17C19.34 11.23 18.48 12.09 17.42 12.09ZM17.42 9.75C17.19 9.75 17 9.94 17 10.17C17 10.4 17.19 10.59 17.42 10.59C17.65 10.59 17.84 10.4 17.84 10.17C17.84 9.94 17.65 9.75 17.42 9.75Z" fill="white"/>
<path d="M12 22.75C6.07 22.75 1.25 17.93 1.25 12C1.25 6.07 6.07 1.25 12 1.25C17.93 1.25 22.75 6.07 22.75 12C22.75 17.93 17.93 22.75 12 22.75ZM12 2.75C6.9 2.75 2.75 6.9 2.75 12C2.75 17.1 6.9 21.25 12 21.25C17.1 21.25 21.25 17.1 21.25 12C21.25 6.9 17.1 2.75 12 2.75Z" fill="white"/>
</svg>
