<svg width="24" height="24" viewBox="0 0 24 24" fill="none" xmlns="http://www.w3.org/2000/svg">
<path d="M12 22.4999C11.6 22.4999 11.2 22.4099 10.88 22.2299L5.56004 19.1899C4.76004 18.7299 4.29004 17.6999 4.47004 16.7899L6.18004 8.21991C6.25004 7.88991 6.44005 7.47991 6.66005 7.21991L10.2601 2.89991C11.1501 1.82991 12.83 1.82991 13.72 2.89991L17.32 7.21991C17.54 7.47991 17.73 7.88991 17.8 8.21991L19.5101 16.7899C19.6901 17.6999 19.2201 18.7299 18.4201 19.1799L13.1 22.2199C12.8 22.4099 12.4 22.4999 12 22.4999ZM12 3.55991C11.79 3.55991 11.5901 3.66991 11.4201 3.85991L7.82005 8.17991C7.77005 8.23991 7.68005 8.42991 7.66005 8.50991L5.95005 17.0799C5.90005 17.3499 6.08004 17.7399 6.31004 17.8799L11.63 20.9199C11.81 21.0199 12.2 21.0199 12.37 20.9199L17.69 17.8799C17.93 17.7399 18.11 17.3499 18.05 17.0799L16.34 8.50991C16.32 8.42991 16.23 8.23991 16.18 8.17991L12.58 3.85991C12.41 3.66991 12.21 3.55991 12 3.55991Z" fill="white"/>
<path d="M12 21.76C11.46 21.76 11 21.43 10.82 20.93L6.47 8.75C6.33 8.36 6.53001 7.93 6.92001 7.79C7.31001 7.65 7.74 7.85 7.88 8.24L12 19.77L16.11 8.27C16.25 7.88 16.68 7.68 17.07 7.82C17.46 7.96 17.66 8.39 17.52 8.78L13.18 20.94C13 21.44 12.54 21.76 12 21.76Z" fill="white"/>
</svg>
