<svg width="24" height="24" viewBox="0 0 24 24" fill="none" xmlns="http://www.w3.org/2000/svg">
<path d="M12.7501 9.42001H8.67004C6.42004 9.42001 4.59009 7.59 4.59009 5.34C4.59009 3.09 6.42004 1.26001 8.67004 1.26001H12.7501V9.42001ZM8.67004 2.75C7.25004 2.75 6.09009 3.90999 6.09009 5.32999C6.09009 6.74999 7.25004 7.91 8.67004 7.91H11.2501V2.73999H8.67004V2.75Z" fill="white"/>
<path d="M12.7501 16.08H8.67004C6.42004 16.08 4.59009 14.25 4.59009 12C4.59009 9.75003 6.42004 7.92004 8.67004 7.92004H12.7501V16.08ZM8.67004 9.42004C7.25004 9.42004 6.09009 10.58 6.09009 12C6.09009 13.42 7.25004 14.58 8.67004 14.58H11.2501V9.41003H8.67004V9.42004Z" fill="white"/>
<path d="M8.67004 22.75C6.42004 22.75 4.59009 20.92 4.59009 18.67C4.59009 16.42 6.42004 14.59 8.67004 14.59H12.7501V18.67C12.7501 20.92 10.92 22.75 8.67004 22.75ZM8.67004 16.08C7.25004 16.08 6.09009 17.24 6.09009 18.66C6.09009 20.08 7.25004 21.24 8.67004 21.24C10.09 21.24 11.2501 20.08 11.2501 18.66V16.08H8.67004Z" fill="white"/>
<path d="M15.33 9.42001H11.25V1.25H15.33C17.58 1.25 19.41 3.07999 19.41 5.32999C19.42 7.57999 17.58 9.42001 15.33 9.42001ZM12.75 7.92001H15.33C16.75 7.92001 17.91 6.76 17.91 5.34C17.91 3.92 16.75 2.76001 15.33 2.76001H12.75V7.92001Z" fill="white"/>
<path d="M15.33 16.08C13.08 16.08 11.25 14.25 11.25 12C11.25 9.75003 13.08 7.92004 15.33 7.92004C17.58 7.92004 19.41 9.75003 19.41 12C19.41 14.25 17.58 16.08 15.33 16.08ZM15.33 9.42004C13.91 9.42004 12.75 10.58 12.75 12C12.75 13.42 13.91 14.58 15.33 14.58C16.75 14.58 17.91 13.42 17.91 12C17.91 10.58 16.76 9.42004 15.33 9.42004Z" fill="white"/>
</svg>
