<svg width="24" height="24" viewBox="0 0 24 24" fill="none" xmlns="http://www.w3.org/2000/svg">
<path d="M12.82 16.72C12.51 16.72 12.21 16.52 12.11 16.21L10.08 10.11L7.34 16.28C7.17 16.66 6.73 16.83 6.35 16.66C5.97 16.49 5.8 16.05 5.97 15.67L9.5 7.73999C9.63 7.45999 9.9 7.26999 10.22 7.29999C10.53 7.30999 10.8 7.52 10.9 7.81L13.54 15.74C13.67 16.13 13.46 16.56 13.07 16.69C12.98 16.7 12.9 16.72 12.82 16.72Z" fill="white"/>
<path d="M11.94 12.5701H7.53003V14.0701H11.94V12.5701Z" fill="white"/>
<path d="M16.35 16.7199C15.94 16.7199 15.6 16.3799 15.6 15.9699V10.6799C15.6 10.2699 15.94 9.92993 16.35 9.92993C16.76 9.92993 17.1 10.2699 17.1 10.6799V15.9699C17.1 16.3799 16.76 16.7199 16.35 16.7199Z" fill="white"/>
<path d="M16.35 9.03002C16.08 9.03002 15.83 8.93001 15.64 8.74001C15.55 8.65001 15.47 8.54003 15.42 8.42003C15.37 8.29003 15.35 8.17002 15.35 8.03002C15.35 7.90002 15.37 7.77001 15.42 7.65001C15.48 7.53001 15.55 7.42 15.64 7.33C15.73 7.23 15.84 7.16 15.96 7.11C16.33 6.96 16.78 7.05 17.05 7.33C17.15 7.42 17.22 7.53001 17.27 7.65001C17.32 7.77001 17.35 7.90002 17.35 8.03002C17.35 8.17002 17.32 8.30003 17.27 8.42003C17.22 8.54003 17.15 8.65001 17.05 8.74001C16.96 8.83001 16.85 8.91001 16.73 8.96001C16.61 9.01001 16.48 9.03002 16.35 9.03002Z" fill="white"/>
<path d="M15 22.75H9C3.57 22.75 1.25 20.43 1.25 15V9C1.25 3.57 3.57 1.25 9 1.25H15C20.43 1.25 22.75 3.57 22.75 9V15C22.75 20.43 20.43 22.75 15 22.75ZM9 2.75C4.39 2.75 2.75 4.39 2.75 9V15C2.75 19.61 4.39 21.25 9 21.25H15C19.61 21.25 21.25 19.61 21.25 15V9C21.25 4.39 19.61 2.75 15 2.75H9Z" fill="white"/>
</svg>
