<svg width="24" height="24" viewBox="0 0 24 24" fill="none" xmlns="http://www.w3.org/2000/svg">
<path d="M11.7 22.75C11.6 22.75 11.51 22.75 11.41 22.75C5.92997 22.6 1.47998 17.88 1.47998 12.24V5.21003C1.47998 4.70003 1.77997 4.25002 2.24997 4.06002C2.71997 3.87002 3.24995 3.97002 3.60995 4.33002L18.44 19.16C18.59 19.31 18.67 19.51 18.66 19.72C18.65 19.93 18.56 20.12 18.4 20.26C16.54 21.87 14.17 22.75 11.7 22.75ZM2.97998 5.81002V12.24C2.97998 17.08 6.77998 21.12 11.45 21.25C13.38 21.29 15.25 20.73 16.78 19.62L2.97998 5.81002Z" fill="white"/>
<path d="M21.27 19.9001C20.95 19.9001 20.63 19.7701 20.39 19.5301L5.69002 4.83008C5.54002 4.68008 5.46001 4.48008 5.47001 4.27008C5.48001 4.06008 5.57002 3.87007 5.73002 3.73007C7.64002 2.06007 10.11 1.17008 12.67 1.25008C18.1 1.40008 22.52 6.08007 22.52 11.6801V18.6401C22.52 19.1501 22.22 19.6001 21.75 19.7901C21.6 19.8601 21.44 19.9001 21.27 19.9001ZM7.35002 4.37007L21.03 18.0501V11.6901C21.03 6.90008 17.26 2.89007 12.63 2.76007C10.72 2.72007 8.87002 3.27007 7.35002 4.37007Z" fill="white"/>
</svg>
