<svg width="24" height="24" viewBox="0 0 24 24" fill="none" xmlns="http://www.w3.org/2000/svg">
<path d="M7.13003 20.75H5.18002C4.66002 20.75 4.18002 20.53 3.84002 20.13C3.51002 19.74 3.36004 19.22 3.45004 18.72L5.84002 4.39001C6.14002 2.57001 7.70004 1.25 9.54004 1.25H14C17.17 1.25 19.75 3.83 19.75 7C19.75 7.21 19.74 7.40999 19.71 7.60999C19.58 9.16999 18.89 10.66 17.76 11.78C16.5 13.05 14.8 13.76 12.99 13.76H9.86001C9.74001 13.76 9.63001 13.85 9.61001 13.98L8.85003 19.26C8.75003 19.93 8.28002 20.48 7.65002 20.67C7.45002 20.74 7.26003 20.75 7.13003 20.75ZM9.54004 2.75C8.43004 2.75 7.50004 3.54 7.32004 4.63L4.93002 18.96C4.91002 19.06 4.96002 19.13 4.99002 19.16C5.02002 19.19 5.08002 19.25 5.18002 19.25H7.13003C7.30003 19.2 7.36003 19.12 7.38003 19.03L8.14004 13.76C8.26004 12.9 9.01002 12.26 9.87002 12.26H13C14.41 12.26 15.72 11.71 16.71 10.72C17.59 9.85 18.12 8.7 18.23 7.47C18.25 7.3 18.26 7.16001 18.26 7.01001C18.26 4.67001 16.35 2.76001 14.01 2.76001H9.54004V2.75Z" fill="white"/>
<path d="M11.15 22.75H8.21998C7.69998 22.75 7.20998 22.52 6.86998 22.11C6.52998 21.7 6.39998 21.17 6.49998 20.65L6.75999 19.34L7.20997 19.22C7.28997 19.2 7.35999 19.12 7.37999 19.02L8.14 13.75C8.26 12.89 9.00998 12.25 9.86998 12.25H13C14.41 12.25 15.72 11.7 16.71 10.71C17.59 9.84002 18.12 8.69002 18.23 7.46002L18.33 6.29004L19.35 6.87003C20.84 7.72003 21.76 9.30003 21.76 11C21.76 12.53 21.16 13.97 20.08 15.07C18.98 16.16 17.54 16.75 16.01 16.75H13.86C13.73 16.75 13.63 16.84 13.61 16.96L12.89 21.28C12.74 22.13 12.01 22.75 11.15 22.75ZM8.06999 20.47L7.96998 20.95C7.94998 21.05 7.99998 21.13 8.02998 21.16C8.05998 21.2 8.11998 21.25 8.21998 21.25H11.15C11.28 21.25 11.38 21.16 11.4 21.04L12.12 16.72C12.26 15.87 12.99 15.25 13.85 15.25H16C17.13 15.25 18.2 14.81 19.01 14.01C19.81 13.21 20.25 12.13 20.25 11C20.25 10.22 19.97 9.48002 19.47 8.90002C19.16 9.98002 18.57 10.98 17.76 11.78C16.5 13.05 14.8 13.76 12.99 13.76H9.85997C9.73997 13.76 9.62997 13.85 9.60997 13.98L8.84999 19.26C8.77999 19.76 8.48999 20.2 8.06999 20.47Z" fill="white"/>
</svg>
