<svg width="24" height="24" viewBox="0 0 24 24" fill="none" xmlns="http://www.w3.org/2000/svg">
<path d="M12 22.75C6.07 22.75 1.25 17.93 1.25 12C1.25 6.07 6.07 1.25 12 1.25C17.93 1.25 22.75 6.07 22.75 12C22.75 17.93 17.93 22.75 12 22.75ZM12 2.75C6.9 2.75 2.75 6.9 2.75 12C2.75 17.1 6.9 21.25 12 21.25C17.1 21.25 21.25 17.1 21.25 12C21.25 6.9 17.1 2.75 12 2.75Z" fill="white"/>
<path d="M17.48 11.42C17.33 11.42 17.18 11.37 17.04 11.28C14.06 9.14002 10.24 8.67002 6.83998 10.03C6.44998 10.18 6.01998 9.99001 5.86998 9.61001C5.71998 9.23001 5.90997 8.79003 6.28997 8.64003C10.17 7.10003 14.52 7.63003 17.92 10.07C18.26 10.31 18.33 10.78 18.09 11.12C17.95 11.31 17.72 11.42 17.48 11.42Z" fill="white"/>
<path d="M15.91 14.1099C15.76 14.1099 15.61 14.0599 15.47 13.9699C13.35 12.4499 10.64 12.1199 8.20997 13.0799C7.82997 13.2299 7.38997 13.0399 7.23997 12.6599C7.08997 12.2699 7.27997 11.8399 7.65997 11.6899C10.56 10.5399 13.81 10.9399 16.34 12.7599C16.68 12.9999 16.75 13.4699 16.51 13.8099C16.37 13.9999 16.14 14.1099 15.91 14.1099Z" fill="white"/>
<path d="M14.81 16.9C14.66 16.9 14.51 16.8501 14.37 16.7601C12.83 15.6601 10.86 15.42 9.09999 16.11C8.71999 16.26 8.27999 16.0701 8.12999 15.6901C7.97999 15.3001 8.16998 14.8701 8.54998 14.7201C10.79 13.8301 13.29 14.1401 15.24 15.5401C15.58 15.7801 15.65 16.2501 15.41 16.5901C15.28 16.7901 15.05 16.9 14.81 16.9Z" fill="white"/>
</svg>
