<svg width="24" height="24" viewBox="0 0 24 24" fill="none" xmlns="http://www.w3.org/2000/svg">
<path d="M10.9 22.75C10.7 22.75 10.51 22.67 10.37 22.53L0.369966 12.53C0.0799658 12.24 0.0799658 11.76 0.369966 11.47L10.37 1.46999C10.58 1.25999 10.91 1.18999 11.19 1.30999C11.47 1.42999 11.65 1.69999 11.65 1.99999V5.99999C11.65 6.19999 11.57 6.38999 11.43 6.52999L5.95999 12L11.43 17.47C11.57 17.61 11.65 17.8 11.65 18V22C11.65 22.3 11.47 22.58 11.19 22.69C11.09 22.73 11 22.75 10.9 22.75ZM1.95999 12L10.15 20.19V18.31L4.36997 12.53C4.07997 12.24 4.07997 11.76 4.36997 11.47L10.15 5.68999V3.80999L1.95999 12Z" fill="white"/>
<path d="M12.9 22.75C12.8 22.75 12.71 22.73 12.61 22.69C12.33 22.57 12.15 22.3 12.15 22V18C12.15 17.8 12.23 17.61 12.37 17.47L17.84 12L12.37 6.52999C12.23 6.38999 12.15 6.19999 12.15 5.99999V1.99999C12.15 1.69999 12.33 1.41999 12.61 1.30999C12.89 1.18999 13.21 1.25999 13.43 1.46999L23.43 11.47C23.72 11.76 23.72 12.24 23.43 12.53L13.43 22.53C13.29 22.67 13.1 22.75 12.9 22.75ZM13.65 18.31V20.19L21.84 12L13.65 3.80999V5.68999L19.43 11.47C19.72 11.76 19.72 12.24 19.43 12.53L13.65 18.31Z" fill="white"/>
<path d="M10.9 15.75C10.7 15.75 10.51 15.67 10.37 15.53L7.36997 12.53C7.07997 12.24 7.07997 11.76 7.36997 11.47L10.37 8.46999C10.58 8.25999 10.91 8.18999 11.19 8.30999C11.47 8.42999 11.65 8.69999 11.65 8.99999V15C11.65 15.3 11.47 15.58 11.19 15.69C11.09 15.73 11 15.75 10.9 15.75ZM8.95999 12L10.15 13.19V10.81L8.95999 12Z" fill="white"/>
</svg>
