<svg width="24" height="24" viewBox="0 0 24 24" fill="none" xmlns="http://www.w3.org/2000/svg">
<path d="M12.0001 22.75C11.7501 22.75 11.5101 22.62 11.3701 22.41L2.33005 8.41C2.11005 8.06 2.21005 7.59999 2.55005 7.36999C2.90005 7.14999 3.36006 7.23999 3.59006 7.58999L11.9901 20.61L20.3601 7.58999C20.5801 7.23999 21.0501 7.13998 21.4001 7.35998C21.7501 7.57998 21.8501 8.04999 21.6301 8.39999L12.6301 22.4C12.4901 22.62 12.2601 22.75 12.0001 22.75Z" fill="white"/>
<path d="M12.0001 18.75C11.7401 18.75 11.51 18.62 11.37 18.41L2.37005 4.41C2.22005 4.18 2.21005 3.88999 2.34005 3.64999C2.47005 3.40999 2.72005 3.26001 3.00005 3.26001H6.00005C6.25005 3.26001 6.48005 3.38 6.62005 3.59L12.0001 11.65L17.3801 3.59C17.5201 3.38 17.7501 3.26001 18.0001 3.26001H21.0001C21.2701 3.26001 21.5301 3.40999 21.6601 3.64999C21.7901 3.88999 21.7801 4.18 21.6301 4.41L12.6301 18.41C12.4901 18.62 12.2601 18.75 12.0001 18.75ZM4.37005 4.75L12.0001 16.61L19.6301 4.75H18.4L12.62 13.42C12.34 13.84 11.65 13.84 11.37 13.42L5.59005 4.75H4.37005Z" fill="white"/>
<path d="M12 9.75C11.75 9.75 11.52 9.63001 11.38 9.42001L7.37997 3.42001C7.19997 3.15001 7.20997 2.80001 7.40997 2.54001C7.60997 2.29001 7.94997 2.18999 8.24997 2.29999L10.05 2.94V2C10.05 1.59 10.39 1.25 10.8 1.25H13.2C13.61 1.25 13.95 1.59 13.95 2V2.94L15.75 2.29999C16.05 2.18999 16.39 2.29001 16.59 2.54001C16.79 2.79001 16.8 3.15001 16.62 3.42001L12.62 9.42001C12.48 9.62001 12.25 9.75 12 9.75ZM9.87997 4.47L12 7.64999L14.12 4.47L13.45 4.70999C13.22 4.78999 12.97 4.76 12.77 4.62C12.57 4.48 12.45 4.25001 12.45 4.01001V2.76001H11.55V4C11.55 4.24 11.43 4.46999 11.23 4.60999C11.03 4.74999 10.77 4.78001 10.55 4.70001L9.87997 4.47Z" fill="white"/>
</svg>
