<svg width="24" height="24" viewBox="0 0 24 24" fill="none" xmlns="http://www.w3.org/2000/svg">
<path d="M18.73 21.75H12.27C11.85 21.75 11.46 21.54 11.23 21.19L8.30998 16.81L6.04997 20.68C5.82997 21.06 5.43999 21.29 5.00999 21.3C4.58999 21.34 4.16997 21.11 3.92997 20.74L0.559976 15.68C0.279976 15.26 0.279976 14.71 0.559976 14.29L4.22999 8.78998C4.45999 8.43998 4.84997 8.22998 5.26997 8.22998H10.2L7.79997 4.10999C7.57997 3.71999 7.56997 3.23999 7.79997 2.85999C8.01997 2.46999 8.43998 2.22998 8.87998 2.22998H15.72C16.16 2.22998 16.58 2.46999 16.8 2.84999L23.5 14.33C23.74 14.75 23.73 15.25 23.46 15.65L19.78 21.17C19.54 21.54 19.15 21.75 18.73 21.75ZM12.4 20.25H18.6L22.12 14.97L15.57 3.74998H9.30998L12.81 9.74998L15.21 13.87C15.43 14.25 15.44 14.73 15.21 15.12C14.99 15.51 14.57 15.75 14.13 15.75H9.39997L12.4 20.25ZM1.89997 15L4.95997 19.58L7.19999 15.75L10.7 9.74998H5.40998L1.89997 15ZM9.80998 14.25H13.7L11.76 10.92L9.80998 14.25Z" fill="white"/>
</svg>
