<svg width="24" height="24" viewBox="0 0 24 24" fill="none" xmlns="http://www.w3.org/2000/svg">
<path d="M17 19.75C16.74 19.75 16.49 19.61 16.36 19.38L14.51 16.28C14.37 16.05 14.37 15.76 14.5 15.52L17.84 9.68999L15.35 5.35999C15.22 5.12999 15.22 4.83999 15.35 4.60999C15.48 4.37999 15.73 4.23999 16 4.23999H19.5C19.77 4.23999 20.02 4.37998 20.15 4.61998L22.85 9.31999C22.98 9.54999 22.98 9.82998 22.85 10.06L17.65 19.36C17.52 19.59 17.27 19.74 17.01 19.74C17.01 19.75 17 19.75 17 19.75ZM16.02 15.89L16.98 17.5L21.34 9.69998L19.07 5.73999H17.3L19.35 9.31999C19.48 9.54999 19.48 9.83999 19.35 10.07L16.02 15.89Z" fill="white"/>
<path d="M9.99997 19.75C9.73997 19.75 9.48995 19.61 9.35995 19.38L7.50998 16.28C7.36998 16.05 7.36997 15.76 7.49997 15.52L10.84 9.68999L8.34997 5.35999C8.21997 5.12999 8.21997 4.83999 8.34997 4.60999C8.47997 4.37999 8.72997 4.23999 8.99997 4.23999H12.5C12.77 4.23999 13.02 4.37998 13.15 4.61998L15.85 9.31999C15.98 9.54999 15.98 9.82998 15.85 10.06L10.65 19.36C10.52 19.59 10.27 19.74 10.01 19.74C10.01 19.75 9.99997 19.75 9.99997 19.75ZM9.01996 15.89L9.97998 17.5L14.34 9.69998L12.07 5.73999H10.3L12.35 9.31999C12.48 9.54999 12.48 9.83999 12.35 10.07L9.01996 15.89Z" fill="white"/>
<path d="M6.29992 13.45C6.02992 13.45 5.78992 13.31 5.64992 13.08L1.14992 5.38C1.00992 5.15 1.00992 4.86 1.14992 4.63C1.27992 4.4 1.52992 4.25 1.79992 4.25H5.29992C5.56992 4.25 5.81994 4.4 5.94994 4.63L8.64992 9.42999C8.77992 9.65999 8.77994 9.94999 8.63994 10.18L6.93993 13.08C6.80993 13.31 6.56992 13.45 6.29992 13.45ZM3.10991 5.75L6.29992 11.22L7.12993 9.8L4.85991 5.75999H3.10991V5.75Z" fill="white"/>
</svg>
