<svg width="24" height="24" viewBox="0 0 24 24" fill="none" xmlns="http://www.w3.org/2000/svg">
<path d="M15 22.75H9C3.57 22.75 1.25 20.43 1.25 15V9C1.25 3.57 3.57 1.25 9 1.25H15C20.43 1.25 22.75 3.57 22.75 9V15C22.75 20.43 20.43 22.75 15 22.75ZM9 2.75C4.39 2.75 2.75 4.39 2.75 9V15C2.75 19.61 4.39 21.25 9 21.25H15C19.61 21.25 21.25 19.61 21.25 15V9C21.25 4.39 19.61 2.75 15 2.75H9Z" fill="white"/>
<path d="M17.9601 16.28H16.19C14.8 16.28 13.67 15.15 13.67 13.76C13.67 12.37 14.8 11.24 16.19 11.24H17.2101V8.45996C17.2101 8.04996 17.5501 7.70996 17.9601 7.70996C18.3701 7.70996 18.7101 8.04996 18.7101 8.45996V15.52C18.7101 15.95 18.3701 16.28 17.9601 16.28ZM16.19 12.75C15.63 12.75 15.17 13.21 15.17 13.77C15.17 14.33 15.63 14.79 16.19 14.79H17.2101V12.76H16.19V12.75Z" fill="white"/>
<path d="M11.69 16.2799C11.47 16.2799 11.25 16.1799 11.1 15.9999L5.45001 8.93994C5.19001 8.61994 5.24002 8.13995 5.57002 7.88995C5.89002 7.62995 6.37 7.67995 6.62 8.00995L12.27 15.0699C12.53 15.3899 12.48 15.8699 12.15 16.1199C12.02 16.2299 11.86 16.2799 11.69 16.2799Z" fill="white"/>
<path d="M6.04006 16.28C5.88006 16.28 5.71007 16.23 5.57007 16.12C5.25007 15.86 5.19006 15.39 5.45006 15.07L11.1001 8.01C11.3601 7.69 11.8301 7.63001 12.1501 7.89001C12.4701 8.15001 12.5301 8.61999 12.2701 8.93999L6.62006 16C6.48006 16.18 6.26006 16.28 6.04006 16.28Z" fill="white"/>
</svg>
