<svg width="24" height="24" viewBox="0 0 24 24" fill="none" xmlns="http://www.w3.org/2000/svg">
<path d="M13.89 2.88002L9.19999 2.14002C5.28999 1.53002 3.47999 2.85002 2.85999 6.76002L2.11999 11.45C1.71999 14.01 2.13999 15.67 3.58999 16.68C4.34999 17.22 5.38999 17.58 6.73999 17.79L11.43 18.53C15.34 19.14 17.15 17.82 17.77 13.91L18.5 9.22002C18.62 8.45002 18.67 7.76002 18.63 7.15002C18.5 4.65002 17.03 3.37002 13.89 2.88002ZM8.23999 9.35002C7.06999 9.35002 6.11999 8.40002 6.11999 7.24002C6.11999 6.07002 7.06999 5.12002 8.23999 5.12002C9.39999 5.12002 10.35 6.07002 10.35 7.24002C10.35 8.40002 9.39999 9.35002 8.23999 9.35002Z" fill="white"/>
<path d="M20.4999 13.47L18.9999 17.98C17.7499 21.74 15.7499 22.74 11.9899 21.49L7.47989 19.99C6.06989 19.52 5.04989 18.94 4.38989 18.21C5.01989 18.46 5.74989 18.65 6.57989 18.78L11.2799 19.52C11.9199 19.62 12.5199 19.67 13.0799 19.67C16.3799 19.67 18.1499 17.89 18.7599 14.06L19.4899 9.37C19.5899 8.79 19.6299 8.28 19.6299 7.81C21.1499 9.06 21.3699 10.84 20.4999 13.47Z" fill="white"/>
</svg>
