<svg width="24" height="24" viewBox="0 0 24 24" fill="none" xmlns="http://www.w3.org/2000/svg">
<path d="M15.72 9.69002C13.67 7.63002 10.33 7.63002 8.28 9.69002C6.22 11.75 6.22 15.08 8.28 17.13C10.34 19.19 13.67 19.19 15.72 17.13C17.78 15.07 17.78 11.74 15.72 9.69002ZM12.53 13.94L10.94 15.53C10.79 15.68 10.6 15.75 10.41 15.75C10.22 15.75 10.02 15.68 9.88 15.53C9.59 15.24 9.59 14.76 9.88 14.46L11.47 12.87C11.76 12.58 12.24 12.58 12.54 12.87C12.83 13.17 12.83 13.65 12.53 13.94Z" fill="white"/>
<path d="M19.6 5.80997C19.38 5.58997 19.1 5.46997 18.79 5.46997C18.48 5.46997 18.2 5.58997 17.98 5.79997C17.53 6.24997 17.53 6.96997 17.98 7.41997C18.2 7.63997 18.48 7.75997 18.79 7.75997C19.1 7.75997 19.38 7.63997 19.6 7.42997C19.82 7.20997 19.94 6.92997 19.94 6.61997C19.94 6.30997 19.82 6.01997 19.6 5.80997Z" fill="white"/>
<path d="M6.02 19.39C5.8 19.17 5.52 19.05 5.21 19.05C4.9 19.05 4.62 19.17 4.4 19.38C4.18 19.6 4.06 19.8801 4.06 20.1901C4.06 20.5001 4.18 20.78 4.4 21C4.62 21.22 4.92 21.33 5.21 21.33C5.5 21.33 5.8 21.22 6.02 20.99C6.46 20.56 6.46 19.83 6.02 19.39Z" fill="white"/>
<path d="M22.41 12.6C22.2 12.38 21.91 12.27 21.6 12.26C21.29 12.26 21.01 12.38 20.79 12.6C20.34 13.05 20.34 13.77 20.79 14.22C21.01 14.44 21.31 14.55 21.6 14.55C21.89 14.55 22.19 14.44 22.41 14.22C22.86 13.77 22.86 13.04 22.41 12.6Z" fill="white"/>
<path d="M3.21 12.6001C2.77 12.1601 2.04 12.1501 1.59 12.6001C1.14 13.0501 1.14 13.7701 1.59 14.2201C1.81 14.4401 2.11 14.5501 2.4 14.5501C2.69 14.5501 2.99 14.4401 3.21 14.2201C3.65 13.7701 3.65 13.0401 3.21 12.6001Z" fill="white"/>
<path d="M19.6 19.39C19.15 18.94 18.43 18.94 17.98 19.39C17.53 19.84 17.53 20.56 17.98 21.01C18.2 21.23 18.5 21.34 18.79 21.34C19.08 21.34 19.38 21.23 19.6 21.01C19.82 20.79 19.94 20.5 19.94 20.2C19.94 19.89 19.82 19.6 19.6 19.39Z" fill="white"/>
<path d="M6.02 5.80997C5.8 5.58997 5.52 5.46997 5.21 5.46997C4.9 5.46997 4.62 5.58997 4.4 5.79997C4.18 6.01997 4.06 6.29997 4.06 6.60997C4.06 6.91997 4.18 7.20997 4.4 7.41997C4.62 7.63997 4.9 7.75997 5.21 7.75997C5.52 7.75997 5.8 7.63997 6.02 7.42997C6.46 6.97997 6.46 6.24997 6.02 5.80997Z" fill="white"/>
<path d="M12.81 3.0001C12.81 2.9901 12.81 2.9901 12.81 3.0001C12.36 2.5501 11.64 2.5501 11.19 3.0001C10.97 3.2201 10.85 3.5101 10.85 3.8101C10.85 4.1201 10.97 4.4001 11.18 4.6201C11.4 4.8401 11.68 4.9601 11.99 4.9601C12.3 4.9601 12.58 4.8401 12.8 4.6201C13.26 4.1701 13.26 3.4401 12.81 3.0001Z" fill="white"/>
</svg>
