<svg width="24" height="24" viewBox="0 0 24 24" fill="none" xmlns="http://www.w3.org/2000/svg">
<path d="M22 22.75H5C2.93 22.75 1.25 21.07 1.25 19V2C1.25 1.59 1.59 1.25 2 1.25C2.41 1.25 2.75 1.59 2.75 2V19C2.75 20.24 3.76 21.25 5 21.25H22C22.41 21.25 22.75 21.59 22.75 22C22.75 22.41 22.41 22.75 22 22.75Z" fill="white"/>
<path d="M4.99994 17.7499C4.82994 17.7499 4.64994 17.6899 4.50994 17.5699C4.19994 17.2999 4.15994 16.8299 4.42994 16.5099L9.01994 11.1499C9.51994 10.5699 10.2399 10.2199 10.9999 10.1899C11.7599 10.1699 12.5099 10.4499 13.0499 10.9899L13.9999 11.9399C14.2499 12.1899 14.5699 12.3099 14.9299 12.3099C15.2799 12.2999 15.5999 12.1399 15.8299 11.8699L20.4199 6.50994C20.6899 6.19994 21.1599 6.15994 21.4799 6.42994C21.7899 6.69994 21.8299 7.16994 21.5599 7.48994L16.9699 12.8499C16.4699 13.4299 15.7499 13.7799 14.9899 13.8099C14.2199 13.8299 13.4799 13.5499 12.9399 13.0099L11.9999 12.0599C11.7499 11.8099 11.4199 11.6799 11.0699 11.6899C10.7199 11.6999 10.3999 11.8599 10.1699 12.1299L5.57994 17.4899C5.41994 17.6599 5.20994 17.7499 4.99994 17.7499Z" fill="white"/>
</svg>
