<svg width="24" height="24" viewBox="0 0 24 24" fill="none" xmlns="http://www.w3.org/2000/svg">
<path d="M22 9.75C21.59 9.75 21.25 9.41 21.25 9V7C21.25 4.42 19.58 2.75 17 2.75H15C14.59 2.75 14.25 2.41 14.25 2C14.25 1.59 14.59 1.25 15 1.25H17C20.44 1.25 22.75 3.56 22.75 7V9C22.75 9.41 22.41 9.75 22 9.75Z" fill="white"/>
<path d="M2 9.75C1.59 9.75 1.25 9.41 1.25 9V7C1.25 3.56 3.56 1.25 7 1.25H9C9.41 1.25 9.75 1.59 9.75 2C9.75 2.41 9.41 2.75 9 2.75H7C4.42 2.75 2.75 4.42 2.75 7V9C2.75 9.41 2.41 9.75 2 9.75Z" fill="white"/>
<path d="M17 22.75H15C14.59 22.75 14.25 22.41 14.25 22C14.25 21.59 14.59 21.25 15 21.25H17C19.58 21.25 21.25 19.58 21.25 17V15C21.25 14.59 21.59 14.25 22 14.25C22.41 14.25 22.75 14.59 22.75 15V17C22.75 20.44 20.44 22.75 17 22.75Z" fill="white"/>
<path d="M9 22.75H7C3.56 22.75 1.25 20.44 1.25 17V15C1.25 14.59 1.59 14.25 2 14.25C2.41 14.25 2.75 14.59 2.75 15V17C2.75 19.58 4.42 21.25 7 21.25H9C9.41 21.25 9.75 21.59 9.75 22C9.75 22.41 9.41 22.75 9 22.75Z" fill="white"/>
<path d="M12.0001 9.87C11.5101 9.87 11.1001 10.27 11.1001 10.77V13.24C11.1001 13.74 11.5001 14.14 12.0001 14.14C12.5001 14.14 12.9001 13.74 12.9001 13.24V10.77C12.9001 10.27 12.4901 9.87 12.0001 9.87Z" fill="white"/>
<path d="M15.53 7.40005C15.19 7.06005 14.8 6.77005 14.38 6.53005C14.24 6.46005 14.09 6.39005 13.94 6.32005C13.79 6.26005 13.64 6.20005 13.48 6.16005C13.32 6.11005 13.16 6.07005 13 6.03005C12.99 6.03005 12.97 6.03005 12.96 6.02005C12.65 5.96005 12.33 5.93005 12.01 5.93005H11.99C11.67 5.93005 11.36 5.96005 11.05 6.02005C11.01 6.03005 10.97 6.03005 10.94 6.05005C10.8 6.08005 10.66 6.11005 10.52 6.16005C10.35 6.20005 10.18 6.27005 10.01 6.34005C9.88001 6.40005 9.75001 6.47005 9.63001 6.53005C9.48001 6.61005 9.35001 6.70005 9.21001 6.79005C8.95001 6.97005 8.70001 7.17005 8.47001 7.40005C8.36001 7.51005 8.25001 7.63005 8.15001 7.75005C8.05001 7.88005 7.95001 8.00005 7.86001 8.14005C7.77001 8.27005 7.69001 8.41005 7.61001 8.55005C7.23001 9.26005 7.01001 10.0701 7.01001 10.9301V13.0701C7.01001 14.8001 7.89001 16.3201 9.21001 17.2101C9.33001 17.3001 9.46001 17.3701 9.59001 17.4501L10.14 17.7101C10.42 17.8201 10.71 17.9101 11 17.9701C11.32 18.0301 11.65 18.0701 11.99 18.0701C12 18.0701 12 18.0701 12.01 18.0701C12.35 18.0701 12.68 18.0301 13 17.9701C13.3 17.9101 13.59 17.8201 13.87 17.7101C14.06 17.6301 14.24 17.5401 14.41 17.4501C15.95 16.6001 16.99 14.9501 16.99 13.0701V10.9301C16.99 9.55005 16.43 8.30005 15.53 7.40005ZM14.4 13.2401C14.4 14.5601 13.32 15.6401 12 15.6401C10.68 15.6401 9.60001 14.5601 9.60001 13.2401V10.7701C9.60001 9.45005 10.68 8.37005 12 8.37005C13.32 8.37005 14.4 9.45005 14.4 10.7701V13.2401Z" fill="white"/>
</svg>
