<svg width="24" height="24" viewBox="0 0 24 24" fill="none" xmlns="http://www.w3.org/2000/svg">
<path d="M21.0169 7.99175C21.4148 8.55833 20.9405 9.25 20.2482 9.25H3C2.44772 9.25 2 8.80228 2 8.25V6.42C2 3.98 3.98 2 6.42 2H8.74C10.37 2 10.88 2.53 11.53 3.4L12.93 5.26C13.24 5.67 13.28 5.72 13.86 5.72H16.65C18.4546 5.72 20.0516 6.61709 21.0169 7.99175Z" fill="white"/>
<path d="M20.9834 10.7498C21.5344 10.7498 21.9815 11.1959 21.9834 11.7468L22 16.6501C21.9999 19.6 19.6002 21.9995 16.6504 21.9998H7.34961C4.39983 21.9995 2.00007 19.6 2 16.6501V11.7498C2.00013 11.1976 2.4478 10.7498 3 10.7498H20.9834ZM14.0947 15.1492C13.8901 15.1135 13.6788 15.1815 13.5293 15.3308L9.57617 19.2849C9.61192 19.3822 9.6666 19.4573 9.74121 19.5125C9.93945 19.6587 10.2487 19.623 10.6094 19.4119L11.5625 18.8455C11.712 18.7579 11.9589 18.7578 12.1084 18.8455L13.0605 19.4119C13.2751 19.5387 13.4709 19.6003 13.6367 19.6003C13.7502 19.6003 13.8476 19.5708 13.9287 19.5125C14.1303 19.3662 14.189 19.0604 14.0947 18.6541L13.8701 17.6755C13.8311 17.5162 13.8966 17.2916 14.0137 17.1746L14.8008 16.3845C15.0476 16.1375 15.1447 15.8737 15.0732 15.6462C14.9983 15.4189 14.7673 15.2633 14.4229 15.2048L14.0947 15.1492ZM11.835 13.1238C11.5944 13.1238 11.3735 13.3029 11.2109 13.6248L10.6514 14.7458C10.5831 14.8791 10.4041 15.0099 10.2578 15.0359L9.24414 15.2048C8.8997 15.2633 8.66865 15.4189 8.59375 15.6462C8.52223 15.8738 8.6201 16.1374 8.86719 16.3845L9.65723 17.1746C9.7709 17.2884 9.83555 17.5163 9.7998 17.6755L9.63086 18.407C9.61803 18.4719 9.69573 18.5139 9.74121 18.4685L13.2432 14.9675C13.1489 14.9123 13.0608 14.8304 13.0186 14.7458L12.459 13.6248C12.2964 13.3029 12.0755 13.1238 11.835 13.1238Z" fill="white"/>
</svg>
