<svg width="24" height="24" viewBox="0 0 24 24" fill="none" xmlns="http://www.w3.org/2000/svg">
<path d="M20.4101 6.95994V8.78994C20.4101 9.42994 20.1101 10.0299 19.5901 10.3999L8.59009 18.4599C7.88009 18.9799 6.91009 18.9799 6.21009 18.4499L4.77009 17.3699C4.12009 16.8799 3.59009 15.8199 3.59009 15.0099V6.95994C3.59009 5.83994 4.45009 4.59994 5.50009 4.20994L10.9701 2.15994C11.5401 1.94994 12.4601 1.94994 13.0301 2.15994L18.5001 4.20994C19.5501 4.59994 20.4101 5.83994 20.4101 6.95994Z" fill="white"/>
<path d="M18.8201 12.34C19.4801 11.86 20.4101 12.33 20.4101 13.15V15.03C20.4101 15.84 19.8801 16.89 19.2301 17.38L13.7601 21.47C13.2801 21.82 12.6401 22 12.0001 22C11.3601 22 10.7201 21.82 10.2401 21.46L9.41011 20.84C8.87011 20.44 8.87011 19.63 9.42011 19.23L18.8201 12.34Z" fill="white"/>
</svg>
