<svg width="24" height="24" viewBox="0 0 24 24" fill="none" xmlns="http://www.w3.org/2000/svg">
<path d="M16.44 3.09998C14.63 3.09998 13.01 3.97998 12 5.32998C10.99 3.97998 9.37 3.09998 7.56 3.09998C4.49 3.09998 2 5.59998 2 8.68998C2 9.87998 2.19 10.98 2.52 12C4.1 17 8.97 19.99 11.38 20.81C11.72 20.93 12.28 20.93 12.62 20.81C15.03 19.99 19.9 17 21.48 12C21.81 10.98 22 9.87998 22 8.68998C22 5.59998 19.51 3.09998 16.44 3.09998ZM14.84 11.38L11.3 14.92C11.16 15.06 10.9 15.19 10.71 15.22L9.36 15.4C8.87 15.47 8.53 15.13 8.6 14.64L8.79 13.29C8.82 13.1 8.95 12.83 9.09 12.7L12.63 9.15998C13.24 8.54998 13.95 8.25998 14.85 9.15998C15.74 10.06 15.45 10.77 14.84 11.38Z" fill="white"/>
</svg>
