<svg width="24" height="24" viewBox="0 0 24 24" fill="none" xmlns="http://www.w3.org/2000/svg">
<path d="M21.74 20.51L20.88 19.65C21.33 18.97 21.59 18.16 21.59 17.29C21.59 14.92 19.67 12.99 17.29 12.99C14.91 12.99 13 14.92 13 17.3C13 19.68 14.92 21.6 17.3 21.6C18.17 21.6 18.98 21.34 19.66 20.89L20.52 21.75C20.69 21.92 20.91 22.01 21.14 22.01C21.37 22.01 21.59 21.92 21.76 21.75C22.09 21.4 22.09 20.85 21.74 20.51Z" fill="white"/>
<path d="M22 8.73001C22 9.92001 21.81 11.02 21.48 12.04C21.42 12.25 21.17 12.31 20.99 12.18C19.9 11.37 18.57 10.94 17.2 10.94C13.73 10.94 10.9 13.77 10.9 17.24C10.9 18.32 11.18 19.38 11.71 20.32C11.87 20.6 11.68 20.96 11.38 20.85C8.97 20.03 4.1 17.04 2.52 12.04C2.19 11.02 2 9.92001 2 8.73001C2 5.64001 4.49 3.14001 7.56 3.14001C9.37 3.14001 10.99 4.02001 12 5.37001C13.01 4.02001 14.63 3.14001 16.44 3.14001C19.51 3.14001 22 5.64001 22 8.73001Z" fill="white"/>
</svg>
