<svg width="24" height="24" viewBox="0 0 24 24" fill="none" xmlns="http://www.w3.org/2000/svg">
<path d="M17.1999 12.4C14.5499 12.4 12.3999 14.55 12.3999 17.2C12.3999 18.1 12.6499 18.95 13.0999 19.67C13.9299 21.06 15.4499 22 17.1999 22C18.9499 22 20.4799 21.06 21.2999 19.67C21.7399 18.95 21.9999 18.1 21.9999 17.2C21.9999 14.55 19.8499 12.4 17.1999 12.4ZM19.5799 16.57L17.0199 18.93C16.8799 19.06 16.6899 19.13 16.5099 19.13C16.3199 19.13 16.1299 19.06 15.9799 18.91L14.7999 17.73C14.5099 17.44 14.5099 16.96 14.7999 16.67C15.0899 16.38 15.5699 16.38 15.8599 16.67L16.5299 17.34L18.5599 15.46C18.8599 15.18 19.3399 15.2 19.6199 15.5C19.8999 15.81 19.8799 16.29 19.5799 16.57Z" fill="white"/>
<path d="M22 8.73001C22 9.92001 21.81 11.02 21.48 12.04C21.42 12.25 21.17 12.31 20.99 12.18C19.9 11.37 18.57 10.94 17.2 10.94C13.73 10.94 10.9 13.77 10.9 17.24C10.9 18.32 11.18 19.38 11.71 20.32C11.87 20.6 11.68 20.96 11.38 20.85C8.97 20.03 4.1 17.04 2.52 12.04C2.19 11.02 2 9.92001 2 8.73001C2 5.64001 4.49 3.14001 7.56 3.14001C9.37 3.14001 10.99 4.02001 12 5.37001C13.01 4.02001 14.63 3.14001 16.44 3.14001C19.51 3.14001 22 5.64001 22 8.73001Z" fill="white"/>
</svg>
