<svg width="24" height="24" viewBox="0 0 24 24" fill="none" xmlns="http://www.w3.org/2000/svg">
<path d="M17.2898 4.14004L17.2198 7.93004C17.2098 8.45004 17.5398 9.14004 17.9598 9.45004L20.4398 11.33C22.0298 12.53 21.7698 14 19.8698 14.6L16.6398 15.61C16.0998 15.78 15.5298 16.37 15.3898 16.92L14.6198 19.86C14.0098 22.18 12.4898 22.41 11.2298 20.37L9.46978 17.52C9.14978 17 8.38978 16.61 7.78978 16.64L4.44978 16.81C2.05978 16.93 1.37978 15.55 2.93978 13.73L4.91978 11.43C5.28978 11 5.45978 10.2 5.28978 9.66004L4.26978 6.42004C3.67978 4.52004 4.73978 3.47004 6.62978 4.09004L9.57978 5.06004C10.0798 5.22004 10.8298 5.11004 11.2498 4.80004L14.3298 2.58004C15.9998 1.39004 17.3298 2.09004 17.2898 4.14004Z" fill="white"/>
<path d="M21.4398 20.47L18.4098 17.44C18.1198 17.15 17.6398 17.15 17.3498 17.44C17.0598 17.73 17.0598 18.21 17.3498 18.5L20.3798 21.53C20.5298 21.68 20.7198 21.75 20.9098 21.75C21.0998 21.75 21.2898 21.68 21.4398 21.53C21.7298 21.24 21.7298 20.76 21.4398 20.47Z" fill="white"/>
</svg>
