<svg width="24" height="24" viewBox="0 0 24 24" fill="none" xmlns="http://www.w3.org/2000/svg">
<path d="M14.84 10.9L20.5 7.11C21.07 6.73 21.22 5.95 20.84 5.39L19.02 2.68C18.64 2.11 17.86 1.96 17.3 2.34L11.64 6.13L14.84 10.9Z" fill="white"/>
<path d="M14.52 10.42L12.76 11.6L10.09 13.39L9.73999 13.62L9.57999 13.38L7.33999 10.04L7.17999 9.8L11.96 6.6L14.52 10.42Z" fill="white"/>
<path d="M5.64001 16.02L9.59001 13.38L7.35001 10.04L3.40001 12.68C2.94001 12.99 2.82001 13.61 3.13001 14.07L4.26001 15.75C4.56001 16.21 5.18001 16.33 5.64001 16.02Z" fill="white"/>
<path d="M16.56 21.81C16.46 21.85 16.35 21.88 16.25 21.88C15.96 21.88 15.69 21.71 15.56 21.43L11.83 13.19L8.05 21.44C7.92 21.71 7.65 21.88 7.36 21.88C7.26 21.88 7.15 21.85 7.05 21.81C6.68 21.63 6.51 21.19 6.68 20.81L10.09 13.39L12.76 11.6L16.93 20.82C17.1 21.19 16.93 21.64 16.56 21.81Z" fill="white"/>
</svg>
