<svg width="24" height="24" viewBox="0 0 24 24" fill="none" xmlns="http://www.w3.org/2000/svg">
<path d="M13.18 11.86C12.78 11.86 12.42 11.64 12.25 11.28L10.8 8.39L10.38 9.17C10.15 9.6 9.69 9.87 9.2 9.87H8.47C8.06 9.87 7.72 9.53 7.72 9.12C7.72 8.71 8.06 8.37 8.47 8.37H9.11L9.9 6.91C10.09 6.57 10.47 6.34 10.83 6.36C11.22 6.36 11.57 6.59 11.75 6.93L13.18 9.79L13.52 9.1C13.75 8.64 14.2 8.36 14.72 8.36H15.53C15.94 8.36 16.28 8.7 16.28 9.11C16.28 9.52 15.94 9.86 15.53 9.86H14.82L14.11 11.27C13.93 11.64 13.58 11.86 13.18 11.86Z" fill="white"/>
<path d="M2.75 18.65C2.34 18.65 2 18.31 2 17.9V12.2C1.95 9.48999 2.96 6.92999 4.84 5.00999C6.72 3.09999 9.24 2.04999 11.95 2.04999C17.49 2.04999 22 6.55999 22 12.1V17.8C22 18.21 21.66 18.55 21.25 18.55C20.84 18.55 20.5 18.21 20.5 17.8V12.1C20.5 7.38999 16.67 3.54999 11.95 3.54999C9.64 3.54999 7.5 4.43999 5.91 6.05999C4.31 7.68999 3.46 9.85999 3.5 12.18V17.89C3.5 18.31 3.17 18.65 2.75 18.65Z" fill="white"/>
<path d="M5.94 12.45H5.81C3.71 12.45 2 14.16 2 16.26V18.14C2 20.24 3.71 21.95 5.81 21.95H5.94C8.04 21.95 9.75 20.24 9.75 18.14V16.26C9.75 14.16 8.04 12.45 5.94 12.45Z" fill="white"/>
<path d="M18.19 12.45H18.06C15.96 12.45 14.25 14.16 14.25 16.26V18.14C14.25 20.24 15.96 21.95 18.06 21.95H18.19C20.29 21.95 22 20.24 22 18.14V16.26C22 14.16 20.29 12.45 18.19 12.45Z" fill="white"/>
</svg>
