<svg width="24" height="24" viewBox="0 0 24 24" fill="none" xmlns="http://www.w3.org/2000/svg">
<path d="M16.0098 20.97C16.0154 21.5261 15.5661 21.98 15.0099 21.98H8.99325C8.44357 21.98 7.99695 21.5364 7.99327 20.9867L7.97998 19C7.97998 17.9 8.86998 17 9.97998 17H13.99C15.09 17 15.98 17.89 15.99 18.99L16.0098 20.97Z" fill="white"/>
<path d="M18.5 10V12.17C18.5 12.7 18.71 13.21 19.09 13.59L19.91 14.41C20.29 14.79 20.5 15.3 20.5 15.83V17C20.5 19.3012 19.5911 20.9936 17.6057 21.6662C17.3045 21.7682 17.0089 21.5304 17.0078 21.2123L17 18.98C16.98 17.34 15.63 16 14 16H9.99C8.33 16 6.99 17.35 6.99 19V21.2242C6.99 21.5416 6.69629 21.7804 6.3949 21.6807C4.386 21.0159 3.5 19.3131 3.5 17V7C3.5 4.59396 4.45179 2.83379 6.64523 2.23651C6.94579 2.15467 7.2259 2.39622 7.22143 2.70769L7.19 4.9C7.18 5.37 7.35 5.82 7.67 6.16C8 6.5 8.43 6.69 8.94 6.7C9.45417 6.7 9.91203 6.48725 10.2245 6.14094C10.3367 6.01657 10.5516 6.01155 10.67 6.13C10.99 6.47 11.43 6.67 11.94 6.68C12.4543 6.68 12.9235 6.45394 13.2436 6.09007C13.3488 5.9705 13.5642 5.96097 13.67 6.08C13.99 6.42 14.43 6.62 14.94 6.63C15.9 6.63 16.67 5.88 16.69 4.91L16.7297 2.68665C16.7351 2.38234 17.0106 2.15137 17.3047 2.22955C19.5087 2.81532 20.5 4.58718 20.5 7V8C20.5 8.55 20.05 9 19.5 9C18.95 9 18.5 9.45 18.5 10Z" fill="white"/>
<path d="M9.22818 2.0033C9.50889 2.00149 9.73608 2.23107 9.73134 2.51174L9.68998 4.96C9.67998 5.37 9.34998 5.7 8.93998 5.7H8.92998C8.50998 5.69 8.17998 5.35 8.18998 4.93V2.50679C8.18998 2.2319 8.41188 2.00857 8.68675 2.00679L9.22818 2.0033Z" fill="white"/>
<path d="M12.2314 2C12.5109 2 12.7361 2.22906 12.7314 2.50847L12.69 4.95C12.68 5.35 12.35 5.68 11.94 5.68H11.93C11.51 5.67 11.18 5.33 11.19 4.92L11.19 2.5C11.19 2.22386 11.4138 2 11.69 2H12.2314Z" fill="white"/>
<path d="M15.2344 2.00682C15.5127 2.00857 15.736 2.23722 15.7312 2.51549L15.69 4.89C15.68 5.3 15.35 5.63 14.94 5.63H14.93C14.51 5.62 14.18 5.28 14.19 4.87V2.5034C14.19 2.22602 14.4158 2.00166 14.6931 2.00341L15.2344 2.00682Z" fill="white"/>
</svg>
