<svg width="24" height="24" viewBox="0 0 24 24" fill="none" xmlns="http://www.w3.org/2000/svg">
<path d="M13.3 8.10995L14.62 10.7499C14.8 11.1099 15.28 11.4699 15.68 11.5299L18.07 11.93C19.6 12.19 19.96 13.29 18.86 14.39L17 16.2599C16.69 16.5699 16.51 17.18 16.61 17.62L17.14 19.9299C17.56 21.7499 16.59 22.4599 14.98 21.5099L12.74 20.1799C12.33 19.9399 11.67 19.9399 11.26 20.1799L9.00997 21.4999C7.39997 22.4499 6.42997 21.7399 6.84997 19.9199L7.37997 17.61C7.47997 17.18 7.29997 16.5699 6.98997 16.2499L5.13997 14.3999C4.03997 13.2999 4.39997 12.1899 5.92997 11.9399L8.31997 11.5399C8.71997 11.4699 9.19997 11.1199 9.37997 10.7599L10.7 8.11995C11.41 6.67995 12.59 6.67995 13.3 8.10995Z" fill="white"/>
<path d="M6 9.75C5.59 9.75 5.25 9.41 5.25 9V2C5.25 1.59 5.59 1.25 6 1.25C6.41 1.25 6.75 1.59 6.75 2V9C6.75 9.41 6.41 9.75 6 9.75Z" fill="white"/>
<path d="M18 9.75C17.59 9.75 17.25 9.41 17.25 9V2C17.25 1.59 17.59 1.25 18 1.25C18.41 1.25 18.75 1.59 18.75 2V9C18.75 9.41 18.41 9.75 18 9.75Z" fill="white"/>
<path d="M12 4.75C11.59 4.75 11.25 4.41 11.25 4V2C11.25 1.59 11.59 1.25 12 1.25C12.41 1.25 12.75 1.59 12.75 2V4C12.75 4.41 12.41 4.75 12 4.75Z" fill="white"/>
</svg>
