<svg width="24" height="24" viewBox="0 0 24 24" fill="none" xmlns="http://www.w3.org/2000/svg">
<path d="M2 9.75C1.59 9.75 1.25 9.41 1.25 9V6.5C1.25 3.6 3.61 1.25 6.5 1.25H9C9.41 1.25 9.75 1.59 9.75 2C9.75 2.41 9.41 2.75 9 2.75H6.5C4.43 2.75 2.75 4.43 2.75 6.5V9C2.75 9.41 2.41 9.75 2 9.75Z" fill="white"/>
<path d="M22 9.75C21.59 9.75 21.25 9.41 21.25 9V6.5C21.25 4.43 19.57 2.75 17.5 2.75H15C14.59 2.75 14.25 2.41 14.25 2C14.25 1.59 14.59 1.25 15 1.25H17.5C20.39 1.25 22.75 3.6 22.75 6.5V9C22.75 9.41 22.41 9.75 22 9.75Z" fill="white"/>
<path d="M17.5 22.75H16C15.59 22.75 15.25 22.41 15.25 22C15.25 21.59 15.59 21.25 16 21.25H17.5C19.57 21.25 21.25 19.57 21.25 17.5V16C21.25 15.59 21.59 15.25 22 15.25C22.41 15.25 22.75 15.59 22.75 16V17.5C22.75 20.4 20.39 22.75 17.5 22.75Z" fill="white"/>
<path d="M9 22.75H6.5C3.61 22.75 1.25 20.4 1.25 17.5V15C1.25 14.59 1.59 14.25 2 14.25C2.41 14.25 2.75 14.59 2.75 15V17.5C2.75 19.57 4.43 21.25 6.5 21.25H9C9.41 21.25 9.75 21.59 9.75 22C9.75 22.41 9.41 22.75 9 22.75Z" fill="white"/>
<path d="M8.50012 11.38C10.0907 11.38 11.3801 10.0906 11.3801 8.5C11.3801 6.90942 10.0907 5.62 8.50012 5.62C6.90954 5.62 5.62012 6.90942 5.62012 8.5C5.62012 10.0906 6.90954 11.38 8.50012 11.38Z" fill="white"/>
<path d="M7.50012 18.38C8.53841 18.38 9.38012 17.5383 9.38012 16.5C9.38012 15.4617 8.53841 14.62 7.50012 14.62C6.46182 14.62 5.62012 15.4617 5.62012 16.5C5.62012 17.5383 6.46182 18.38 7.50012 18.38Z" fill="white"/>
<path d="M16.5001 9.38C17.5384 9.38 18.3801 8.53829 18.3801 7.5C18.3801 6.4617 17.5384 5.62 16.5001 5.62C15.4618 5.62 14.6201 6.4617 14.6201 7.5C14.6201 8.53829 15.4618 9.38 16.5001 9.38Z" fill="white"/>
<path d="M15.5001 18.38C17.0907 18.38 18.3801 17.0906 18.3801 15.5C18.3801 13.9094 17.0907 12.62 15.5001 12.62C13.9095 12.62 12.6201 13.9094 12.6201 15.5C12.6201 17.0906 13.9095 18.38 15.5001 18.38Z" fill="white"/>
</svg>
