<svg width="24" height="24" viewBox="0 0 24 24" fill="none" xmlns="http://www.w3.org/2000/svg">
<path d="M18.4999 4.10995L13.5099 2.23995C12.6799 1.92995 11.3199 1.92995 10.4899 2.23995L5.49991 4.10995C4.34991 4.53995 3.40991 5.89995 3.40991 7.11995V14.5499C3.40991 15.7299 4.18991 17.2799 5.13991 17.9899L9.43991 21.1999C10.8499 22.2599 13.1699 22.2599 14.5799 21.1999L18.8799 17.9899C19.8299 17.2799 20.6099 15.7299 20.6099 14.5499V7.11995C20.5899 5.89995 19.6499 4.53995 18.4999 4.10995ZM11.9299 7.02995C13.1099 7.02995 14.0699 7.98995 14.0699 9.16995C14.0699 10.3299 13.1599 11.2599 12.0099 11.2999H11.9899H11.9699C11.9499 11.2999 11.9299 11.2999 11.9099 11.2999C10.7099 11.2599 9.80991 10.3299 9.80991 9.16995C9.79991 7.98995 10.7599 7.02995 11.9299 7.02995ZM14.1899 16.3599C13.5799 16.7599 12.7899 16.9699 11.9999 16.9699C11.2099 16.9699 10.4099 16.7699 9.80991 16.3599C9.23991 15.9799 8.92991 15.4599 8.91991 14.8899C8.91991 14.3299 9.23991 13.7899 9.80991 13.4099C11.0199 12.6099 12.9899 12.6099 14.1999 13.4099C14.7699 13.7899 15.0899 14.3099 15.0899 14.8799C15.0799 15.4399 14.7599 15.9799 14.1899 16.3599Z" fill="white"/>
</svg>
