<svg width="24" height="24" viewBox="0 0 24 24" fill="none" xmlns="http://www.w3.org/2000/svg">
<path d="M18.3301 5.67L6.59008 17.41C6.15008 17.85 5.41008 17.79 5.05008 17.27C3.81008 15.46 3.08008 13.32 3.08008 11.12V6.73C3.08008 5.91 3.70008 4.98 4.46008 4.67L10.0301 2.39C11.2901 1.87 12.6901 1.87 13.9501 2.39L18.0001 4.04C18.6601 4.31 18.8301 5.17 18.3301 5.67Z" fill="white"/>
<path d="M19.27 7.04C19.92 6.49 20.91 6.96 20.91 7.81V11.12C20.91 16.01 17.36 20.59 12.51 21.93C12.18 22.02 11.82 22.02 11.48 21.93C10.06 21.53 8.74001 20.86 7.61001 19.98C7.13001 19.61 7.08001 18.91 7.50001 18.48C9.68001 16.25 16.06 9.75 19.27 7.04Z" fill="white"/>
</svg>
