<svg width="24" height="24" viewBox="0 0 24 24" fill="none" xmlns="http://www.w3.org/2000/svg">
<path d="M11.75 7H11H7C4.24 7 2 9.24 2 12V17C2 19.76 4.24 22 7 22H12C14.76 22 17 19.76 17 17V13V12.25C17 9.35 14.65 7 11.75 7Z" fill="white"/>
<path d="M21.8799 6.33C22.4045 8.88959 21.1621 11.2119 19.159 12.3057C18.8514 12.4736 18.4999 12.234 18.4999 11.8835V11.75C18.4999 8.31 15.6899 5.5 12.2499 5.5H12.1164C11.7659 5.5 11.5263 5.14846 11.6942 4.84086C12.7879 2.83778 15.1103 1.59542 17.6699 2.12C19.7599 2.55 21.4499 4.24 21.8799 6.33Z" fill="white"/>
</svg>
