<svg width="24" height="24" viewBox="0 0 24 24" fill="none" xmlns="http://www.w3.org/2000/svg">
<path d="M19.45 6.94001V9.45001C19.45 10.16 18.73 10.62 18.06 10.37C17.22 10.06 16.29 9.94001 15.31 10.04C12.93 10.3 10.49 12.59 10.09 14.96C9.76004 16.93 10.39 18.77 11.6 20.07C12.15 20.67 11.78 21.64 10.97 21.73C10.28 21.81 9.60004 21.79 9.22004 21.51L3.72004 17.4C3.07004 16.91 2.54004 15.85 2.54004 15.03V6.94001C2.54004 5.81001 3.40004 4.57001 4.45004 4.17001L9.95004 2.11001C10.52 1.90001 11.46 1.90001 12.03 2.11001L17.53 4.17001C18.59 4.57001 19.45 5.81001 19.45 6.94001Z" fill="white"/>
<path d="M16 11.51C13.52 11.51 11.5 13.53 11.5 16.01C11.5 18.49 13.52 20.51 16 20.51C18.48 20.51 20.5 18.49 20.5 16.01C20.5 13.52 18.48 11.51 16 11.51Z" fill="white"/>
<path d="M21 22C20.73 22 20.48 21.89 20.29 21.71C20.25 21.66 20.2 21.61 20.17 21.55C20.13 21.5 20.1 21.44 20.08 21.38C20.05 21.32 20.03 21.26 20.02 21.2C20.01 21.13 20 21.07 20 21C20 20.87 20.03 20.74 20.08 20.62C20.13 20.49 20.2 20.39 20.29 20.29C20.52 20.06 20.87 19.95 21.19 20.02C21.26 20.03 21.32 20.05 21.38 20.08C21.44 20.1 21.5 20.13 21.55 20.17C21.61 20.2 21.66 20.25 21.71 20.29C21.8 20.39 21.87 20.49 21.92 20.62C21.97 20.74 22 20.87 22 21C22 21.26 21.89 21.52 21.71 21.71C21.66 21.75 21.61 21.79 21.55 21.83C21.5 21.87 21.44 21.9 21.38 21.92C21.32 21.95 21.26 21.97 21.19 21.98C21.13 21.99 21.06 22 21 22Z" fill="white"/>
</svg>
