<svg width="24" height="24" viewBox="0 0 24 24" fill="none" xmlns="http://www.w3.org/2000/svg">
<path d="M19.36 4.63997L5.83005 18.17L4.73005 17.35C4.08005 16.86 3.55005 15.8 3.55005 14.98V6.88997C3.55005 5.75997 4.41005 4.51997 5.46005 4.11997L10.96 2.05997C11.53 1.84997 12.47 1.84997 13.04 2.05997L18.54 4.11997C18.83 4.22997 19.11 4.40997 19.36 4.63997Z" fill="white"/>
<path d="M20.45 14.98C20.45 15.8 19.92 16.86 19.27 17.35L13.77 21.46C12.79 22.18 11.21 22.18 10.23 21.46L8.46999 20.15C7.97999 19.79 7.92999 19.07 8.35999 18.64L18.74 8.25995C19.37 7.62995 20.45 8.07995 20.45 8.96995V14.98Z" fill="white"/>
<path d="M21.7699 2.23C21.4699 1.93 20.9799 1.93 20.6799 2.23L2.22988 20.69C1.92988 20.99 1.92988 21.48 2.22988 21.78C2.37988 21.92 2.56988 22 2.76988 22C2.96988 22 3.15988 21.92 3.30988 21.77L21.7699 3.31C22.0799 3.01 22.0799 2.53 21.7699 2.23Z" fill="white"/>
</svg>
