<svg width="24" height="24" viewBox="0 0 24 24" fill="none" xmlns="http://www.w3.org/2000/svg">
<path d="M18.54 4.11997L13.04 2.05997C12.47 1.84997 11.54 1.84997 10.97 2.05997L5.47005 4.11997C4.41005 4.51997 3.55005 5.75997 3.55005 6.88997V14.99C3.55005 15.8 4.08005 16.87 4.73005 17.35L10.23 21.46C11.2 22.19 12.79 22.19 13.76 21.46L19.26 17.35C19.91 16.86 20.4401 15.8 20.4401 14.99V6.88997C20.4501 5.75997 19.59 4.51997 18.54 4.11997ZM14.68 13.97C14.53 14.12 14.34 14.19 14.15 14.19C13.96 14.19 13.77 14.12 13.62 13.97L12.03 12.38L10.39 14.02C10.24 14.17 10.05 14.24 9.86005 14.24C9.67005 14.24 9.48005 14.17 9.33005 14.02C9.04005 13.73 9.04005 13.25 9.33005 12.96L10.97 11.32L9.37005 9.71997C9.08005 9.42997 9.08005 8.94997 9.37005 8.65997C9.66005 8.36997 10.14 8.36997 10.43 8.65997L12.02 10.25L13.57 8.69997C13.86 8.40997 14.34 8.40997 14.63 8.69997C14.92 8.98997 14.92 9.46997 14.63 9.75997L13.08 11.31L14.67 12.9C14.97 13.2 14.97 13.67 14.68 13.97Z" fill="white"/>
</svg>
