<svg width="24" height="24" viewBox="0 0 24 24" fill="none" xmlns="http://www.w3.org/2000/svg">
<path d="M18.7099 9.49C18.6099 9.49 18.5099 9.47001 18.4099 9.43001C18.0299 9.26001 17.8599 8.82 18.0199 8.44C18.2099 8.01 18.0999 7.38 17.7499 6.86C17.3999 6.33 16.8699 5.97 16.3899 6C15.9499 6 15.6399 5.67 15.6299 5.26C15.6299 4.84 15.9599 4.51 16.3699 4.5C17.3999 4.48 18.3699 5.07 18.9999 6.02C19.6399 6.98 19.7899 8.13 19.3999 9.03C19.2799 9.32 18.9999 9.49 18.7099 9.49Z" fill="white"/>
<path d="M21.8201 10.48C21.7501 10.48 21.6901 10.47 21.6201 10.45C21.2201 10.34 20.9901 9.92998 21.1001 9.52998C21.4801 8.16998 21.1601 6.54998 20.2501 5.18998C19.3401 3.82998 17.9601 2.91998 16.5501 2.74998C16.1401 2.69998 15.8501 2.32998 15.9001 1.91998C15.9501 1.50998 16.3301 1.20998 16.7301 1.26998C18.5601 1.48998 20.3401 2.64998 21.4901 4.36998C22.6401 6.08998 23.0301 8.16998 22.5401 9.94998C22.4501 10.26 22.1501 10.48 21.8201 10.48Z" fill="white"/>
<path d="M17.1199 11.78C17.1199 12.08 16.8699 12.33 16.5699 12.33H3.42988C3.12988 12.33 2.87988 12.08 2.87988 11.78C2.87988 11.48 3.12988 11.23 3.42988 11.23H4.16988L4.44988 9.91002C4.70988 8.63002 5.25988 7.46002 7.43988 7.46002H12.5699C14.7499 7.46002 15.2899 8.64002 15.5599 9.91002L15.8399 11.23H16.5799C16.8699 11.23 17.1199 11.48 17.1199 11.78Z" fill="white"/>
<path d="M17.43 15.91C17.32 14.71 17 13.42 14.66 13.42H5.34005C3.00005 13.42 2.68005 14.71 2.57005 15.91L2.16005 20.36C2.11005 20.91 2.29005 21.47 2.67005 21.89C3.06005 22.31 3.60005 22.55 4.19005 22.55H5.56005C6.74005 22.55 6.97005 21.87 7.12005 21.43L7.27005 20.99C7.44005 20.49 7.48005 20.36 8.14005 20.36H11.88C12.54 20.36 12.56 20.43 12.75 20.99L12.9 21.43C13.05 21.88 13.27 22.55 14.46 22.55H15.83C16.41 22.55 16.96 22.31 17.35 21.89C17.73 21.47 17.91 20.92 17.86 20.36L17.43 15.91ZM7.81005 17.43H5.62005C5.32005 17.43 5.07005 17.18 5.07005 16.88C5.07005 16.58 5.32005 16.33 5.62005 16.33H7.81005C8.11005 16.33 8.36005 16.58 8.36005 16.88C8.36005 17.18 8.11005 17.43 7.81005 17.43ZM14.38 17.43H12.19C11.89 17.43 11.64 17.18 11.64 16.88C11.64 16.58 11.89 16.33 12.19 16.33H14.38C14.68 16.33 14.93 16.58 14.93 16.88C14.93 17.18 14.68 17.43 14.38 17.43Z" fill="white"/>
</svg>
