<svg width="24" height="24" viewBox="0 0 24 24" fill="none" xmlns="http://www.w3.org/2000/svg">
<path d="M19.4802 2.82L19.7602 3.39C19.9002 3.67 20.2502 3.93 20.5602 3.99L20.9402 4.05C22.0802 4.24 22.3502 5.08 21.5302 5.91L21.1802 6.26C20.9502 6.5 20.8202 6.96 20.8902 7.28L20.9402 7.49C21.2502 8.87 20.5202 9.4 19.3202 8.68L19.0602 8.53C18.7502 8.35 18.2502 8.35 17.9402 8.53L17.6802 8.68C16.4702 9.41 15.7402 8.87 16.0602 7.49L16.1102 7.28C16.1802 6.96 16.0502 6.5 15.8202 6.26L15.4702 5.9C14.6502 5.07 14.9202 4.23 16.0602 4.04L16.4402 3.98C16.7402 3.93 17.1002 3.66 17.2402 3.38L17.5202 2.81C18.0602 1.73 18.9402 1.73 19.4802 2.82Z" fill="white"/>
<path d="M21.57 10.09C21.21 10.35 20.2 10.83 18.76 10.09C18.6 10.01 18.4 10 18.24 10.09C17.67 10.38 17.15 10.5 16.74 10.5C16.1 10.5 15.65 10.25 15.43 10.09C15.06 9.82 14.28 9.05 14.55 7.42C14.58 7.25 14.53 7.08 14.42 6.95C13.73 6.16 13.35 5.1 13.62 4.27C13.72 3.94 13.51 3.5 13.17 3.5H7C4 3.5 2 5 2 8.5V15.5C2 19 4 20.5 7 20.5H17C20 20.5 22 19 22 15.5V10.27C22 10.08 21.73 9.98 21.57 10.09ZM14.34 12.09C13.68 12.62 12.84 12.88 12 12.88C11.16 12.88 10.31 12.62 9.66 12.09L6.53 9.59C6.21 9.33 6.16 8.85 6.41 8.53C6.67 8.21 7.14 8.15 7.46 8.41L10.59 10.91C11.35 11.52 12.64 11.52 13.4 10.91C13.72 10.65 14.19 10.7 14.45 11.03C14.72 11.35 14.67 11.83 14.34 12.09Z" fill="white"/>
</svg>
