<svg width="24" height="24" viewBox="0 0 24 24" fill="none" xmlns="http://www.w3.org/2000/svg">
<path d="M10 3.75H11.25V8.5C11.25 8.91 11.59 9.25 12 9.25C12.41 9.25 12.75 8.91 12.75 8.5V3.75H14C14.41 3.75 14.75 3.41 14.75 3C14.75 2.59 14.41 2.25 14 2.25H10C9.59 2.25 9.25 2.59 9.25 3C9.25 3.41 9.59 3.75 10 3.75Z" fill="white"/>
<path d="M14 20.25H12.75V15.5C12.75 15.09 12.41 14.75 12 14.75C11.59 14.75 11.25 15.09 11.25 15.5V20.25H10C9.59 20.25 9.25 20.59 9.25 21C9.25 21.41 9.59 21.75 10 21.75H14C14.41 21.75 14.75 21.41 14.75 21C14.75 20.59 14.41 20.25 14 20.25Z" fill="white"/>
<path d="M2.83 9.88C2.95 9.95 3.08 9.98 3.2 9.98C3.46 9.98 3.71 9.85 3.85 9.6L4.48 8.52L8.6 10.9C8.71 10.97 8.84 11 8.97 11C9.23 11 9.48 10.87 9.62 10.62C9.83 10.27 9.7 9.81 9.35 9.6L5.23 7.22L5.85 6.14C6.06 5.78 5.93 5.32 5.58 5.12C5.22 4.91 4.76 5.03 4.56 5.39L2.56 8.85C2.35 9.22 2.47 9.67 2.83 9.88Z" fill="white"/>
<path d="M21.1699 14.12C20.8099 13.91 20.3499 14.03 20.1499 14.39L19.5199 15.47L15.3999 13.1C15.0399 12.89 14.5799 13.02 14.3799 13.37C14.1699 13.73 14.2999 14.19 14.6499 14.39L18.7599 16.77L18.1399 17.85C17.9299 18.21 18.0599 18.67 18.4099 18.87C18.5299 18.94 18.6599 18.97 18.7799 18.97C19.0399 18.97 19.2899 18.84 19.4299 18.59L21.4299 15.13C21.6499 14.78 21.5299 14.33 21.1699 14.12Z" fill="white"/>
<path d="M18.7699 7.22001L14.6499 9.60001C14.2899 9.81001 14.1699 10.27 14.3799 10.62C14.5199 10.86 14.7699 11 15.0299 11C15.1599 11 15.2899 10.97 15.3999 10.9L19.5099 8.52001L20.1399 9.60001C20.2799 9.84001 20.5299 9.98001 20.7899 9.98001C20.9199 9.98001 21.0499 9.95001 21.1599 9.88001C21.5199 9.67001 21.6399 9.21001 21.4299 8.86001L19.4299 5.40001C19.2199 5.04001 18.7599 4.92001 18.4099 5.13001C18.0499 5.34001 17.9299 5.80001 18.1399 6.15001L18.7699 7.22001Z" fill="white"/>
<path d="M5.23 16.78L9.34 14.4C9.7 14.19 9.82 13.73 9.61 13.38C9.4 13.02 8.94 12.9 8.59 13.11L4.48 15.49L3.85 14.41C3.64 14.05 3.18 13.93 2.83 14.14C2.47 14.35 2.35 14.81 2.56 15.16L4.56 18.62C4.7 18.86 4.95 19 5.21 19C5.34 19 5.47 18.97 5.58 18.9C5.94 18.69 6.06 18.23 5.85 17.88L5.23 16.78Z" fill="white"/>
<path d="M15.5 12C15.5 12.64 15.33 13.23 15.03 13.75C14.42 14.8 13.29 15.5 12 15.5C10.71 15.5 9.58 14.8 8.97 13.75C8.67 13.23 8.5 12.64 8.5 12C8.5 11.36 8.67 10.77 8.97 10.25C9.58 9.2 10.71 8.5 12 8.5C13.29 8.5 14.42 9.2 15.03 10.25C15.33 10.77 15.5 11.36 15.5 12Z" fill="white"/>
</svg>
