<svg width="24" height="24" viewBox="0 0 24 24" fill="none" xmlns="http://www.w3.org/2000/svg">
<path d="M20.0001 19.26H10.9301C10.4801 19.26 10.1101 18.89 10.1101 18.44C10.1101 17.99 10.4801 17.62 10.9301 17.62H20.0001C20.4501 17.62 20.8201 17.99 20.8201 18.44C20.8201 18.9 20.4501 19.26 20.0001 19.26Z" fill="white"/>
<path d="M20.0001 12.97H10.9301C10.4801 12.97 10.1101 12.6 10.1101 12.15C10.1101 11.7 10.4801 11.33 10.9301 11.33H20.0001C20.4501 11.33 20.8201 11.7 20.8201 12.15C20.8201 12.6 20.4501 12.97 20.0001 12.97Z" fill="white"/>
<path d="M20.0001 6.67003H10.9301C10.4801 6.67003 10.1101 6.30003 10.1101 5.85003C10.1101 5.40003 10.4801 5.03003 10.9301 5.03003H20.0001C20.4501 5.03003 20.8201 5.40003 20.8201 5.85003C20.8201 6.30003 20.4501 6.67003 20.0001 6.67003Z" fill="white"/>
<path d="M4.90993 8.03004C4.68993 8.03004 4.47993 7.94004 4.32993 7.79004L3.41993 6.88004C3.09993 6.56004 3.09993 6.04004 3.41993 5.72004C3.73993 5.40004 4.25993 5.40004 4.57993 5.72004L4.90993 6.05004L7.04993 3.91004C7.36993 3.59004 7.88993 3.59004 8.20993 3.91004C8.52993 4.23004 8.52993 4.75004 8.20993 5.07004L5.48993 7.79004C5.32993 7.94004 5.12993 8.03004 4.90993 8.03004Z" fill="white"/>
<path d="M4.90993 14.33C4.69993 14.33 4.48993 14.25 4.32993 14.09L3.41993 13.18C3.09993 12.86 3.09993 12.34 3.41993 12.02C3.73993 11.7 4.25993 11.7 4.57993 12.02L4.90993 12.35L7.04993 10.21C7.36993 9.88997 7.88993 9.88997 8.20993 10.21C8.52993 10.53 8.52993 11.05 8.20993 11.37L5.48993 14.09C5.32993 14.25 5.11993 14.33 4.90993 14.33Z" fill="white"/>
<path d="M4.90993 20.33C4.69993 20.33 4.48993 20.25 4.32993 20.09L3.41993 19.18C3.09993 18.86 3.09993 18.34 3.41993 18.02C3.73993 17.7 4.25993 17.7 4.57993 18.02L4.90993 18.35L7.04993 16.21C7.36993 15.89 7.88993 15.89 8.20993 16.21C8.52993 16.53 8.52993 17.05 8.20993 17.37L5.48993 20.09C5.32993 20.25 5.11993 20.33 4.90993 20.33Z" fill="white"/>
</svg>
