<svg width="24" height="24" viewBox="0 0 24 24" fill="none" xmlns="http://www.w3.org/2000/svg">
<path d="M17.45 17.3C15.77 17.3 14.22 16.51 13.21 15.12C12.97 14.79 13.04 14.32 13.37 14.07C13.7 13.82 14.17 13.9 14.42 14.23C15.15 15.22 16.25 15.79 17.45 15.79C19.54 15.79 21.25 14.09 21.25 11.99C21.25 9.89004 19.55 8.19004 17.45 8.19004C16.03 8.19004 14.69 8.95004 13.96 10.16L11.31 14.57C10.31 16.24 8.47999 17.27 6.53999 17.27C3.61999 17.27 1.23999 14.89 1.23999 11.97C1.23999 9.05004 3.61999 6.67004 6.53999 6.67004C8.21999 6.67004 9.76999 7.46004 10.78 8.85004C11.02 9.18004 10.95 9.65004 10.62 9.90004C10.28 10.15 9.81999 10.07 9.56999 9.74004C8.84999 8.77004 7.74999 8.20004 6.54999 8.20004C4.45999 8.20004 2.74999 9.90004 2.74999 12C2.74999 14.1 4.44999 15.8 6.54999 15.8C7.96999 15.8 9.30999 15.04 10.04 13.83L12.69 9.42004C13.69 7.75004 15.52 6.72004 17.46 6.72004C20.38 6.72004 22.76 9.10004 22.76 12.02C22.76 14.94 20.37 17.3 17.45 17.3Z" fill="white"/>
<path d="M6.5 14C7.60457 14 8.5 13.1046 8.5 12C8.5 10.8954 7.60457 10 6.5 10C5.39543 10 4.5 10.8954 4.5 12C4.5 13.1046 5.39543 14 6.5 14Z" fill="white"/>
<path d="M17.5 14C18.6046 14 19.5 13.1046 19.5 12C19.5 10.8954 18.6046 10 17.5 10C16.3954 10 15.5 10.8954 15.5 12C15.5 13.1046 16.3954 14 17.5 14Z" fill="white"/>
</svg>
