<svg width="24" height="24" viewBox="0 0 24 24" fill="none" xmlns="http://www.w3.org/2000/svg">
<path opacity="0.4" d="M14.3 10.1301C14.58 11.2301 14.09 12.2501 13.25 12.7701V14.7501C13.25 15.4401 12.69 16.0001 12 16.0001C11.31 16.0001 10.75 15.4401 10.75 14.7501V12.7701C10.07 12.3501 9.62 11.6001 9.62 10.7501C9.62 9.23006 11.06 8.05006 12.64 8.47006C13.44 8.68006 14.09 9.33006 14.3 10.1301Z" stroke="white" stroke-width="1.5" stroke-miterlimit="10"/>
<path d="M21.55 9.03C20.28 4.96 16.49 2 12 2C6.48 2 2 6.48 2 12C2 17.52 6.48 22 12 22C16.47 22 20.26 19.06 21.54 15.01" stroke="white" stroke-width="1.5" stroke-miterlimit="10" stroke-linecap="round" stroke-linejoin="round"/>
</svg>
