<svg width="24" height="24" viewBox="0 0 24 24" fill="none" xmlns="http://www.w3.org/2000/svg">
<path opacity="0.4" d="M7.56 7.55995V3.88997C7.56 3.05997 8.17001 2.36995 8.98001 2.23995C10.98 1.92995 13.02 1.92995 15.02 2.23995C15.84 2.36995 16.44 3.06997 16.44 3.88997V9.77995C16.44 11.01 15.45 12 14.22 12H9.78C8.55 12 7.56 12.99 7.56 14.22V20.1099C7.56 20.9399 8.17001 21.63 8.98001 21.76C10.98 22.07 13.02 22.07 15.02 21.76C15.84 21.63 16.44 20.9299 16.44 20.1099V16.44" stroke="white" stroke-width="1.5" stroke-linecap="round" stroke-linejoin="round"/>
<path d="M16.44 7.56006H20.11C20.94 7.56006 21.63 8.17007 21.76 8.98007C22.07 10.9801 22.07 13.0201 21.76 15.0201C21.63 15.8401 20.93 16.4401 20.11 16.4401H12" stroke="white" stroke-width="1.5" stroke-linecap="round" stroke-linejoin="round"/>
<path d="M12 7.56006H3.87999C3.04999 7.56006 2.36 8.17007 2.23 8.98007C1.92 10.9801 1.92 13.0201 2.23 15.0201C2.36 15.8401 3.05999 16.4401 3.87999 16.4401H7.54997" stroke="white" stroke-width="1.5" stroke-linecap="round" stroke-linejoin="round"/>
<path opacity="0.4" d="M10 4.84998V4.84998" stroke="white" stroke-width="1.5" stroke-linecap="round" stroke-linejoin="round"/>
<path opacity="0.4" d="M14 19.15V19.15" stroke="white" stroke-width="1.5" stroke-linecap="round" stroke-linejoin="round"/>
</svg>
