<svg width="24" height="24" viewBox="0 0 24 24" fill="none" xmlns="http://www.w3.org/2000/svg">
<path d="M11.65 2.35001L6.35001 7.65001C6.15001 7.85001 6.15001 8.16001 6.35001 8.36001L7.64001 9.65001C7.84001 9.85001 8.15001 9.85001 8.35001 9.65001L11.64 6.36001C11.84 6.16001 12.15 6.16001 12.35 6.36001L15.64 9.65001C15.84 9.85001 16.15 9.85001 16.35 9.65001L17.64 8.36001C17.84 8.16001 17.84 7.85001 17.64 7.65001L12.35 2.36001C12.16 2.16001 11.84 2.16001 11.65 2.35001Z" fill="white"/>
<path d="M11.65 21.65L6.36002 16.36C6.16002 16.16 6.16002 15.85 6.36002 15.65L7.65002 14.36C7.85002 14.16 8.16002 14.16 8.36002 14.36L11.65 17.65C11.85 17.85 12.16 17.85 12.36 17.65L15.65 14.36C15.85 14.16 16.16 14.16 16.36 14.36L17.65 15.65C17.85 15.85 17.85 16.16 17.65 16.36L12.36 21.65C12.16 21.84 11.84 21.84 11.65 21.65Z" fill="white"/>
<path opacity="0.4" d="M20.1 10.1L21.64 11.64C21.84 11.84 21.84 12.15 21.64 12.35L20.1 13.9C19.9 14.1 19.59 14.1 19.39 13.9L17.85 12.36C17.65 12.16 17.65 11.85 17.85 11.65L19.39 10.11C19.59 9.91001 19.91 9.91001 20.1 10.1Z" fill="white"/>
<path opacity="0.4" d="M4.60001 10.1L6.14001 11.64C6.34001 11.84 6.34001 12.15 6.14001 12.35L4.60001 13.9C4.40001 14.1 4.09001 14.1 3.89001 13.9L2.35001 12.36C2.15001 12.16 2.15001 11.85 2.35001 11.65L3.90001 10.1C4.09001 9.91002 4.41001 9.91002 4.60001 10.1Z" fill="white"/>
<path opacity="0.4" d="M12.35 9.87998L14.12 11.65C14.32 11.85 14.32 12.16 14.12 12.36L12.35 14.13C12.15 14.33 11.84 14.33 11.64 14.13L9.86997 12.36C9.66997 12.16 9.66997 11.85 9.86997 11.65L11.64 9.87998C11.84 9.67998 12.16 9.67998 12.35 9.87998Z" fill="white"/>
</svg>
