<svg width="24" height="24" viewBox="0 0 24 24" fill="none" xmlns="http://www.w3.org/2000/svg">
<path fill-rule="evenodd" clip-rule="evenodd" d="M15.88 20.9201C15.91 21.0801 15.82 21.2501 15.67 21.3101C14.53 21.7601 13.3 22.0001 12.01 22.0001C9.80998 22.0001 7.75998 21.2901 6.10998 20.0701C5.96998 19.9701 5.92998 19.7701 6.01998 19.6201C6.56998 18.6401 8.71998 15.4901 13.47 13.7301C13.65 13.6601 13.85 13.7501 13.91 13.9301C15.11 17.1201 15.67 19.8201 15.88 20.9201Z" fill="white"/>
<path fill-rule="evenodd" clip-rule="evenodd" d="M21.8199 13.89C21.3599 16.35 19.9799 18.49 18.0499 19.95C17.8399 20.11 17.5399 19.99 17.4899 19.74C17.2799 18.66 16.7699 16.33 15.7899 13.56C15.7199 13.35 15.8599 13.12 16.0799 13.09C18.5699 12.79 20.7499 13.27 21.5699 13.49C21.7399 13.55 21.8499 13.72 21.8199 13.89Z" fill="white"/>
<path opacity="0.4" fill-rule="evenodd" clip-rule="evenodd" d="M21.59 11.82C20.57 11.64 17.97 11.26 15.31 11.55C15.15 11.57 15.01 11.48 14.94 11.33C14.9 11.24 14.87 11.15 14.83 11.06C14.67 10.69 14.5 10.31 14.33 9.94002C14.24 9.76002 14.33 9.54002 14.51 9.46002C17.31 8.25002 18.87 6.69002 19.48 5.99002C19.63 5.82002 19.89 5.83002 20.03 6.01002C21.18 7.54002 21.89 9.41002 22 11.43C22.01 11.68 21.81 11.86 21.59 11.82Z" fill="white"/>
<path fill-rule="evenodd" clip-rule="evenodd" d="M18.4399 4.79C17.9199 5.42 16.4599 6.92 13.6899 8.02C13.5299 8.09 13.3399 8.02 13.2499 7.86C11.9699 5.54 10.6099 3.59 9.97992 2.71C9.82992 2.49 9.94992 2.2 10.2099 2.15C10.7899 2.05 11.3899 2 12.0099 2C14.4299 2 16.6599 2.86 18.3899 4.3C18.5399 4.42 18.5599 4.64 18.4399 4.79Z" fill="white"/>
<path fill-rule="evenodd" clip-rule="evenodd" d="M11.02 8.84004C7.23001 9.79004 3.88001 9.92004 2.66001 9.94004C2.43001 9.94004 2.26001 9.72004 2.32001 9.50004C3.04001 6.70004 4.96001 4.36004 7.49001 3.07004C7.64001 2.99004 7.83001 3.04004 7.93001 3.18004C8.45001 3.90004 9.86001 5.93004 11.24 8.32004C11.35 8.52004 11.25 8.78004 11.02 8.84004Z" fill="white"/>
<path opacity="0.4" fill-rule="evenodd" clip-rule="evenodd" d="M12.92 11.6C13.01 11.79 12.9 12.02 12.7 12.09C8.27 13.52 5.62 17.07 4.82 18.29C4.69 18.49 4.41 18.5 4.26 18.32C2.85 16.6 2 14.63 2 12.23V12.05C2 11.85 2.16 11.69 2.36 11.7C3.62 11.75 7.73 11.58 12 10.35C12.16 10.3 12.34 10.38 12.41 10.53C12.59 10.89 12.76 11.24 12.92 11.6Z" fill="white"/>
</svg>
