<svg width="24" height="24" viewBox="0 0 24 24" fill="none" xmlns="http://www.w3.org/2000/svg">
<path opacity="0.4" d="M17.5 11.4901C17.39 11.5801 17.28 11.6501 17.15 11.7101L16.06 12.2601L12.99 13.7901C12.44 14.0701 11.55 14.0701 11.01 13.7901L7.94 12.2601L6.85 11.7101C6.73 11.6401 6.62 11.5801 6.5 11.4901C5.44 10.7501 5.25 9.40011 6.1 8.33011L10.27 3.13011C10.53 2.81011 10.84 2.57011 11.16 2.43011C11.7 2.17011 12.3 2.17011 12.83 2.43011C13.15 2.57011 13.47 2.81011 13.72 3.13011L17.89 8.33011C18.75 9.41011 18.56 10.7601 17.5 11.4901Z" fill="white"/>
<path d="M17.5 11.4901C17.39 11.5801 17.28 11.6501 17.15 11.7101L16.06 12.2601L12 9.21012L7.94 12.2701L6.85 11.7201C6.73 11.6501 6.62 11.5901 6.5 11.5001C6.54 11.3101 6.64 11.1401 6.81 11.0201L11.16 7.75012V2.44012C11.7 2.18012 12.3 2.18012 12.83 2.44012V7.75012L17.18 11.0201C17.35 11.1401 17.45 11.3001 17.5 11.4901Z" fill="white"/>
<path d="M8.76999 14.4299L10.38 15.1499C11.41 15.6099 12.59 15.6099 13.63 15.1499L15.24 14.4299C16.68 13.7899 18.01 15.5299 17.01 16.7499L13.55 20.9799C12.7 22.0199 11.31 22.0199 10.45 20.9799L6.99999 16.7499C5.98999 15.5299 7.31999 13.7899 8.76999 14.4299Z" fill="white"/>
</svg>
