<svg width="24" height="24" viewBox="0 0 24 24" fill="none" xmlns="http://www.w3.org/2000/svg">
<path opacity="0.4" d="M12 22C17.5228 22 22 17.5228 22 12C22 6.47715 17.5228 2 12 2C6.47715 2 2 6.47715 2 12C2 17.5228 6.47715 22 12 22Z" fill="white"/>
<path d="M12.0001 11.88C13.3146 11.88 14.3801 10.8144 14.3801 9.5C14.3801 8.18556 13.3146 7.12 12.0001 7.12C10.6857 7.12 9.62012 8.18556 9.62012 9.5C9.62012 10.8144 10.6857 11.88 12.0001 11.88Z" fill="white"/>
<path d="M14.5901 16.03L13.39 14.52C13.72 14.43 14.05 14.31 14.36 14.16C14.72 13.96 14.85 13.52 14.66 13.16C14.47 12.8 14.02 12.66 13.66 12.84C12.62 13.36 11.3801 13.36 10.3401 12.84C9.97006 12.65 9.52005 12.8 9.33005 13.17C9.14005 13.54 9.29 13.99 9.66 14.18C9.96 14.33 10.28 14.45 10.6 14.53L9.41 16.04C9.15 16.37 9.21006 16.84 9.53006 17.09C9.86006 17.35 10.33 17.29 10.58 16.97L11.99 15.19L13.4001 16.97C13.5501 17.16 13.77 17.25 13.99 17.25C14.15 17.25 14.32 17.2 14.45 17.09C14.79 16.83 14.8401 16.36 14.5901 16.03Z" fill="white"/>
</svg>
