<svg width="24" height="24" viewBox="0 0 24 24" fill="none" xmlns="http://www.w3.org/2000/svg">
<path d="M7.5 17.4001V6.6001" stroke="white" stroke-width="1.5" stroke-miterlimit="10" stroke-linecap="round" stroke-linejoin="round"/>
<path d="M7.5 9.7561H16.5" stroke="white" stroke-width="1.5" stroke-miterlimit="10" stroke-linecap="round" stroke-linejoin="round"/>
<path opacity="0.4" d="M12 24C18.6274 24 24 18.6274 24 12C24 5.37258 18.6274 0 12 0C5.37258 0 0 5.37258 0 12C0 18.6274 5.37258 24 12 24Z" fill="white"/>
<path d="M16.5001 18.3C16.0081 18.3 15.6001 17.892 15.6001 17.4V6.59995C15.6001 6.10795 16.0081 5.69995 16.5001 5.69995C16.9921 5.69995 17.4001 6.10795 17.4001 6.59995V17.4C17.4001 17.892 16.9921 18.3 16.5001 18.3Z" fill="white"/>
<path d="M16.4999 15.144H7.49989C7.00789 15.144 7.59989 14.736 7.59989 14.244C7.59989 13.752 7.00789 13.344 7.49989 13.344H16.4999C16.9919 13.344 17.3999 13.752 17.3999 14.244C17.3999 14.736 16.9919 15.144 16.4999 15.144Z" fill="white"/>
</svg>
