<svg width="24" height="24" viewBox="0 0 24 24" fill="none" xmlns="http://www.w3.org/2000/svg">
<path opacity="0.4" d="M16.19 2H7.81C4.17 2 2 4.17 2 7.81V16.18C2 19.82 4.17 21.99 7.81 21.99H16.18C19.82 21.99 21.99 19.82 21.99 16.18V7.81C22 4.17 19.83 2 16.19 2Z" fill="white"/>
<path d="M10.89 7.79997C10.79 7.50997 10.52 7.29996 10.21 7.28996C9.88999 7.26996 9.60999 7.44997 9.48999 7.72997L5.95999 15.66C5.78999 16.04 5.95999 16.48 6.33999 16.65C6.71999 16.82 7.15999 16.65 7.32999 16.27L8.30999 14.07H11.39L12.1 16.2C12.2 16.51 12.5 16.71 12.81 16.71C12.89 16.71 12.97 16.7 13.05 16.67C13.44 16.54 13.65 16.11 13.52 15.72L10.89 7.79997ZM8.97998 12.57L10.08 10.1L10.9 12.57H8.97998Z" fill="white"/>
<path d="M16.35 9.92993C15.94 9.92993 15.6 10.2699 15.6 10.6799V15.9699C15.6 16.3799 15.94 16.7199 16.35 16.7199C16.76 16.7199 17.1 16.3799 17.1 15.9699V10.6799C17.1 10.2599 16.76 9.92993 16.35 9.92993Z" fill="white"/>
<path d="M17.27 7.65C17.22 7.53 17.15 7.42 17.05 7.33C16.78 7.05 16.33 6.96 15.96 7.11C15.84 7.16 15.73 7.23 15.64 7.33C15.55 7.42 15.48 7.53 15.42 7.65C15.37 7.77 15.35 7.9 15.35 8.03C15.35 8.17 15.37 8.29 15.42 8.42C15.47 8.54 15.55 8.65001 15.64 8.74001C15.83 8.93001 16.08 9.03 16.35 9.03C16.48 9.03 16.61 9.01001 16.73 8.96001C16.85 8.91001 16.96 8.83001 17.05 8.74001C17.15 8.65001 17.22 8.54 17.27 8.42C17.32 8.3 17.35 8.17 17.35 8.03C17.35 7.9 17.32 7.77 17.27 7.65Z" fill="white"/>
</svg>
