<svg width="24" height="24" viewBox="0 0 24 24" fill="none" xmlns="http://www.w3.org/2000/svg">
<path opacity="0.4" d="M5.67999 18.44V20.29C5.67999 21.06 6.49998 21.54 7.16998 21.16L9.03003 20.11C9.97003 20.38 10.96 20.52 11.99 20.52C17.51 20.52 21.99 16.37 21.99 11.26C21.99 6.14999 17.51 2 11.99 2C6.46999 2 1.98999 6.14999 1.98999 11.26C1.99999 14.15 3.43999 16.74 5.67999 18.44Z" fill="white"/>
<path d="M11.0201 9.55993L8.48003 12.5799C8.17003 12.9499 8.51003 13.4999 8.98003 13.3899L10.99 12.8999C11.12 12.8699 11.25 12.8899 11.36 12.9499L12.37 13.5399C12.58 13.6599 12.8501 13.6199 13.0001 13.4299L15.5001 10.4399C15.8101 10.0699 15.46 9.50993 14.99 9.63993L13.17 10.1099C13.05 10.1399 12.9201 10.1299 12.8101 10.0699L11.6301 9.44993C11.4301 9.32993 11.1701 9.37993 11.0201 9.55993Z" fill="white"/>
</svg>
