<svg width="24" height="24" viewBox="0 0 24 24" fill="none" xmlns="http://www.w3.org/2000/svg">
<path opacity="0.4" d="M12 22C17.5228 22 22 17.5228 22 12C22 6.47715 17.5228 2 12 2C6.47715 2 2 6.47715 2 12C2 17.5228 6.47715 22 12 22Z" fill="white"/>
<path d="M17.48 11.42C17.33 11.42 17.18 11.37 17.04 11.28C14.06 9.14003 10.24 8.67003 6.83998 10.03C6.44998 10.18 6.01998 9.99003 5.86998 9.61003C5.71998 9.23003 5.90997 8.79003 6.28997 8.64003C10.17 7.10003 14.52 7.63004 17.92 10.07C18.26 10.31 18.33 10.78 18.09 11.12C17.95 11.31 17.72 11.42 17.48 11.42Z" fill="white"/>
<path d="M15.91 14.1101C15.76 14.1101 15.61 14.0601 15.47 13.9701C13.35 12.4501 10.64 12.1201 8.20997 13.0801C7.82997 13.2301 7.38997 13.0401 7.23997 12.6601C7.08997 12.2701 7.27997 11.8401 7.65997 11.6901C10.56 10.5401 13.81 10.94 16.34 12.76C16.68 13 16.75 13.47 16.51 13.81C16.37 14 16.14 14.1101 15.91 14.1101Z" fill="white"/>
<path d="M14.81 16.9001C14.66 16.9001 14.51 16.8501 14.37 16.7601C12.83 15.6601 10.86 15.4201 9.09999 16.1101C8.71999 16.2601 8.27999 16.0701 8.12999 15.6901C7.97999 15.3001 8.16998 14.8701 8.54998 14.7201C10.79 13.8301 13.29 14.1401 15.24 15.5401C15.58 15.7801 15.65 16.2501 15.41 16.5901C15.28 16.7901 15.05 16.9001 14.81 16.9001Z" fill="white"/>
</svg>
