<svg width="24" height="24" viewBox="0 0 24 24" fill="none" xmlns="http://www.w3.org/2000/svg">
<path d="M12.0001 22.75C11.7501 22.75 11.5101 22.62 11.3701 22.41L2.33005 8.40999C2.11005 8.05999 2.21005 7.59998 2.55005 7.36998C2.90005 7.14998 3.36006 7.23998 3.59006 7.58998L11.9901 20.61L20.3601 7.58998C20.5801 7.23998 21.0501 7.13999 21.4001 7.35999C21.7501 7.57999 21.8501 8.04998 21.6301 8.39998L12.6301 22.4C12.4901 22.62 12.2601 22.75 12.0001 22.75Z" fill="white"/>
<path opacity="0.4" d="M3.91999 4H5.73997C5.90997 4 6.05998 4.08 6.15998 4.22L11.6 12.37C11.8 12.67 12.23 12.67 12.43 12.37L17.87 4.22C17.96 4.08 18.12 4 18.29 4H20.11C20.51 4 20.74 4.44 20.53 4.77L12.45 17.35C12.25 17.66 11.81 17.66 11.61 17.35L3.52998 4.77C3.27998 4.44 3.51999 4 3.91999 4Z" fill="white"/>
<path d="M8 3L11.58 8.38C11.78 8.68 12.21 8.68 12.41 8.38L16 3L13.2 4V2H10.8V4L8 3Z" fill="white"/>
</svg>
