<svg width="24" height="24" viewBox="0 0 24 24" fill="none" xmlns="http://www.w3.org/2000/svg">
<path opacity="0.4" d="M16.19 2H7.82002C4.18002 2 2.01001 4.17 2.01001 7.81V16.18C2.01001 19.82 4.18002 21.99 7.82002 21.99H16.19C19.83 21.99 22 19.82 22 16.18V7.81C22 4.17 19.83 2 16.19 2Z" fill="white"/>
<path d="M17.9601 7.71997C17.5501 7.71997 17.2101 8.05997 17.2101 8.46997V11.25H16.19C14.8 11.25 13.67 12.38 13.67 13.77C13.67 15.16 14.8 16.29 16.19 16.29H17.9601C18.3701 16.29 18.7101 15.95 18.7101 15.54V8.47997C18.7101 8.04997 18.3701 7.71997 17.9601 7.71997ZM17.2101 14.78H16.19C15.63 14.78 15.17 14.32 15.17 13.76C15.17 13.2 15.63 12.74 16.19 12.74H17.2101V14.78Z" fill="white"/>
<path d="M12.16 7.87994C11.84 7.61994 11.36 7.66994 11.11 7.99994L8.87001 10.7999L6.63002 7.99994C6.37002 7.67994 5.90002 7.61994 5.58002 7.87994C5.26002 8.13994 5.20002 8.60993 5.46002 8.92993L7.91002 11.9899L5.46002 15.0499C5.20002 15.3699 5.25002 15.8499 5.58002 16.0999C5.72002 16.2099 5.88002 16.2599 6.05002 16.2599C6.27002 16.2599 6.49002 16.1599 6.64002 15.9799L8.88002 13.1799L11.12 15.9799C11.27 16.1599 11.49 16.2599 11.71 16.2599C11.87 16.2599 12.04 16.2099 12.18 16.0999C12.5 15.8399 12.56 15.3699 12.3 15.0499L9.85002 11.9899L12.3 8.92993C12.54 8.60993 12.49 8.13994 12.16 7.87994Z" fill="white"/>
</svg>
